<svg width="234" height="234" viewBox="0 0 234 234" fill="none" xmlns="http://www.w3.org/2000/svg">
<path d="M224.44 119.34H192.23C188.148 119.34 184.84 122.646 184.84 126.725C184.84 130.803 188.148 134.11 192.23 134.11H224.44C228.521 134.11 231.83 130.803 231.83 126.725C231.83 122.646 228.521 119.34 224.44 119.34Z" fill="#F7C948"/>
<path d="M187.787 44.7412L165.011 67.5171C162.125 70.4031 162.123 75.0806 165.007 77.9647C167.891 80.8487 172.569 80.8471 175.455 77.9611L198.231 55.1852C201.117 52.2992 201.118 47.6217 198.234 44.7377C195.35 41.8537 190.673 41.8553 187.787 44.7412Z" fill="#F7C948"/>
<path d="M36.3965 56.7745L59.1724 79.5504C62.0584 82.4363 66.7359 82.4379 69.6199 79.5539C72.504 76.6699 72.5024 71.9924 69.6164 69.1064L46.8405 46.3305C43.9545 43.4445 39.277 43.4429 36.393 46.327C33.509 49.211 33.5106 53.8885 36.3965 56.7745Z" fill="#F7C948"/>
<path d="M109.46 19.3902V51.6002C109.46 55.6816 112.766 58.9902 116.845 58.9902C120.924 58.9902 124.23 55.6816 124.23 51.6002V19.3902C124.23 15.3088 120.924 12.0002 116.845 12.0002C112.766 12.0002 109.46 15.3088 109.46 19.3902Z" fill="#F7C948"/>
<path d="M42.6 119.34H10.39C6.30862 119.34 3 122.646 3 126.725C3 130.803 6.30862 134.11 10.39 134.11H42.6C46.6814 134.11 49.99 130.803 49.99 126.725C49.99 122.646 46.6814 119.34 42.6 119.34Z" fill="#F7C948"/>
<path d="M198.987 83.6684L183.999 89.521C180.197 91.0055 178.318 95.2889 179.801 99.0881C181.285 102.887 185.57 104.764 189.371 103.279L204.359 97.4267C208.161 95.9421 210.04 91.6587 208.557 87.8595C207.073 84.0603 202.789 82.1838 198.987 83.6684Z" fill="#F7C948"/>
<path d="M75.7636 45.4711L81.6162 60.459C83.1007 64.2608 87.3841 66.1401 91.1833 64.6566C94.9826 63.173 96.859 58.8884 95.3744 55.0866L89.5219 40.0987C88.0373 36.2969 83.7539 34.4176 79.9547 35.9011C76.1555 37.3847 74.279 41.6693 75.7636 45.4711Z" fill="#F7C948"/>
<path d="M145.137 40.103L139.285 55.0908C137.8 58.8926 139.677 63.1773 143.476 64.6608C147.275 66.1444 151.558 64.2651 153.043 60.4633L158.896 45.4754C160.38 41.6736 158.504 37.3889 154.704 35.9054C150.905 34.4218 146.622 36.3012 145.137 40.103Z" fill="#F7C948"/>
<path d="M30.9023 97.4365L45.8901 103.289C49.6919 104.774 53.9766 102.897 55.4601 99.0979C56.9437 95.2987 55.0644 91.0153 51.2626 89.5308L36.2747 83.6782C32.4729 82.1936 28.1883 84.0701 26.7047 87.8693C25.2212 91.6685 27.1005 95.9519 30.9023 97.4365Z" fill="#F7C948"/>
<path d="M135.41 170.81C130.15 174.11 122.93 177.25 117.48 177.58C109.83 178.04 109.69 189.67 117.48 189.58C127.638 189.54 137.64 187.082 146.66 182.41C153.92 178.64 160.27 173.46 167.11 169.04C173.11 165.19 181.56 160.36 188.97 162.1C189.883 162.257 190.747 162.623 191.495 163.169C192.243 163.716 192.854 164.428 193.28 165.25C193.83 166.25 193.19 164.88 193.39 165.44C193.51 165.75 193.57 166.11 193.7 166.44C193.98 167.06 194.06 168.95 193.76 166.19L195.52 161.95C171.86 190.37 138.38 216.66 99.1001 209.95C75.0301 205.85 53.8501 191.75 36.9501 174.62C34.1401 171.77 31.4301 168.82 28.8601 165.76C28.1101 164.86 27.3802 163.94 26.6402 163.03C25.9002 162.12 27.6401 164.38 26.7401 163.15V169.15C27.3101 168.27 27.3201 168.38 27.0401 168.71C28.0391 167.518 29.1183 166.395 30.2701 165.35C33.9073 162.136 38.2464 159.817 42.9401 158.58C55.9401 155.05 72.0402 158.38 84.7802 162.16C89.2902 163.49 93.0901 164.86 97.9001 165.16C103.574 165.42 109.255 164.82 114.75 163.38C118.66 162.394 122.488 161.107 126.2 159.53C129.83 158.02 133.39 155.67 137.29 154.94C140.7 154.3 142.29 155.17 142.46 158.46C142.66 163.41 139.32 168.05 135.41 170.75C129.09 175.1 135.08 185.51 141.46 181.11C151.02 174.52 158.97 160.56 151.88 149.35C142.49 134.5 123.15 148.97 111.56 151.81C104.14 153.63 97.8501 153.89 91.3001 151.64C77.3801 146.84 60.4701 143.9 45.8601 145.83C34.5501 147.33 22.7301 153.25 16.3801 163.09C15.8353 163.996 15.5474 165.033 15.5474 166.09C15.5474 167.147 15.8353 168.184 16.3801 169.09C33.4901 192.31 59.6201 212.03 87.5501 219.57C112.07 226.19 137.55 222 159.44 209.47C174.72 200.75 188.02 188.69 199.57 175.47C203.25 171.28 206.84 167.98 205.04 162.31C203.769 158.287 201.111 154.846 197.54 152.6C185.32 145.07 169.23 152.95 158.78 160.04C152.95 164.04 147.37 168.3 141.13 171.62C133.834 175.444 125.718 177.438 117.48 177.43V189.43C125.99 188.92 134.32 185.5 141.48 181.02C147.99 177.08 141.97 166.69 135.41 170.81Z" fill="#9FB3C8"/>
<path fill-rule="evenodd" clip-rule="evenodd" d="M153.991 163.748C154.193 163.605 154.395 163.463 154.597 163.321C155.962 162.36 157.329 161.398 158.71 160.45C162.724 157.727 167.569 154.888 172.707 152.85C176.869 144.531 179.21 135.144 179.21 125.21C179.21 91.0458 151.515 63.3501 117.35 63.3501C83.1859 63.3501 55.4902 91.0458 55.4902 125.21C55.4902 132.398 56.7162 139.3 58.9704 145.717C63.3229 145.898 67.7357 146.394 72.0915 147.139C68.8745 140.512 67.0703 133.072 67.0703 125.21C67.0703 97.4413 89.5814 74.9302 117.35 74.9302C145.119 74.9302 167.63 97.4413 167.63 125.21C167.63 138.248 162.668 150.127 154.528 159.062C154.537 160.63 154.347 162.2 153.991 163.748Z" fill="#F7C948"/>
</svg>
