<svg width="2143" height="740" viewBox="0 0 2143 740" fill="none" xmlns="http://www.w3.org/2000/svg">
<g clip-path="url(#clip0)">
<path d="M713.319 374.935H625.416C614.278 374.935 605.249 383.958 605.249 395.089C605.249 406.22 614.278 415.243 625.416 415.243H713.319C724.457 415.243 733.486 406.22 733.486 395.089C733.486 383.958 724.457 374.935 713.319 374.935Z" fill="#F7C948"/>
<path d="M613.29 171.352L551.134 233.509C543.258 241.385 543.253 254.15 551.124 262.021C558.995 269.891 571.76 269.887 579.636 262.011L641.792 199.854C649.668 191.979 649.672 179.213 641.802 171.343C633.931 163.472 621.166 163.477 613.29 171.352Z" fill="#F7C948"/>
<path d="M200.141 204.191L262.297 266.348C270.173 274.224 282.938 274.228 290.809 266.357C298.679 258.487 298.675 245.722 290.799 237.846L228.643 175.689C220.767 167.813 208.002 167.809 200.131 175.68C192.26 183.55 192.265 196.315 200.141 204.191Z" fill="#F7C948"/>
<path d="M399.534 102.168V190.071C399.534 201.209 408.557 210.238 419.688 210.238C430.818 210.238 439.842 201.209 439.842 190.071V102.168C439.842 91.03 430.818 82.0007 419.688 82.0007C408.557 82.0007 399.534 91.03 399.534 102.168Z" fill="#F7C948"/>
<path d="M217.07 374.935H129.168C118.029 374.935 109 383.958 109 395.089C109 406.22 118.029 415.243 129.168 415.243H217.07C228.208 415.243 237.238 406.22 237.238 395.089C237.238 383.958 228.208 374.935 217.07 374.935Z" fill="#F7C948"/>
<path d="M643.855 277.585L602.953 293.557C592.577 297.609 587.449 309.298 591.497 319.666C595.546 330.035 607.239 335.156 617.614 331.104L658.517 315.132C668.892 311.081 674.021 299.391 669.972 289.023C665.923 278.655 654.23 273.534 643.855 277.585Z" fill="#F7C948"/>
<path d="M307.575 173.344L323.547 214.247C327.598 224.622 339.288 229.751 349.656 225.702C360.025 221.653 365.145 209.96 361.094 199.585L345.122 158.683C341.071 148.307 329.381 143.179 319.013 147.227C308.645 151.276 303.524 162.969 307.575 173.344Z" fill="#F7C948"/>
<path d="M496.898 158.694L480.927 199.596C476.875 209.972 481.996 221.664 492.364 225.713C502.733 229.762 514.422 224.633 518.473 214.258L534.445 173.355C538.497 162.98 533.376 151.287 523.008 147.238C512.639 143.19 500.95 148.318 496.898 158.694Z" fill="#F7C948"/>
<path d="M185.146 315.16L226.049 331.132C236.424 335.183 248.117 330.062 252.166 319.694C256.214 309.326 251.086 297.636 240.71 293.585L199.808 277.613C189.433 273.561 177.74 278.682 173.691 289.051C169.642 299.419 174.771 311.108 185.146 315.16Z" fill="#F7C948"/>
<path d="M470.353 515.399C455.998 524.405 436.294 532.974 421.421 533.875C400.544 535.13 400.162 566.869 421.421 566.623C449.142 566.513 476.439 559.806 501.054 547.056C520.867 536.768 538.197 522.631 556.863 510.569C573.238 500.062 596.298 486.881 616.52 491.629C619.011 492.057 621.369 493.056 623.41 494.547C625.45 496.039 627.118 497.982 628.282 500.226C629.783 502.955 628.037 499.216 628.582 500.744C628.91 501.59 629.074 502.573 629.428 503.473C630.193 505.165 630.411 510.323 629.592 502.791L634.395 491.22C569.826 568.779 478.458 640.526 371.261 622.214C305.573 611.025 247.772 572.545 201.651 525.797C193.983 518.019 186.587 509.969 179.573 501.618C177.527 499.162 175.534 496.651 173.515 494.167C171.495 491.684 176.244 497.852 173.788 494.495V510.869C175.343 508.468 175.371 508.768 174.606 509.668C177.333 506.415 180.278 503.351 183.421 500.499C193.347 491.726 205.189 485.399 217.998 482.023C253.476 472.39 297.413 481.477 332.181 491.793C344.489 495.423 354.86 499.162 367.986 499.98C383.472 500.689 398.975 499.051 413.971 495.123C424.642 492.431 435.089 488.919 445.218 484.616C455.125 480.495 464.84 474.082 475.483 472.089C484.789 470.343 489.128 472.717 489.592 481.696C490.138 495.204 481.023 507.867 470.353 515.236C453.105 527.107 469.452 555.516 486.863 543.508C512.953 525.524 534.649 487.427 515.3 456.834C489.674 416.308 436.895 455.797 405.265 463.548C385.016 468.514 367.85 469.224 349.975 463.084C311.986 449.984 265.838 441.961 225.967 447.228C195.102 451.321 162.844 467.477 145.515 494.331C144.028 496.803 143.242 499.633 143.242 502.518C143.242 505.403 144.028 508.233 145.515 510.705C192.209 574.074 263.519 627.89 339.741 648.467C406.657 666.534 476.193 655.099 535.931 620.904C577.631 597.107 613.927 564.195 645.448 528.117C655.491 516.682 665.288 507.676 660.376 492.203C656.907 481.224 649.654 471.834 639.908 465.704C606.559 445.154 562.649 466.659 534.13 486.008C518.22 496.924 502.992 508.549 485.963 517.61C466.051 528.046 443.902 533.487 421.421 533.466V566.214C444.645 564.822 467.378 555.489 486.918 543.263C504.684 532.51 488.255 504.156 470.353 515.399Z" fill="#F7C948"/>
<path fill-rule="evenodd" clip-rule="evenodd" d="M521.06 496.126C521.612 495.737 522.164 495.349 522.716 494.96C526.441 492.339 530.171 489.713 533.94 487.127C544.892 479.696 558.115 471.947 572.138 466.385C583.495 443.684 589.885 418.066 589.885 390.955C589.885 297.719 514.302 222.137 421.067 222.137C327.831 222.137 252.248 297.719 252.248 390.955C252.248 410.571 255.594 429.406 261.746 446.92C273.624 447.414 285.666 448.768 297.554 450.8C288.774 432.714 283.851 412.41 283.851 390.955C283.851 315.173 345.284 253.739 421.067 253.739C496.849 253.739 558.283 315.173 558.283 390.955C558.283 426.537 544.74 458.956 522.527 483.337C522.549 487.618 522.033 491.901 521.06 496.126Z" fill="#F7C948"/>
</g>
<path d="M835.138 349.446V194.232H889.506C908.339 194.232 922.624 197.856 932.36 205.105C942.097 212.283 946.965 222.837 946.965 236.767C946.965 244.371 945.011 251.087 941.102 256.915C937.193 262.671 931.756 266.9 924.792 269.6C932.751 271.59 939.005 275.606 943.554 281.646C948.173 287.687 950.483 295.078 950.483 303.82C950.483 318.744 945.721 330.044 936.198 337.72C926.675 345.395 913.101 349.304 895.476 349.446H835.138ZM867.119 281.86V323.755H894.516C902.05 323.755 907.913 321.978 912.106 318.425C916.37 314.8 918.502 309.825 918.502 303.5C918.502 289.286 911.146 282.073 896.435 281.86H867.119ZM867.119 259.26H890.785C906.918 258.976 914.984 252.544 914.984 239.965C914.984 232.929 912.923 227.883 908.801 224.827C904.75 221.7 898.318 220.136 889.506 220.136H867.119V259.26Z" fill="#2680C2"/>
<path d="M1025.64 351.578C1008.72 351.578 994.936 346.39 984.276 336.014C973.687 325.638 968.392 311.815 968.392 294.545V291.561C968.392 279.976 970.631 269.636 975.108 260.539C979.586 251.371 985.911 244.335 994.084 239.432C1002.33 234.457 1011.71 231.969 1022.23 231.969C1038 231.969 1050.41 236.944 1059.43 246.894C1068.53 256.843 1073.08 270.951 1073.08 289.215V301.794H999.627C1000.62 309.328 1003.61 315.369 1008.58 319.917C1013.63 324.465 1019.99 326.74 1027.66 326.74C1039.53 326.74 1048.81 322.44 1055.49 313.841L1070.62 330.791C1066.01 337.329 1059.75 342.446 1051.86 346.141C1043.97 349.766 1035.23 351.578 1025.64 351.578ZM1022.12 256.915C1016.01 256.915 1011.03 258.976 1007.2 263.098C1003.43 267.22 1001.01 273.118 999.947 280.794H1042.8V278.342C1042.66 271.519 1040.81 266.26 1037.26 262.564C1033.7 258.798 1028.66 256.915 1022.12 256.915Z" fill="#2680C2"/>
<path d="M1132.24 305.845L1153.56 234.101H1186.61L1140.24 367.355L1137.68 373.432C1130.78 388.498 1119.41 396.032 1103.57 396.032C1099.09 396.032 1094.54 395.357 1089.92 394.006V370.66L1094.61 370.767C1100.44 370.767 1104.77 369.878 1107.62 368.102C1110.53 366.325 1112.8 363.376 1114.44 359.254L1118.06 349.766L1077.66 234.101H1110.81L1132.24 305.845Z" fill="#2680C2"/>
<path d="M1192.26 290.708C1192.26 279.266 1194.46 269.067 1198.87 260.113C1203.27 251.158 1209.6 244.229 1217.84 239.325C1226.16 234.421 1235.79 231.969 1246.73 231.969C1262.3 231.969 1274.98 236.731 1284.79 246.254C1294.67 255.777 1300.18 268.712 1301.31 285.058L1301.53 292.946C1301.53 310.643 1296.59 324.856 1286.71 335.588C1276.83 346.248 1263.58 351.578 1246.95 351.578C1230.32 351.578 1217.03 346.248 1207.08 335.588C1197.2 324.927 1192.26 310.429 1192.26 292.094V290.708ZM1223.07 292.946C1223.07 303.891 1225.13 312.277 1229.25 318.105C1233.37 323.861 1239.27 326.74 1246.95 326.74C1254.41 326.74 1260.24 323.897 1264.43 318.211C1268.62 312.455 1270.72 303.287 1270.72 290.708C1270.72 279.976 1268.62 271.661 1264.43 265.763C1260.24 259.864 1254.34 256.915 1246.73 256.915C1239.2 256.915 1233.37 259.864 1229.25 265.763C1225.13 271.59 1223.07 280.652 1223.07 292.946Z" fill="#2680C2"/>
<path d="M1348.86 234.101L1349.82 247.427C1358.06 237.122 1369.11 231.969 1382.97 231.969C1395.2 231.969 1404.29 235.558 1410.26 242.736C1416.23 249.914 1419.29 260.646 1419.43 274.93V349.446H1388.62V275.677C1388.62 269.138 1387.2 264.412 1384.36 261.498C1381.52 258.514 1376.79 257.021 1370.18 257.021C1361.51 257.021 1355.01 260.717 1350.67 268.108V349.446H1319.86V234.101H1348.86Z" fill="#2680C2"/>
<path d="M1438.09 290.921C1438.09 272.941 1442.1 258.62 1450.13 247.96C1458.23 237.3 1469.28 231.969 1483.29 231.969C1494.51 231.969 1503.79 236.162 1511.11 244.549V185.704H1542.02V349.446H1514.2L1512.71 337.187C1505.03 346.781 1495.15 351.578 1483.07 351.578C1469.5 351.578 1458.59 346.248 1450.35 335.588C1442.17 324.856 1438.09 309.967 1438.09 290.921ZM1468.89 293.16C1468.89 303.962 1470.78 312.242 1474.54 317.998C1478.31 323.755 1483.78 326.633 1490.96 326.633C1500.48 326.633 1507.2 322.618 1511.11 314.587V269.067C1507.27 261.037 1500.63 257.021 1491.17 257.021C1476.32 257.021 1468.89 269.067 1468.89 293.16Z" fill="#2680C2"/>
<path d="M956.986 554.273C955.778 570.975 949.595 584.122 938.437 593.717C927.35 603.311 912.71 608.108 894.516 608.108C874.617 608.108 858.946 601.428 847.504 588.067C836.133 574.635 830.448 556.228 830.448 532.846V523.358C830.448 508.434 833.077 495.286 838.336 483.915C843.595 472.544 851.093 463.838 860.83 457.798C870.637 451.686 882.008 448.63 894.943 448.63C912.852 448.63 927.279 453.427 938.224 463.021C949.168 472.615 955.493 486.083 957.199 503.424H925.218C924.436 493.403 921.629 486.154 916.796 481.677C912.035 477.128 904.75 474.854 894.943 474.854C884.282 474.854 876.287 478.692 870.957 486.367C865.698 493.972 862.997 505.804 862.855 521.866V533.592C862.855 550.365 865.378 562.624 870.424 570.37C875.541 578.117 883.572 581.99 894.516 581.99C904.395 581.99 911.75 579.752 916.583 575.274C921.487 570.726 924.294 563.726 925.005 554.273H956.986Z" fill="#2680C2"/>
<path d="M971.164 547.238C971.164 535.796 973.367 525.597 977.773 516.642C982.18 507.688 988.505 500.759 996.749 495.855C1005.06 490.951 1014.69 488.499 1025.64 488.499C1041.2 488.499 1053.89 493.261 1063.7 502.784C1073.57 512.307 1079.08 525.242 1080.22 541.588L1080.43 549.476C1080.43 567.172 1075.49 581.386 1065.61 592.118C1055.74 602.778 1042.48 608.108 1025.85 608.108C1009.22 608.108 995.931 602.778 985.982 592.118C976.103 581.457 971.164 566.959 971.164 548.623V547.238ZM1001.97 549.476C1001.97 560.421 1004.03 568.807 1008.16 574.635C1012.28 580.391 1018.18 583.269 1025.85 583.269C1033.31 583.269 1039.14 580.427 1043.33 574.741C1047.53 568.985 1049.62 559.817 1049.62 547.238C1049.62 536.506 1047.53 528.191 1043.33 522.292C1039.14 516.394 1033.24 513.444 1025.64 513.444C1018.1 513.444 1012.28 516.394 1008.16 522.292C1004.03 528.12 1001.97 537.181 1001.97 549.476Z" fill="#2680C2"/>
<path d="M1128.3 490.631L1129.26 503.53C1137.43 493.51 1148.48 488.499 1162.41 488.499C1177.26 488.499 1187.46 494.362 1193.01 506.089C1201.11 494.362 1212.66 488.499 1227.65 488.499C1240.16 488.499 1249.47 492.159 1255.58 499.479C1261.69 506.728 1264.75 517.673 1264.75 532.313V605.976H1233.83V532.42C1233.83 525.881 1232.55 521.12 1230 518.135C1227.44 515.079 1222.93 513.551 1216.46 513.551C1207.22 513.551 1200.82 517.957 1197.27 526.77L1197.38 605.976H1166.57V532.526C1166.57 525.846 1165.25 521.013 1162.62 518.028C1159.99 515.043 1155.52 513.551 1149.19 513.551C1140.45 513.551 1134.12 517.176 1130.22 524.425V605.976H1099.41V490.631H1128.3Z" fill="#2680C2"/>
<path d="M1392.35 549.37C1392.35 567.137 1388.3 581.386 1380.2 592.118C1372.17 602.778 1361.3 608.108 1347.58 608.108C1335.92 608.108 1326.51 604.057 1319.33 595.955V650.323H1288.52V490.631H1317.09L1318.16 501.931C1325.62 492.977 1335.36 488.499 1347.37 488.499C1361.58 488.499 1372.63 493.758 1380.52 504.277C1388.41 514.795 1392.35 529.293 1392.35 547.771V549.37ZM1361.54 547.131C1361.54 536.4 1359.63 528.12 1355.79 522.292C1352.02 516.465 1346.51 513.551 1339.26 513.551C1329.6 513.551 1322.95 517.247 1319.33 524.638V571.863C1323.1 579.467 1329.81 583.269 1339.48 583.269C1354.19 583.269 1361.54 571.223 1361.54 547.131Z" fill="#2680C2"/>
<path d="M1478.38 605.976C1476.96 603.204 1475.93 599.757 1475.29 595.635C1467.83 603.95 1458.13 608.108 1446.19 608.108C1434.89 608.108 1425.51 604.839 1418.04 598.301C1410.65 591.762 1406.96 583.518 1406.96 573.569C1406.96 561.345 1411.47 551.964 1420.5 545.425C1429.59 538.887 1442.71 535.582 1459.83 535.511H1474.01V528.902C1474.01 523.572 1472.63 519.308 1469.85 516.109C1467.15 512.911 1462.85 511.312 1456.95 511.312C1451.77 511.312 1447.68 512.556 1444.7 515.043C1441.78 517.531 1440.32 520.942 1440.32 525.277H1409.52C1409.52 518.597 1411.58 512.414 1415.7 506.728C1419.82 501.043 1425.65 496.601 1433.18 493.403C1440.72 490.134 1449.17 488.499 1458.55 488.499C1472.77 488.499 1484.03 492.088 1492.35 499.266C1500.73 506.373 1504.93 516.394 1504.93 529.328V579.325C1505 590.27 1506.52 598.549 1509.51 604.164V605.976H1478.38ZM1452.9 584.549C1457.45 584.549 1461.65 583.554 1465.48 581.564C1469.32 579.503 1472.16 576.767 1474.01 573.355V553.527H1462.5C1447.08 553.527 1438.87 558.857 1437.87 569.518L1437.77 571.33C1437.77 575.168 1439.12 578.33 1441.82 580.818C1444.52 583.305 1448.21 584.549 1452.9 584.549Z" fill="#2680C2"/>
<path d="M1591.06 574.102C1591.06 570.335 1589.18 567.386 1585.41 565.254C1581.72 563.05 1575.75 561.096 1567.5 559.39C1540.07 553.634 1526.35 541.979 1526.35 524.425C1526.35 514.191 1530.58 505.662 1539.04 498.84C1547.57 491.946 1558.69 488.499 1572.41 488.499C1587.05 488.499 1598.74 491.946 1607.48 498.84C1616.29 505.733 1620.7 514.688 1620.7 525.704H1589.89C1589.89 521.297 1588.47 517.673 1585.62 514.83C1582.78 511.916 1578.34 510.46 1572.3 510.46C1567.11 510.46 1563.1 511.632 1560.25 513.977C1557.41 516.323 1555.99 519.308 1555.99 522.932C1555.99 526.343 1557.59 529.115 1560.79 531.247C1564.06 533.308 1569.53 535.12 1577.2 536.684C1584.88 538.176 1591.35 539.882 1596.6 541.801C1612.88 547.771 1621.02 558.111 1621.02 572.822C1621.02 583.341 1616.5 591.869 1607.48 598.407C1598.45 604.874 1586.8 608.108 1572.51 608.108C1562.85 608.108 1554.25 606.402 1546.71 602.991C1539.25 599.509 1533.39 594.783 1529.12 588.813C1524.86 582.772 1522.73 576.269 1522.73 569.304H1551.94C1552.22 574.777 1554.25 578.97 1558.01 581.884C1561.78 584.797 1566.83 586.254 1573.15 586.254C1579.05 586.254 1583.49 585.153 1586.48 582.95C1589.53 580.675 1591.06 577.726 1591.06 574.102Z" fill="#2680C2"/>
<path d="M1703.42 574.102C1703.42 570.335 1701.54 567.386 1697.77 565.254C1694.08 563.05 1688.11 561.096 1679.86 559.39C1652.43 553.634 1638.71 541.979 1638.71 524.425C1638.71 514.191 1642.94 505.662 1651.4 498.84C1659.93 491.946 1671.05 488.499 1684.77 488.499C1699.41 488.499 1711.1 491.946 1719.84 498.84C1728.65 505.733 1733.06 514.688 1733.06 525.704H1702.25C1702.25 521.297 1700.83 517.673 1697.98 514.83C1695.14 511.916 1690.7 510.46 1684.66 510.46C1679.47 510.46 1675.46 511.632 1672.61 513.977C1669.77 516.323 1668.35 519.308 1668.35 522.932C1668.35 526.343 1669.95 529.115 1673.15 531.247C1676.41 533.308 1681.89 535.12 1689.56 536.684C1697.24 538.176 1703.71 539.882 1708.96 541.801C1725.24 547.771 1733.38 558.111 1733.38 572.822C1733.38 583.341 1728.86 591.869 1719.84 598.407C1710.81 604.874 1699.16 608.108 1684.87 608.108C1675.21 608.108 1666.61 606.402 1659.07 602.991C1651.61 599.509 1645.75 594.783 1641.48 588.813C1637.22 582.772 1635.09 576.269 1635.09 569.304H1664.3C1664.58 574.777 1666.61 578.97 1670.37 581.884C1674.14 584.797 1679.19 586.254 1685.51 586.254C1691.41 586.254 1695.85 585.153 1698.84 582.95C1701.89 580.675 1703.42 577.726 1703.42 574.102Z" fill="#2680C2"/>
<path d="M1785.83 605.976H1754.91V490.631H1785.83V605.976ZM1753.1 460.782C1753.1 456.163 1754.63 452.361 1757.68 449.376C1760.81 446.391 1765.04 444.899 1770.37 444.899C1775.63 444.899 1779.82 446.391 1782.95 449.376C1786.07 452.361 1787.64 456.163 1787.64 460.782C1787.64 465.473 1786.04 469.311 1782.84 472.296C1779.71 475.28 1775.56 476.773 1770.37 476.773C1765.18 476.773 1760.99 475.28 1757.79 472.296C1754.66 469.311 1753.1 465.473 1753.1 460.782Z" fill="#2680C2"/>
<path d="M1806.51 547.238C1806.51 535.796 1808.71 525.597 1813.12 516.642C1817.52 507.688 1823.85 500.759 1832.09 495.855C1840.41 490.951 1850.04 488.499 1860.98 488.499C1876.54 488.499 1889.23 493.261 1899.04 502.784C1908.92 512.307 1914.42 525.242 1915.56 541.588L1915.77 549.476C1915.77 567.172 1910.84 581.386 1900.96 592.118C1891.08 602.778 1877.82 608.108 1861.19 608.108C1844.56 608.108 1831.27 602.778 1821.32 592.118C1811.45 581.457 1806.51 566.959 1806.51 548.623V547.238ZM1837.31 549.476C1837.31 560.421 1839.38 568.807 1843.5 574.635C1847.62 580.391 1853.52 583.269 1861.19 583.269C1868.66 583.269 1874.48 580.427 1878.68 574.741C1882.87 568.985 1884.97 559.817 1884.97 547.238C1884.97 536.506 1882.87 528.191 1878.68 522.292C1874.48 516.394 1868.58 513.444 1860.98 513.444C1853.45 513.444 1847.62 516.394 1843.5 522.292C1839.38 528.12 1837.31 537.181 1837.31 549.476Z" fill="#2680C2"/>
<path d="M1963.11 490.631L1964.07 503.957C1972.31 493.652 1983.36 488.499 1997.22 488.499C2009.44 488.499 2018.54 492.088 2024.51 499.266C2030.48 506.444 2033.54 517.176 2033.68 531.46V605.976H2002.87V532.207C2002.87 525.668 2001.45 520.942 1998.61 518.028C1995.76 515.043 1991.04 513.551 1984.43 513.551C1975.76 513.551 1969.25 517.247 1964.92 524.638V605.976H1934.11V490.631H1963.11Z" fill="#2680C2"/>
<defs>
<clipPath id="clip0">
<rect width="624.487" height="575.282" fill="white" transform="translate(109 82)"/>
</clipPath>
</defs>
</svg>
