<svg width="2183" height="705" viewBox="0 0 2183 705" fill="none" xmlns="http://www.w3.org/2000/svg">
<path d="M680.29 76.4991L498.134 216.655C490.258 224.531 490.253 237.296 498.124 245.167C505.995 253.038 518.76 253.033 526.636 245.157L708.792 105.001C716.668 97.1251 716.672 84.3601 708.802 76.4894C700.931 68.6188 688.166 68.6231 680.29 76.4991Z" fill="#F7C948"/>
<path d="M147.141 187.338L209.297 249.494C217.173 257.37 229.938 257.375 237.809 249.504C245.679 241.633 245.675 228.868 237.799 220.992L175.643 158.836C167.767 150.96 155.002 150.956 147.131 158.826C139.26 166.697 139.265 179.462 147.141 187.338Z" fill="#F7C948"/>
<path d="M346.534 85.3146V173.217C346.534 184.355 355.557 193.385 366.688 193.385C377.818 193.385 386.841 184.355 386.841 173.217V85.3146C386.841 74.1763 377.818 65.147 366.688 65.147C355.557 65.147 346.534 74.1763 346.534 85.3146Z" fill="#F7C948"/>
<path d="M164.07 358.082H76.1676C65.0293 358.082 56 367.105 56 378.235C56 389.366 65.0293 398.389 76.1676 398.389H164.07C175.208 398.389 184.238 389.366 184.238 378.235C184.238 367.105 175.208 358.082 164.07 358.082Z" fill="#F7C948"/>
<path d="M1102.85 68.7322L549.953 276.704C539.577 280.756 534.449 292.445 538.497 302.813C542.546 313.182 554.239 318.302 564.614 314.251L1117.52 106.279C1127.89 102.228 1133.02 90.5382 1128.97 80.1699C1124.92 69.8016 1113.23 64.6808 1102.85 68.7322Z" fill="#F7C948"/>
<path d="M254.575 156.491L270.547 197.393C274.599 207.768 286.288 212.897 296.656 208.848C307.025 204.8 312.145 193.107 308.094 182.731L292.122 141.829C288.071 131.454 276.381 126.325 266.013 130.374C255.645 134.422 250.524 146.115 254.575 156.491Z" fill="#F7C948"/>
<path d="M491.898 77.8405L427.927 182.743C423.875 193.118 428.996 204.811 439.364 208.86C449.733 212.908 461.422 207.78 465.473 197.404L529.445 92.502C533.497 82.1267 528.376 70.4337 518.008 66.3851C507.639 62.3364 495.95 67.4652 491.898 77.8405Z" fill="#F7C948"/>
<path d="M132.146 298.306L173.049 314.278C183.424 318.33 195.117 313.209 199.166 302.84C203.214 292.472 198.086 280.783 187.71 276.731L146.808 260.759C136.433 256.708 124.74 261.829 120.691 272.197C116.642 282.565 121.771 294.255 132.146 298.306Z" fill="#F7C948"/>
<path d="M417.352 498.546C402.998 507.552 383.294 516.121 368.421 517.021C347.544 518.277 347.162 550.016 368.421 549.77C396.142 549.66 423.439 542.952 448.054 530.203C467.867 519.914 485.196 505.778 503.863 493.716C520.237 483.209 543.298 470.027 563.52 474.776C566.011 475.204 568.369 476.203 570.41 477.694C572.45 479.185 574.118 481.129 575.282 483.372C576.783 486.101 575.037 482.363 575.582 483.891C575.91 484.737 576.074 485.719 576.428 486.62C577.192 488.312 577.411 493.47 576.592 485.938L581.395 474.367C516.826 551.926 425.458 623.672 318.261 605.361C252.573 594.171 194.772 555.692 148.651 508.944C140.983 501.166 133.587 493.115 126.573 484.764C124.526 482.308 122.534 479.797 120.515 477.314C118.495 474.831 123.244 480.998 120.788 477.641V494.016C122.343 491.614 122.37 491.914 121.606 492.815C124.333 489.561 127.278 486.498 130.421 483.645C140.347 474.873 152.189 468.546 164.998 465.17C200.476 455.536 244.413 464.624 279.181 474.94C291.489 478.569 301.859 482.308 314.986 483.127C330.472 483.835 345.975 482.198 360.97 478.269C371.642 475.578 382.089 472.065 392.218 467.762C402.124 463.641 411.84 457.228 422.483 455.236C431.789 453.489 436.128 455.864 436.592 464.842C437.138 478.351 428.023 491.014 417.352 498.382C400.105 510.253 416.452 538.663 433.863 526.655C459.953 508.671 481.649 470.573 462.3 439.981C436.674 399.454 383.894 438.944 352.265 446.694C332.015 451.661 314.85 452.371 296.974 446.23C258.986 433.131 212.838 425.107 172.967 430.374C142.101 434.468 109.844 450.624 92.5147 477.478C91.0277 479.95 90.242 482.78 90.242 485.665C90.242 488.55 91.0277 491.38 92.5147 493.852C139.209 557.22 210.518 611.037 286.741 631.614C353.657 649.68 423.193 638.245 482.931 604.051C524.631 580.253 560.927 547.341 592.448 511.263C602.491 499.829 612.288 490.823 607.376 475.349C603.907 464.371 596.654 454.98 586.908 448.85C553.559 428.3 509.649 449.805 481.13 469.154C465.22 480.07 449.992 491.696 432.963 500.756C413.051 511.192 390.902 516.634 368.421 516.612V549.361C391.645 547.969 414.378 538.635 433.918 526.409C451.684 515.657 435.255 487.302 417.352 498.546Z" fill="#F7C948"/>
<path d="M468.06 479.272C468.612 478.884 469.163 478.496 469.715 478.107C473.441 475.485 477.171 472.86 480.94 470.274C491.892 462.843 505.115 455.094 519.138 449.531C530.495 426.83 536.885 401.212 536.885 374.102C536.885 280.866 461.302 205.283 368.067 205.283C274.831 205.283 199.248 280.866 199.248 374.102C199.248 393.718 202.594 412.553 208.746 430.067C220.624 430.561 232.666 431.914 244.554 433.946C235.774 415.86 230.851 395.556 230.851 374.102C230.851 298.319 292.284 236.886 368.067 236.886C443.849 236.886 505.283 298.319 505.283 374.102C505.283 409.684 491.74 442.102 469.527 466.484C469.549 470.764 469.033 475.048 468.06 479.272Z" fill="#F7C948"/>
<path d="M660.319 358.082H572.416C561.278 358.082 552.249 367.105 552.249 378.236C552.249 389.367 561.278 398.39 572.416 398.39H660.319C671.457 398.39 1874.5 396.147 2106 396.147C2131 396.147 2135.21 359.76 2104.5 358.572C1865 358.572 670.205 358.082 660.319 358.082Z" fill="#F7C948"/>
<path d="M930.138 358.593V203.379H984.506C1003.34 203.379 1017.62 207.003 1027.36 214.252C1037.1 221.43 1041.96 231.984 1041.96 245.913C1041.96 253.518 1040.01 260.234 1036.1 266.062C1032.19 271.818 1026.76 276.047 1019.79 278.747C1027.75 280.737 1034.01 284.753 1038.55 290.793C1043.17 296.834 1045.48 304.225 1045.48 312.967C1045.48 327.891 1040.72 339.191 1031.2 346.867C1021.67 354.542 1008.1 358.451 990.476 358.593H930.138ZM962.119 291.007V332.902H989.516C997.05 332.902 1002.91 331.125 1007.11 327.572C1011.37 323.947 1013.5 318.972 1013.5 312.647C1013.5 298.433 1006.15 291.22 991.435 291.007H962.119ZM962.119 268.407H985.785C1001.92 268.122 1009.98 261.691 1009.98 249.112C1009.98 242.076 1007.92 237.03 1003.8 233.974C999.75 230.847 993.318 229.283 984.506 229.283H962.119V268.407Z" fill="#2680C2"/>
<path d="M1120.64 360.725C1103.72 360.725 1089.94 355.537 1079.28 345.161C1068.69 334.785 1063.39 320.962 1063.39 303.692V300.708C1063.39 289.123 1065.63 278.783 1070.11 269.686C1074.59 260.518 1080.91 253.482 1089.08 248.579C1097.33 243.604 1106.71 241.116 1117.23 241.116C1133 241.116 1145.41 246.091 1154.43 256.041C1163.53 265.99 1168.08 280.098 1168.08 298.362V310.941H1094.63C1095.62 318.475 1098.61 324.516 1103.58 329.064C1108.63 333.612 1114.99 335.887 1122.66 335.887C1134.53 335.887 1143.81 331.587 1150.49 322.988L1165.62 339.938C1161.01 346.476 1154.75 351.593 1146.86 355.288C1138.97 358.913 1130.23 360.725 1120.64 360.725ZM1117.12 266.062C1111.01 266.062 1106.03 268.122 1102.2 272.244C1098.43 276.366 1096.01 282.265 1094.95 289.941H1137.8V287.489C1137.66 280.666 1135.81 275.407 1132.26 271.711C1128.7 267.945 1123.66 266.062 1117.12 266.062Z" fill="#2680C2"/>
<path d="M1227.24 314.992L1248.56 243.248H1281.61L1235.24 376.502L1232.68 382.579C1225.78 397.645 1214.41 405.179 1198.57 405.179C1194.09 405.179 1189.54 404.503 1184.92 403.153V379.807L1189.61 379.914C1195.44 379.914 1199.77 379.025 1202.62 377.249C1205.53 375.472 1207.8 372.523 1209.44 368.401L1213.06 358.913L1172.66 243.248H1205.81L1227.24 314.992Z" fill="#2680C2"/>
<path d="M1287.26 299.855C1287.26 288.413 1289.46 278.214 1293.87 269.26C1298.27 260.305 1304.6 253.376 1312.84 248.472C1321.16 243.568 1330.79 241.116 1341.73 241.116C1357.3 241.116 1369.98 245.878 1379.79 255.401C1389.67 264.924 1395.18 277.859 1396.31 294.205L1396.53 302.093C1396.53 319.79 1391.59 334.003 1381.71 344.735C1371.83 355.395 1358.58 360.725 1341.95 360.725C1325.32 360.725 1312.03 355.395 1302.08 344.735C1292.2 334.074 1287.26 319.576 1287.26 301.241V299.855ZM1318.07 302.093C1318.07 313.038 1320.13 321.424 1324.25 327.252C1328.37 333.008 1334.27 335.887 1341.95 335.887C1349.41 335.887 1355.24 333.044 1359.43 327.358C1363.62 321.602 1365.72 312.434 1365.72 299.855C1365.72 289.123 1363.62 280.808 1359.43 274.91C1355.24 269.011 1349.34 266.062 1341.73 266.062C1334.2 266.062 1328.37 269.011 1324.25 274.91C1320.13 280.737 1318.07 289.798 1318.07 302.093Z" fill="#2680C2"/>
<path d="M1443.86 243.248L1444.82 256.574C1453.06 246.269 1464.11 241.116 1477.97 241.116C1490.2 241.116 1499.29 244.705 1505.26 251.883C1511.23 259.061 1514.29 269.793 1514.43 284.077V358.593H1483.62V284.824C1483.62 278.285 1482.2 273.559 1479.36 270.645C1476.52 267.661 1471.79 266.168 1465.18 266.168C1456.51 266.168 1450.01 269.864 1445.67 277.255V358.593H1414.86V243.248H1443.86Z" fill="#2680C2"/>
<path d="M1533.09 300.068C1533.09 282.088 1537.1 267.767 1545.13 257.107C1553.23 246.447 1564.28 241.116 1578.29 241.116C1589.51 241.116 1598.79 245.309 1606.11 253.696V194.851H1637.02V358.593H1609.2L1607.71 346.334C1600.03 355.928 1590.15 360.725 1578.07 360.725C1564.5 360.725 1553.59 355.395 1545.35 344.735C1537.17 334.003 1533.09 319.114 1533.09 300.068ZM1563.89 302.307C1563.89 313.109 1565.78 321.389 1569.54 327.145C1573.31 332.902 1578.78 335.78 1585.96 335.78C1595.48 335.78 1602.2 331.765 1606.11 323.734V278.214C1602.27 270.183 1595.63 266.168 1586.17 266.168C1571.32 266.168 1563.89 278.214 1563.89 302.307Z" fill="#2680C2"/>
<path d="M794.986 534.42C793.778 551.122 787.595 564.269 776.437 573.864C765.35 583.458 750.71 588.255 732.516 588.255C712.617 588.255 696.946 581.575 685.504 568.214C674.133 554.782 668.448 536.375 668.448 512.993V503.505C668.448 488.581 671.077 475.433 676.336 464.062C681.595 452.691 689.093 443.985 698.83 437.945C708.637 431.833 720.008 428.777 732.943 428.777C750.852 428.777 765.279 433.574 776.224 443.168C787.168 452.762 793.493 466.23 795.199 483.571H763.218C762.436 473.55 759.629 466.301 754.796 461.824C750.035 457.275 742.75 455.001 732.943 455.001C722.282 455.001 714.287 458.839 708.957 466.514C703.698 474.119 700.997 485.951 700.855 502.013V513.739C700.855 530.512 703.378 542.771 708.424 550.517C713.541 558.264 721.572 562.137 732.516 562.137C742.395 562.137 749.75 559.899 754.583 555.421C759.487 550.873 762.294 543.873 763.005 534.42H794.986Z" fill="#2680C2"/>
<path d="M809.164 527.385C809.164 515.943 811.367 505.744 815.773 496.789C820.18 487.835 826.505 480.906 834.749 476.002C843.064 471.098 852.694 468.646 863.638 468.646C879.202 468.646 891.888 473.408 901.695 482.931C911.574 492.454 917.082 505.389 918.219 521.735L918.432 529.623C918.432 547.319 913.493 561.533 903.614 572.264C893.736 582.925 880.481 588.255 863.851 588.255C847.221 588.255 833.931 582.925 823.982 572.264C814.103 561.604 809.164 547.106 809.164 528.77V527.385ZM839.972 529.623C839.972 540.568 842.033 548.954 846.155 554.782C850.277 560.538 856.176 563.416 863.851 563.416C871.314 563.416 877.141 560.574 881.334 554.888C885.527 549.132 887.624 539.964 887.624 527.385C887.624 516.653 885.527 508.338 881.334 502.439C877.141 496.541 871.242 493.591 863.638 493.591C856.105 493.591 850.277 496.541 846.155 502.439C842.033 508.267 839.972 517.328 839.972 529.623Z" fill="#2680C2"/>
<path d="M966.297 470.778L967.256 483.677C975.429 473.657 986.481 468.646 1000.41 468.646C1015.26 468.646 1025.46 474.509 1031.01 486.236C1039.11 474.509 1050.66 468.646 1065.65 468.646C1078.16 468.646 1087.47 472.306 1093.58 479.626C1099.69 486.875 1102.75 497.82 1102.75 512.46V586.123H1071.83V512.567C1071.83 506.028 1070.55 501.267 1068 498.282C1065.44 495.226 1060.93 493.698 1054.46 493.698C1045.22 493.698 1038.82 498.104 1035.27 506.917L1035.38 586.123H1004.57V512.673C1004.57 505.993 1003.25 501.16 1000.62 498.175C997.994 495.19 993.516 493.698 987.191 493.698C978.45 493.698 972.125 497.322 968.216 504.572V586.123H937.408V470.778H966.297Z" fill="#2680C2"/>
<path d="M1230.35 529.517C1230.35 547.284 1226.3 561.533 1218.2 572.264C1210.17 582.925 1199.3 588.255 1185.58 588.255C1173.92 588.255 1164.51 584.204 1157.33 576.102V630.47H1126.52V470.778H1155.09L1156.16 482.078C1163.62 473.124 1173.36 468.646 1185.37 468.646C1199.58 468.646 1210.63 473.905 1218.52 484.423C1226.41 494.942 1230.35 509.44 1230.35 527.918V529.517ZM1199.54 527.278C1199.54 516.547 1197.63 508.267 1193.79 502.439C1190.02 496.612 1184.51 493.698 1177.26 493.698C1167.6 493.698 1160.95 497.394 1157.33 504.785V552.01C1161.1 559.614 1167.81 563.416 1177.48 563.416C1192.19 563.416 1199.54 551.37 1199.54 527.278Z" fill="#2680C2"/>
<path d="M1316.38 586.123C1314.96 583.351 1313.93 579.904 1313.29 575.782C1305.83 584.097 1296.13 588.255 1284.19 588.255C1272.89 588.255 1263.51 584.986 1256.04 578.447C1248.65 571.909 1244.96 563.665 1244.96 553.716C1244.96 541.492 1249.47 532.111 1258.5 525.572C1267.59 519.034 1280.71 515.729 1297.83 515.658H1312.01V509.049C1312.01 503.719 1310.63 499.455 1307.85 496.256C1305.15 493.058 1300.85 491.459 1294.95 491.459C1289.77 491.459 1285.68 492.703 1282.7 495.19C1279.78 497.678 1278.32 501.089 1278.32 505.424H1247.52C1247.52 498.744 1249.58 492.561 1253.7 486.875C1257.82 481.19 1263.65 476.748 1271.18 473.55C1278.72 470.281 1287.17 468.646 1296.55 468.646C1310.77 468.646 1322.03 472.235 1330.35 479.413C1338.73 486.52 1342.93 496.541 1342.93 509.475V559.472C1343 570.417 1344.52 578.696 1347.51 584.311V586.123H1316.38ZM1290.9 564.696C1295.45 564.696 1299.65 563.701 1303.48 561.711C1307.32 559.65 1310.16 556.914 1312.01 553.502V533.674H1300.5C1285.08 533.674 1276.87 539.004 1275.87 549.665L1275.77 551.477C1275.77 555.315 1277.12 558.477 1279.82 560.965C1282.52 563.452 1286.21 564.696 1290.9 564.696Z" fill="#2680C2"/>
<path d="M1429.06 554.249C1429.06 550.482 1427.18 547.533 1423.41 545.401C1419.72 543.197 1413.75 541.243 1405.5 539.537C1378.07 533.781 1364.35 522.125 1364.35 504.572C1364.35 494.338 1368.58 485.809 1377.04 478.987C1385.57 472.093 1396.69 468.646 1410.41 468.646C1425.05 468.646 1436.74 472.093 1445.48 478.987C1454.29 485.88 1458.7 494.835 1458.7 505.851H1427.89C1427.89 501.444 1426.47 497.82 1423.62 494.977C1420.78 492.063 1416.34 490.606 1410.3 490.606C1405.11 490.606 1401.1 491.779 1398.25 494.124C1395.41 496.47 1393.99 499.455 1393.99 503.079C1393.99 506.49 1395.59 509.262 1398.79 511.394C1402.06 513.455 1407.53 515.267 1415.2 516.831C1422.88 518.323 1429.35 520.029 1434.6 521.948C1450.88 527.918 1459.02 538.258 1459.02 552.969C1459.02 563.488 1454.5 572.016 1445.48 578.554C1436.45 585.021 1424.8 588.255 1410.51 588.255C1400.85 588.255 1392.25 586.549 1384.71 583.138C1377.25 579.656 1371.39 574.93 1367.12 568.96C1362.86 562.919 1360.73 556.416 1360.73 549.451H1389.94C1390.22 554.924 1392.25 559.117 1396.01 562.031C1399.78 564.944 1404.83 566.401 1411.15 566.401C1417.05 566.401 1421.49 565.3 1424.48 563.097C1427.53 560.822 1429.06 557.873 1429.06 554.249Z" fill="#2680C2"/>
<path d="M1541.42 554.249C1541.42 550.482 1539.54 547.533 1535.77 545.401C1532.08 543.197 1526.11 541.243 1517.86 539.537C1490.43 533.781 1476.71 522.125 1476.71 504.572C1476.71 494.338 1480.94 485.809 1489.4 478.987C1497.93 472.093 1509.05 468.646 1522.77 468.646C1537.41 468.646 1549.1 472.093 1557.84 478.987C1566.65 485.88 1571.06 494.835 1571.06 505.851H1540.25C1540.25 501.444 1538.83 497.82 1535.98 494.977C1533.14 492.063 1528.7 490.606 1522.66 490.606C1517.47 490.606 1513.46 491.779 1510.61 494.124C1507.77 496.47 1506.35 499.455 1506.35 503.079C1506.35 506.49 1507.95 509.262 1511.15 511.394C1514.41 513.455 1519.89 515.267 1527.56 516.831C1535.24 518.323 1541.71 520.029 1546.96 521.948C1563.24 527.918 1571.38 538.258 1571.38 552.969C1571.38 563.488 1566.86 572.016 1557.84 578.554C1548.81 585.021 1537.16 588.255 1522.87 588.255C1513.21 588.255 1504.61 586.549 1497.07 583.138C1489.61 579.656 1483.75 574.93 1479.48 568.96C1475.22 562.919 1473.09 556.416 1473.09 549.451H1502.3C1502.58 554.924 1504.61 559.117 1508.37 562.031C1512.14 564.944 1517.19 566.401 1523.51 566.401C1529.41 566.401 1533.85 565.3 1536.84 563.097C1539.89 560.822 1541.42 557.873 1541.42 554.249Z" fill="#2680C2"/>
<path d="M1623.83 586.123H1592.91V470.778H1623.83V586.123ZM1591.1 440.929C1591.1 436.31 1592.63 432.508 1595.68 429.523C1598.81 426.538 1603.04 425.046 1608.37 425.046C1613.63 425.046 1617.82 426.538 1620.95 429.523C1624.07 432.508 1625.64 436.31 1625.64 440.929C1625.64 445.62 1624.04 449.458 1620.84 452.443C1617.71 455.427 1613.56 456.92 1608.37 456.92C1603.18 456.92 1598.99 455.427 1595.79 452.443C1592.66 449.458 1591.1 445.62 1591.1 440.929Z" fill="#2680C2"/>
<path d="M1644.51 527.385C1644.51 515.943 1646.71 505.744 1651.12 496.789C1655.52 487.835 1661.85 480.906 1670.09 476.002C1678.41 471.098 1688.04 468.646 1698.98 468.646C1714.54 468.646 1727.23 473.408 1737.04 482.931C1746.92 492.454 1752.42 505.389 1753.56 521.735L1753.77 529.623C1753.77 547.319 1748.84 561.533 1738.96 572.264C1729.08 582.925 1715.82 588.255 1699.19 588.255C1682.56 588.255 1669.27 582.925 1659.32 572.264C1649.45 561.604 1644.51 547.106 1644.51 528.77V527.385ZM1675.31 529.623C1675.31 540.568 1677.38 548.954 1681.5 554.782C1685.62 560.538 1691.52 563.416 1699.19 563.416C1706.66 563.416 1712.48 560.574 1716.68 554.888C1720.87 549.132 1722.97 539.964 1722.97 527.385C1722.97 516.653 1720.87 508.338 1716.68 502.439C1712.48 496.541 1706.58 493.591 1698.98 493.591C1691.45 493.591 1685.62 496.541 1681.5 502.439C1677.38 508.267 1675.31 517.328 1675.31 529.623Z" fill="#2680C2"/>
<path d="M1801.11 470.778L1802.07 484.104C1810.31 473.799 1821.36 468.646 1835.22 468.646C1847.44 468.646 1856.54 472.235 1862.51 479.413C1868.48 486.591 1871.54 497.322 1871.68 511.607V586.123H1840.87V512.354C1840.87 505.815 1839.45 501.089 1836.61 498.175C1833.76 495.19 1829.04 493.698 1822.43 493.698C1813.76 493.698 1807.25 497.394 1802.92 504.785V586.123H1772.11V470.778H1801.11Z" fill="#2680C2"/>
<path d="M417.408 498.583C403.066 507.581 383.381 516.142 368.521 517.042C347.663 518.296 347.282 550.005 368.521 549.76C396.217 549.65 423.488 542.949 448.081 530.211C467.875 519.932 485.189 505.809 503.838 493.757C520.197 483.26 543.236 470.091 563.44 474.835C565.929 475.263 568.285 476.261 570.323 477.751C572.362 479.241 574.028 481.183 575.191 483.424C576.691 486.15 574.946 482.415 575.491 483.942C575.818 484.787 575.982 485.769 576.336 486.669C577.1 488.359 577.318 493.512 576.5 485.987L581.299 474.426C516.789 551.914 425.505 623.594 318.408 605.299C252.781 594.12 195.033 555.677 148.955 508.971C141.294 501.201 133.905 493.158 126.898 484.815C124.853 482.361 122.862 479.852 120.845 477.371C118.827 474.89 123.571 481.052 121.117 477.698V494.057C122.671 491.658 122.699 491.958 121.935 492.858C124.659 489.607 127.601 486.546 130.742 483.697C140.659 474.932 152.489 468.611 165.287 465.238C200.732 455.614 244.629 464.693 279.364 474.999C291.661 478.625 302.022 482.361 315.136 483.179C330.607 483.886 346.096 482.25 361.078 478.325C371.739 475.637 382.177 472.127 392.297 467.828C402.194 463.711 411.9 457.304 422.534 455.314C431.831 453.569 436.166 455.941 436.63 464.911C437.175 478.407 428.068 491.058 417.408 498.42C400.176 510.28 416.508 538.663 433.903 526.666C459.969 508.699 481.644 470.637 462.313 440.072C436.711 399.584 383.981 439.036 352.38 446.78C332.15 451.742 315 452.451 297.141 446.316C259.188 433.229 213.083 425.213 173.248 430.475C142.411 434.565 110.184 450.706 92.8707 477.535C91.3851 480.004 90.6001 482.832 90.6001 485.714C90.6001 488.596 91.3851 491.424 92.8707 493.894C139.521 557.203 210.765 610.97 286.917 631.528C353.771 649.578 423.242 638.154 482.926 603.99C524.587 580.215 560.85 547.333 592.341 511.289C602.374 499.865 612.163 490.867 607.255 475.408C603.789 464.44 596.543 455.058 586.806 448.934C553.488 428.403 509.618 449.888 481.126 469.219C465.231 480.125 450.017 491.74 433.003 500.792C413.11 511.218 390.981 516.655 368.521 516.633V549.351C391.724 547.961 414.436 538.636 433.958 526.421C451.707 515.679 435.294 487.35 417.408 498.583Z" fill="#9FB3C8"/>
</svg>
