<svg width="1743" height="1743" viewBox="0 0 1743 1743" fill="none" xmlns="http://www.w3.org/2000/svg">
<path fill-rule="evenodd" clip-rule="evenodd" d="M859.017 1550.94C857.793 1548.92 858.438 1546.26 860.457 1545.04C870.273 1539.11 880.024 1533.08 889.733 1527C887.156 1525.74 884.6 1524.45 882.087 1523.23C876.953 1520.76 871.819 1518.29 866.686 1515.82C865.827 1516.14 864.967 1516.46 864.13 1516.79C861.96 1517.56 859.533 1516.46 858.76 1514.29C858.48 1513.52 858.437 1512.71 858.609 1511.95C848.063 1506.93 837.495 1501.91 826.97 1496.82C822.33 1494.61 817.712 1492.35 812.751 1489.91C776.472 1473.68 740.837 1454.42 706.749 1433.74C670.255 1411.63 634.771 1387.8 600.683 1362.12C588.912 1353.28 577.034 1344.39 565.542 1335.14C515.409 1302.31 468.305 1266.7 423.09 1226.79C403.436 1209.44 384.083 1190.93 366.105 1171.85C353.454 1158.43 341.532 1144.84 329.611 1130.78C328.688 1129.68 328.817 1128.01 329.912 1127.09C331.007 1126.16 332.683 1126.29 333.606 1127.39C342.091 1137.41 350.575 1147.16 359.382 1156.91C363.184 1161.11 367.2 1165.11 371.045 1169.27C379.508 1178.42 388.83 1187.37 397.873 1195.96C417.892 1214.98 438.62 1233.31 460.228 1250.49C475.694 1262.79 491.137 1274.66 507.075 1286.36C507.247 1286.51 507.44 1286.64 507.634 1286.79C491.352 1272.54 475.479 1257.64 459.777 1242.85C458.897 1242.03 458.037 1241.21 457.286 1240.51C443.668 1229.43 430.565 1217.9 417.849 1206.16C406.272 1195.49 394.565 1184.24 383.761 1172.81C370.938 1159.25 358.179 1145.72 346.129 1131.44C340.802 1125.15 335.217 1118.89 330.105 1112.4C330.019 1112.6 329.869 1112.79 329.719 1112.94C328.988 1113.63 327.807 1113.6 327.12 1112.87C297.048 1082.28 270.07 1047.07 246.335 1011.39C236.347 996.385 227.326 981.121 217.982 965.728C211.86 955.638 206.512 944.989 200.798 934.663C199.102 931.636 197.491 928.566 195.88 925.41C182.541 905.68 169.546 885.349 157.109 865.04C156.379 863.902 156.701 862.335 157.796 861.562C156.143 858.75 154.489 855.959 152.813 853.168C140.269 832.386 128.627 810.123 118.768 787.903C113.742 776.611 108.973 765.189 104.785 753.553C102.637 747.607 100.682 741.574 98.5559 735.627C95.9569 728.414 93.723 720.363 91.7684 712.935C88.5035 700.612 85.5393 688.375 83.1121 675.837C81.3723 666.799 80.0835 657.76 78.7732 648.658C76.9904 636.184 75.8091 622.788 75.3795 610.186C75.0143 599.516 74.8425 588.868 75.1862 578.176C75.7661 559.649 77.6133 541.164 80.7494 522.937C80.6634 522.207 80.599 521.499 80.556 520.769C80.2983 520.125 80.1909 519.438 80.3198 518.729C80.3198 518.644 80.3412 518.536 80.3627 518.429C75.4439 452.585 102.701 388.136 147.98 339.638C161.169 325.512 174.916 312.587 190.188 300.715C254.583 250.65 339.148 219.177 421.114 220.294C430.114 220.423 439.501 220.938 448.458 222.011C450.992 222.312 453.527 222.763 456.061 223.042C459.906 223.471 464.524 224.201 468.283 225.06C473.03 226.133 477.97 227.035 482.674 228.216C484.35 228.194 486.025 228.173 487.679 228.065C493.092 227.743 498.827 228.259 504.261 228.28C510.92 228.302 518.545 228.903 525.182 229.676C528.512 230.062 531.992 230.255 535.278 230.77C541.485 231.758 547.843 232.81 554.051 233.69C559.507 234.463 565.542 235.773 570.912 237.082C575.165 238.113 579.375 238.929 583.607 240.109C601.413 245.111 619.392 249.92 636.511 257.091C643.792 260.14 651.59 262.78 658.678 266.258C661.9 267.847 665.315 269.199 668.58 270.724C675.281 273.88 681.79 277.25 688.427 280.513C698.2 285.322 707.952 290.969 717.317 296.529C736.648 307.993 754.477 320.359 772.627 333.562C775.827 335.902 778.942 338.565 782.078 340.991C782.464 341.313 782.873 341.613 783.216 342.021C785.729 343.374 788.006 344.919 790.261 346.444C815.93 364.005 840.223 383.413 863.421 404.087C869.048 393.353 875.342 382.94 882.215 372.635C891.602 358.552 903.437 344.941 915.358 332.94C948.587 299.492 989.269 274.867 1033.52 258.508C1033.97 258.122 1034.18 257.971 1034.42 257.821C1048.17 248.761 1062.56 240.796 1077.14 233.154C1085.69 228.667 1095.12 224.695 1104.06 221.002C1111.9 217.76 1119.8 214.712 1127.81 211.921C1136.77 208.808 1145.92 206.318 1155.05 203.784C1160.74 202.196 1166.37 200.865 1172.15 199.62C1175.28 198.954 1178.35 198.138 1181.53 197.623C1186.67 196.786 1191.78 195.605 1196.91 194.854C1202.02 194.102 1207.14 193.458 1212.25 192.75C1220.99 191.547 1230.21 191.075 1239.03 190.581C1252.91 189.787 1268.07 189.765 1281.93 190.774C1286.91 191.139 1291.89 191.547 1296.9 191.869C1304.87 192.385 1313.61 193.78 1321.51 195.025C1344.63 198.696 1365.85 204.021 1388.1 211.17C1403.09 216 1418.54 222.355 1432.74 229.203C1437.53 231.522 1442.27 233.798 1446.96 236.331C1449.3 237.598 1451.68 238.649 1453.98 240.045C1457.57 242.213 1461.35 244.167 1464.98 246.292C1469.25 248.783 1473.48 251.574 1477.69 254.193C1489.66 261.621 1501.45 270.638 1512.4 279.504C1536.95 299.341 1559.12 322.957 1577.38 349.084C1599.09 374.417 1618.04 403.507 1631.31 433.456C1635.09 442.065 1638.6 450.781 1641.73 459.605C1640.94 454.495 1640.06 449.429 1639.18 444.405C1638.98 443.224 1639.8 442.065 1640.98 441.872C1642.16 441.678 1643.32 442.494 1643.51 443.675C1644.91 451.597 1646.22 459.583 1647.34 467.613C1653.2 470.21 1659.13 472.786 1665.1 475.298C1667.64 476.501 1668.71 479.549 1667.51 482.082C1666.3 484.616 1663.25 485.689 1660.72 484.487C1656.68 482.555 1652.69 480.472 1648.71 478.347C1648.97 480.451 1649.21 482.576 1649.42 484.68C1673.89 579.013 1654.68 679.465 1617.59 767.894C1577.1 864.396 1518.33 950.421 1449.55 1028.91C1442.66 1036.77 1435.66 1044.54 1428.53 1052.18C1425.63 1057.1 1422.68 1061.93 1419.72 1066.63C1409.26 1083.16 1398.54 1099.03 1386.92 1114.76C1373.6 1132.8 1359.4 1150.14 1344.71 1167.06C1347.35 1168.48 1349.98 1169.94 1352.64 1171.35C1355 1172.43 1356.08 1175.26 1355 1177.62C1353.93 1179.99 1351.09 1181.06 1348.73 1179.99C1344.82 1178.7 1340.95 1177.24 1337.13 1175.71C1333.84 1179.43 1330.54 1183.12 1327.23 1186.79C1296.43 1220.9 1262.77 1253.06 1228.21 1283.36C1226.88 1284.54 1225.54 1285.7 1224.21 1286.86C1229.52 1289.93 1234.93 1293 1240.28 1295.77C1241.31 1296.22 1241.76 1297.44 1241.31 1298.47C1240.86 1299.5 1239.63 1299.95 1238.6 1299.5C1232.4 1297.23 1226.08 1295.16 1219.87 1292.89C1219.25 1292.67 1218.63 1292.44 1218.03 1292.22C1209.01 1300.02 1199.92 1307.7 1190.73 1315.3C1181.62 1323.1 1172.45 1330.8 1163.19 1338.4C1163.06 1339 1162.87 1339.58 1162.57 1340.14C1161.41 1342.29 1159.22 1343.49 1156.96 1343.51C1144.78 1353.45 1132.47 1363.24 1120.04 1372.9C1121.3 1373.57 1122.55 1374.23 1123.82 1374.9C1126.7 1376.42 1127.79 1380.01 1126.27 1382.89C1124.74 1385.76 1121.15 1386.86 1118.28 1385.33C1115.38 1383.94 1112.5 1382.48 1109.62 1380.97C1096.5 1391.04 1083.26 1401 1069.95 1410.84C1068.74 1411.78 1067.56 1412.73 1066.36 1413.67C1073.81 1410.73 1081.31 1407.9 1088.68 1405.08C1083.89 1410.06 1076.86 1414.87 1071.32 1419.19C1067.71 1421.98 1064.04 1424.71 1060.3 1427.35C1068.12 1431.64 1075.94 1435.93 1083.76 1440.27C1086.19 1441.47 1087.19 1444.46 1085.99 1446.88C1084.79 1449.31 1081.8 1450.32 1079.38 1449.12C1068.92 1444.8 1058.73 1440.1 1048.68 1435.12C1044.13 1438.04 1039.49 1440.79 1034.85 1443.38C1029.97 1446.11 1024.86 1448.45 1019.83 1450.9C1017.51 1452.04 1015.2 1453.17 1012.88 1454.31C979.754 1478.48 945.838 1501.5 911.256 1523.59C912.416 1525.37 912.695 1527.69 911.814 1529.77C910.397 1533.12 906.487 1534.67 903.136 1533.25C901.74 1532.67 900.323 1532.05 898.926 1531.41C887.65 1538.49 876.309 1545.49 864.924 1552.38C862.905 1553.6 860.242 1552.96 859.017 1550.94ZM924.723 1504.53C919.289 1503.2 913.919 1501.82 908.592 1500.43C900.967 1504.38 893.277 1508.26 885.588 1512.02C885.394 1512.13 885.201 1512.19 885.029 1512.23C890.786 1514.55 896.628 1516.81 902.428 1518.97C909.903 1514.21 917.313 1509.4 924.723 1504.53ZM881.442 1510.43C881.614 1510.37 881.485 1510.43 881.378 1510.47H881.442C881.421 1510.47 881.421 1510.45 881.442 1510.43ZM893.965 1496.45C888.681 1494.97 883.375 1493.43 878.07 1491.82C867.91 1488.81 857.643 1485.12 847.698 1481.45C829.483 1474.73 811.225 1467.6 793.569 1459.51C770.479 1448.92 748.162 1438 725.823 1425.89C719.766 1422.65 713.794 1419.32 708.059 1416.03C705.718 1414.92 703.42 1413.8 701.938 1413.03C701.658 1413.41 701.1 1413.54 700.67 1413.28C693.904 1410.13 686.966 1406.35 680.415 1402.74C677.258 1401.03 674.122 1399.29 671.243 1397.7C672.704 1398.69 674.444 1399.8 676.205 1400.9C700.219 1416.33 724.405 1430.91 749.236 1444.97C775.183 1459.68 801.689 1473.35 828.431 1486.54C841.447 1492.98 854.85 1499.27 870.101 1505.77C878.113 1502.81 886.06 1499.7 893.965 1496.45ZM946.547 1489.95C946.783 1489.24 947.255 1488.6 947.921 1488.15C953.721 1484.13 959.563 1480.1 965.427 1476.08C953.076 1481.53 940.661 1486.94 928.203 1492.05C929.213 1493.73 929.299 1495.9 928.267 1497.66C928.74 1497.79 929.234 1497.89 929.728 1498C930.716 1498.24 931.511 1498.88 932.026 1499.7C936.881 1496.45 941.714 1493.21 946.547 1489.95ZM907.024 1490.96C903.545 1488.85 900.065 1486.73 896.542 1484.56C894.652 1484.15 892.697 1483.7 890.743 1483.23C878.736 1480.42 866.9 1476.98 855.044 1473.61C845.249 1470.84 835.519 1467.79 825.875 1464.55C832.469 1467.24 839.084 1469.83 845.743 1472.32C865.332 1479.75 885.18 1486.13 905.327 1491.69C905.886 1491.45 906.444 1491.22 907.024 1490.96ZM936.236 1474.53C943.26 1469.92 950.005 1465 956.749 1460.06C948.995 1454.98 941.306 1449.82 933.68 1444.52C915.595 1432.01 897.681 1418.97 879.745 1406.22C847.204 1383.1 814.404 1360.19 782.228 1336.56C773.121 1329.86 763.949 1323.25 754.863 1316.53C736.197 1302.74 717.854 1288.47 699.489 1274.3C683.659 1262.08 667.978 1249.22 652.706 1236.34C620.401 1209.1 589.6 1181.38 559.807 1151.39C540.368 1131.81 520.994 1111.22 503.402 1089.99L504.304 1089.22C519.963 1108.11 537.018 1126.14 554.158 1143.68C585.261 1175.5 618.618 1204.85 653.05 1232.99C700.413 1271.7 750.61 1307.98 801.238 1342.31C825.96 1359.08 850.662 1375.84 875.514 1392.46C897.745 1407.32 920.277 1422.02 942.165 1437.37C949.854 1442.78 957.308 1448.49 964.804 1454.18C968.305 1451.65 971.849 1448.97 975.2 1446.22C984.437 1438.64 994.081 1431.47 1003.1 1423.61C1006.09 1420.99 1009.18 1418.46 1012.3 1415.95C975.136 1395.53 939.437 1373.52 904.06 1350.19C858.029 1319.87 813.868 1286.15 771.424 1251.02C730.591 1217.25 690.596 1180.61 653.802 1142.48C643.792 1132.11 634.148 1121.27 624.547 1110.49C604.399 1087.88 585.239 1064.7 566.23 1041.15C565.263 1039.97 565.457 1038.18 566.638 1037.22C567.819 1036.25 569.602 1036.45 570.569 1037.63C583.199 1053.28 596 1068.39 609.296 1083.46C625.234 1101.54 642.203 1118.67 659.129 1135.82C672.339 1149.22 685.57 1162.64 699.274 1175.54C707.995 1183.76 716.866 1191.79 725.694 1199.89C744.209 1216.87 763.842 1232.86 783.302 1248.73C817.669 1276.77 854.228 1303.06 891.108 1327.69C925.411 1350.6 960.959 1372.69 996.981 1392.78C1005.7 1397.68 1014.46 1402.46 1023.23 1407.25C1024.09 1406.59 1024.93 1405.9 1025.78 1405.21C1033.47 1399.03 1041.08 1392.67 1048.64 1386.36C1057.92 1378.61 1067.09 1370.71 1076.18 1362.7C1059.83 1353.43 1043.74 1343.68 1027.91 1333.64C987.186 1307.81 947.277 1280.76 908.571 1251.95C900.537 1245.98 892.461 1240.05 884.471 1234.04C865.805 1219.98 847.526 1205.43 829.182 1190.93C797.715 1166.07 767.235 1140.01 736.799 1113.93C693.99 1077.26 652.062 1039.11 610.8 1000.7L610.735 999.262L612.175 999.198C654.919 1039 698.608 1077.92 743.35 1115.47C774.689 1141.77 806.65 1167.9 839.385 1192.48C879.896 1222.9 920.449 1252.63 962.935 1280.29C976.919 1289.39 990.923 1298.56 1005.16 1307.25C1031.69 1323.46 1058.58 1339.09 1085.76 1354.2C1096.11 1344.97 1106.35 1335.61 1116.54 1326.23C1117.63 1325.22 1118.73 1324.21 1119.82 1323.2C1112.39 1318.74 1105.04 1314.16 1097.74 1309.55C1036.87 1271.21 979.947 1226.92 925.411 1180.09C885.265 1145.64 846.602 1109.91 808.326 1073.41C793.397 1059.18 778.383 1044.88 763.777 1030.35C740.45 1007.14 716.694 984.363 693.453 961.069V959.91H694.613C764.099 1029.6 835.24 1097.8 910.375 1161.44C961.604 1204.82 1016.12 1245.89 1072.93 1281.75C1091.15 1293.25 1109.75 1304.42 1128.69 1314.92C1143.51 1301 1158.12 1286.81 1172.58 1272.54C1157.41 1264.89 1142.44 1256.37 1127.81 1248C1095.96 1229.77 1065.07 1210.56 1034.48 1190.27C1011.87 1175.28 989.892 1159.5 968.048 1143.42C946.783 1127.77 925.776 1111.46 905.478 1094.58C894.716 1085.63 883.826 1076.81 873.258 1067.62C829.182 1029.28 786.997 989.494 747.023 946.921C746.615 946.492 746.636 945.741 747.066 945.333C747.496 944.925 748.247 944.946 748.656 945.376C768.138 966.114 788.221 985.887 808.777 1005.55C815.371 1011.86 822.116 1018.22 828.925 1024.29C835.304 1029.98 841.748 1035.63 848.149 1041.32C860.929 1052.68 873.967 1063.9 887.285 1074.64C898.841 1083.96 910.461 1093.64 922.318 1102.53C930.179 1108.41 938.127 1114.38 945.902 1120.37C953.399 1126.14 961.389 1131.62 969.1 1137.11C986.627 1149.56 1004.28 1161.44 1022.22 1173.29C1040.95 1185.65 1060.6 1197.83 1080.06 1208.99C1094.95 1217.51 1109.86 1226.49 1125.04 1234.41C1136.19 1240.23 1147.23 1246.32 1158.51 1251.93C1166.22 1255.77 1174.04 1259.55 1181.7 1263.52C1197.9 1247.42 1213.86 1231.08 1229.63 1214.57C1219.14 1206.97 1208.62 1199.39 1197.94 1192.11C1181.08 1180.65 1164.24 1169.27 1147.27 1157.98C1133.14 1148.58 1118.62 1139.56 1104.38 1130.31C1071.79 1109.14 1038.95 1088.36 1006.41 1067.08C951.422 1031.14 897.595 992.65 848.192 949.283C842.221 944.023 835.519 938.377 830.042 932.666C822.33 924.637 814.834 916.393 807.016 908.493C806.027 907.505 806.049 905.852 807.037 904.864C808.025 903.877 809.679 903.898 810.667 904.886C818.4 913.452 827.872 920.73 836.421 928.437C845.442 936.552 854.313 945.054 863.678 952.782C868.382 956.668 873.022 960.64 877.726 964.526C888.359 973.328 899.399 981.701 910.397 990.052C926.807 1002.53 943.754 1014.16 960.766 1025.8C993.995 1048.51 1028.25 1069.68 1062.49 1090.87C1092.26 1109.29 1122.01 1127.73 1151.59 1146.45C1167.91 1156.78 1183.98 1167.55 1199.98 1178.37C1213 1187.2 1225.76 1196.15 1238.26 1205.49C1254.82 1187.95 1271.17 1170.24 1287.3 1152.31C1265.65 1141.58 1244.68 1130.05 1223.53 1118.24C1209.37 1110.34 1195.3 1102.16 1181.47 1093.75C1114.95 1053.34 1051.73 1008.73 990.773 960.361C968.95 943.036 947.449 925.517 926.205 907.484C920.857 902.932 915.423 898.467 910.182 893.808C893.277 878.802 877.275 863.194 860.714 847.865C859.555 846.792 859.49 844.924 860.564 843.765C861.638 842.605 863.507 842.541 864.667 843.614C873.13 851.472 881.764 859.308 890.635 866.693C895.49 870.751 900.451 874.722 905.263 878.801C910.762 883.482 916.046 888.484 921.587 893.121C929.062 899.39 936.537 905.68 943.969 912.013C949.79 916.973 955.912 921.696 961.862 926.526C975.995 938.012 990.451 949.326 1004.99 960.275C1066.68 1006.73 1131.4 1049.76 1197.86 1089.13C1216.42 1100.12 1235.19 1110.77 1254.18 1121.01C1267.97 1128.46 1281.89 1135.61 1295.8 1142.84C1311.14 1125.67 1326.3 1108.32 1341.34 1090.85C1336.87 1088.53 1332.43 1086.17 1327.98 1083.87C1303.86 1071.4 1279.76 1058.49 1256.22 1044.99C1238.43 1034.79 1220.8 1024.49 1203.25 1013.93C1193.99 1008.34 1184.88 1002.48 1175.67 996.836C1169.61 993.122 1163.66 989.15 1157.71 985.264C1144.12 976.376 1130.65 967.424 1117.14 958.386C1088.76 939.407 1061.66 918.647 1034.42 898.08C1028.32 893.486 1022.37 888.548 1016.4 883.782C999.794 870.557 983.405 856.882 967.489 842.842C962.613 838.526 957.63 834.34 952.819 829.96C944.893 822.725 937.031 815.405 929.127 808.127C928.117 807.204 928.053 805.593 928.976 804.584C929.9 803.575 931.511 803.511 932.52 804.434C948.695 819.462 964.998 834.061 981.752 848.423C990.107 855.572 998.742 862.464 1007.18 869.484C1013.24 874.529 1019.64 879.295 1025.85 884.169C1046.98 900.764 1068.77 916.608 1090.78 932.022C1118.6 951.494 1147.4 969.893 1176.38 987.562C1185.08 992.864 1193.95 997.952 1202.67 1003.23C1210.4 1007.91 1218.41 1012.23 1226.25 1016.74C1256.54 1034.17 1287.86 1050.12 1319.04 1065.92C1329.2 1071.1 1339.49 1076.06 1349.76 1080.99C1362.33 1066.24 1374.68 1051.34 1386.81 1036.27C1380.95 1033.29 1375.11 1030.28 1369.37 1027.09C1351.31 1017.12 1333.5 1006.84 1315.89 996.085C1282.98 975.968 1251.1 953.899 1219.72 931.464C1165.06 892.391 1112.15 850.635 1058.26 810.445C1043.38 799.346 1028.41 787.86 1013.2 777.19C1007.25 773.025 1002.54 768.431 997.088 763.751C994.167 761.239 991.009 758.899 987.938 756.559L988.625 755.614C995.541 760.552 1002.59 764.245 1009.83 768.581C1012.51 770.192 1014.96 772.081 1017.47 773.927C1021.23 776.675 1025.03 779.423 1028.79 782.171C1081.27 820.536 1133.46 859.566 1186.92 896.556C1205.76 909.587 1224.64 922.512 1243.72 935.2C1257.98 944.689 1272.48 953.77 1286.89 962.98C1310.82 978.266 1335.54 992.521 1360.29 1006.43C1371.82 1012.94 1383.59 1019.38 1395.45 1025.43C1405.09 1013.28 1414.56 1001 1423.86 988.571C1411 982.881 1398.28 976.892 1385.67 970.666C1371.35 963.603 1357.04 955.316 1343.14 947.394C1324.74 936.896 1306.44 926.29 1288.35 915.234C1216.2 871.094 1147.36 823.584 1080.47 771.845C1079.7 771.244 1079.55 770.106 1080.15 769.333C1080.75 768.56 1081.89 768.41 1082.66 769.011C1096.04 779.251 1109.36 789.277 1122.92 799.282C1141.75 813.215 1161.28 826.117 1180.67 839.235C1193.63 847.994 1207.01 856.367 1220.3 864.611C1241.61 877.835 1263.39 890.802 1285.32 902.954C1306.93 914.933 1328.56 926.634 1350.6 937.776C1364.93 945.011 1379.49 951.816 1393.75 959.116C1406.29 965.556 1418.86 971.997 1431.43 978.437C1439.46 967.531 1447.38 956.518 1455.16 945.397C1469.1 922.168 1482.29 898.638 1495.22 874.787C1505.08 856.581 1514.51 838.14 1523.64 819.591C1504.8 816.371 1486.46 809.758 1468.76 802.802C1456.84 798.122 1444.79 793.249 1433.25 787.667C1422.45 782.429 1411.64 777.362 1400.99 771.78C1397.06 769.719 1393.19 767.508 1389.24 765.469C1370.21 755.593 1351.67 744.15 1333.24 733.201C1302.83 715.146 1272.76 696.382 1242.47 678.113C1241.95 677.812 1241.78 677.082 1242.08 676.567C1242.38 676.052 1243.11 675.88 1243.63 676.18C1256.67 684.124 1269.88 691.745 1282.96 699.603C1296.08 707.482 1309.34 715.339 1322.67 722.853C1332.04 728.135 1341.32 733.545 1350.75 738.719C1376.57 752.888 1403.18 766.349 1430.39 777.641C1449.55 785.585 1469.32 793.185 1489.27 798.874C1502.29 802.588 1515.47 805.873 1528.45 809.78C1537.51 791.124 1546.34 772.381 1555.08 753.575C1552.63 753.124 1550.21 752.609 1547.78 751.879C1544.67 750.977 1541.49 750.226 1538.37 749.303C1526.95 745.911 1515.93 741.939 1504.86 737.516C1500.18 735.649 1495.2 733.609 1490.69 731.376C1484.46 728.306 1478.01 725.601 1471.87 722.381C1462.1 717.25 1452.58 711.947 1442.9 706.687C1438.56 704.326 1434.15 701.621 1429.94 699.045C1422.1 694.257 1414.26 689.47 1406.42 684.682C1402.3 682.17 1398.3 679.401 1394.18 676.889C1384.86 671.178 1375.71 665.038 1366.49 659.134C1357.88 653.617 1349.16 648.25 1340.57 642.732C1323.51 631.783 1305.71 621.994 1287.92 612.311C1286.1 611.345 1285.43 609.048 1286.4 607.223C1287.36 605.398 1289.66 604.733 1291.49 605.699C1302.76 611.925 1314.21 617.85 1325.3 624.42C1336.01 630.796 1346.62 637.344 1357.34 643.741C1379.72 657.095 1401.55 671.221 1424.17 684.253C1431.36 688.396 1438.81 692.883 1446.2 696.619C1451.44 699.281 1456.64 702.265 1461.93 704.82C1467.77 707.653 1473.61 710.595 1479.52 713.3C1483.32 715.039 1487.27 716.584 1491.1 718.28C1510.08 726.718 1532.34 734.275 1552.72 738.289C1555.53 738.869 1558.41 739.556 1561.27 740.243C1561.66 739.449 1562.02 738.633 1562.41 737.817C1564.06 734.232 1565.74 730.625 1567.41 727.04C1568.94 722.488 1570.53 717.915 1571.94 713.321C1574.54 704.863 1577.44 696.425 1580.13 687.967C1585.76 670.234 1591.15 652.35 1596.35 634.488C1599.74 622.831 1603.13 610.336 1606.48 599.172C1607.58 594.149 1609.08 589.018 1610.29 583.973C1612.35 575.342 1614.02 565.832 1615.05 557.008C1618.38 528.498 1618.21 500.545 1612.86 472.271C1612.41 469.91 1611.94 467.505 1611.45 465.122C1611.21 464.392 1610.97 463.662 1610.74 462.932C1609.96 460.678 1609.1 458.231 1608.18 455.826C1588.85 444.577 1569.9 432.533 1551.39 420.145C1545.22 416.045 1539.23 411.751 1533.28 407.393L1515.71 394.49L1498.06 404.946L1497.58 404.13C1502.33 401.253 1507.12 398.376 1511.89 395.542C1512.47 395.199 1515.48 393.095 1515.88 393.31C1517.04 393.911 1518.72 395.328 1519.94 396.186C1524 399.042 1528.06 401.94 1532.1 404.838C1542.13 412.009 1553.04 418.385 1563.55 424.869C1573.38 430.944 1583.95 436.633 1594.2 442C1597.63 443.825 1601.11 445.586 1604.57 447.346C1600.75 438.845 1596.97 429.892 1592.31 421.884C1588.78 415.873 1585.61 409.712 1581.76 403.872C1577.57 397.517 1573.45 391.399 1569.09 385.152C1563.01 376.457 1555.75 367.504 1548.64 359.625C1526.56 335.13 1502.74 313.554 1475.44 294.962C1462.68 286.267 1449.75 278.044 1436.28 270.487C1376.98 237.233 1304.12 216.666 1235.85 219.414C1220.09 220.058 1205.2 221.754 1189.65 224.459C1188.13 224.695 1186.64 223.643 1186.41 222.119C1186.17 220.594 1187.22 219.113 1188.75 218.877C1199.12 217.095 1209.37 215.657 1219.85 214.648C1229.6 213.703 1239.38 213.596 1249.15 213.402C1256.26 213.274 1263.35 213.767 1270.44 214.025C1280.27 214.39 1290.61 215.571 1300.34 216.988C1318.08 219.585 1335.71 222.935 1352.96 227.894C1362.84 230.728 1372.51 233.626 1382.19 237.104C1384.58 237.962 1387.13 238.757 1389.45 239.723C1396.22 242.535 1403.14 244.983 1409.88 247.967C1419.72 252.325 1429.17 256.941 1438.81 261.728C1443.15 263.897 1447.71 266.43 1451.9 268.899C1460.77 274.116 1469.77 279.182 1478.25 285.043C1492.49 294.897 1506.11 305.138 1519.17 316.538C1533.28 328.861 1547.33 342.665 1559.4 356.985C1566.98 366.002 1574.14 375.276 1580.9 384.958C1566.77 360.184 1549.5 337.641 1529.72 317.568C1527.14 315.357 1524.63 313.167 1522.24 310.87C1521.53 310.29 1521.02 309.56 1520.67 308.723C1510.21 298.912 1499.13 289.702 1487.49 281.179C1475.07 272.098 1461.78 263.317 1448.2 256.082C1439.18 251.273 1430.39 246.507 1421.01 242.385C1398.48 232.467 1375 223.578 1350.88 218.319C1342.84 216.558 1334.85 214.476 1326.71 213.166C1313.09 210.998 1299.15 208.937 1285.36 208.25C1277.33 207.842 1268.98 207.155 1260.94 207.391C1250.85 207.67 1240.67 207.627 1230.59 208.551C1205.91 210.783 1182.74 214.497 1158.81 221.024C1154.88 222.097 1150.86 223.149 1146.99 224.416C1142.57 225.876 1137.97 227.185 1133.61 228.752C1127.96 230.792 1122.4 232.917 1116.88 235.15C1139.69 231.221 1162.65 228.967 1185.33 228.237C1208.66 227.486 1231.39 228.302 1254.63 230.491C1262.34 231.243 1270.14 232.102 1278 233.154C1279.44 233.239 1280.94 233.325 1282.44 233.368C1283.11 233.368 1283.75 233.626 1284.23 234.034C1291.94 235.172 1299.58 236.481 1307.15 237.984C1312.36 239.036 1317.58 240.281 1322.8 241.29C1329.63 242.621 1336.55 244.51 1343.27 246.271C1346.95 247.237 1350.66 248.16 1354.29 249.276C1371.76 254.687 1388.98 259.71 1405.52 267.761C1415.94 272.828 1426.1 279.483 1435.36 286.46C1438.28 288.65 1441.11 291.076 1444.08 293.201C1442.27 293.459 1433.04 290.346 1430.67 289.616C1420.77 286.546 1410.72 283.905 1400.82 280.771C1390.96 277.658 1381.34 273.901 1371.54 270.616C1368.9 269.736 1366.32 268.727 1363.66 267.954C1357.62 266.215 1351.63 264.262 1345.57 262.544C1332.41 258.787 1318.57 255.502 1305.13 252.969C1286.29 249.427 1267.36 246.614 1248.27 244.983C1243.84 244.618 1239.44 244.167 1235 243.845C1231.52 244.317 1228.01 244.918 1224.51 245.348C1216.84 246.314 1208.7 248.01 1201.14 249.663C1187.83 252.604 1174.49 255.781 1161.51 260.011C1151.83 263.167 1142.38 266.537 1133.03 270.123C1149.61 278.925 1166.35 287.512 1182.95 296.228C1188.73 299.277 1194.61 302.197 1200.35 305.331C1210.53 310.87 1220.63 316.645 1230.83 322.12C1232.78 323.279 1233.41 325.834 1232.25 327.787C1231.09 329.741 1228.53 330.364 1226.58 329.204C1217.06 323.15 1207.57 317.182 1198.01 311.235C1191.54 307.22 1184.75 303.356 1178.16 299.513C1161.86 290.045 1145.45 280.835 1129.02 271.69C1117.31 276.284 1105.77 281.265 1094.24 286.653C1085.69 290.647 1077.12 295.091 1068.7 299.728C1085.15 312.072 1101.18 325.855 1118.49 336.869C1123.39 339.982 1128.44 342.837 1133.55 345.606C1141.75 350.05 1150.3 352.627 1159.13 355.417C1162.5 356.62 1164.24 360.377 1163.04 363.747C1161.84 367.118 1158.08 368.857 1154.7 367.655C1139.54 361.794 1124.91 352.519 1112.41 342.171C1107.02 337.706 1101.89 333.026 1096.56 328.474C1087.02 320.295 1077.81 311.75 1068.25 303.549C1067.39 302.841 1066.53 302.111 1065.67 301.402C1061.74 303.614 1057.83 305.846 1054.01 308.101C1050.08 310.419 1046.23 313.017 1042.28 315.271C1038.97 317.16 1035.79 319.393 1032.59 321.454C1027.31 324.846 1022.18 328.324 1017.13 331.866C1022.84 336.954 1028.86 341.978 1034.7 346.83C1057.66 366.002 1080.24 385.109 1106.93 398.87C1112.37 401.682 1117.8 403.55 1123.43 405.783C1126.72 407.092 1128.33 410.849 1127.02 414.134C1125.71 417.419 1121.95 419.029 1118.66 417.719C1090.65 406.642 1065.82 385.753 1043.23 366.281C1036.44 360.441 1029.39 354.494 1022.82 348.44C1018.67 344.64 1014.27 340.626 1009.93 337.019C1001.25 343.309 992.749 349.836 984.179 356.491C977.971 361.321 972.021 366.366 966.157 371.497C969.079 373.687 971.978 375.877 974.835 378.131C984.222 385.581 994.124 392.687 1003.94 399.578C1032.92 419.952 1061.76 436.14 1094.61 449.45C1097.53 450.674 1098.9 454.109 1097.68 457.029C1096.45 459.948 1093.02 461.322 1090.09 460.099C1084.55 457.909 1078.56 455.096 1073.23 452.391C1063.42 447.411 1053.99 442.537 1044.45 436.998C1028.3 427.617 1012.85 417.355 997.689 406.427C986.67 398.484 975.179 390.347 964.74 381.674C963 380.257 961.282 378.818 959.563 377.38C954.988 381.459 950.456 385.581 945.881 389.66C942.1 393.031 938.384 396.594 934.754 400.223C935.85 401.081 936.945 401.961 938.062 402.82C970.99 428.668 1005.57 451.361 1043.16 469.931C1057.34 476.93 1072.2 483.478 1087.24 488.394C1090.46 489.532 1092.13 493.096 1091 496.316C1089.86 499.536 1086.29 501.211 1083.07 500.073C1073.83 496.767 1064.3 493.482 1055.43 489.296C1046.81 485.217 1038.22 481.224 1029.91 476.522C1011.33 466.024 993.887 454.86 976.511 442.473C960.251 430.901 944.291 418.793 928.74 406.255C927.58 407.436 926.442 408.595 925.303 409.733C919.525 415.573 913.833 421.541 908.249 427.595C911.449 430.171 914.628 432.662 917.807 435.109C958.768 466.904 1007.16 491.335 1054.91 511.087C1057.49 512.203 1058.65 515.252 1057.53 517.828C1056.41 520.404 1053.36 521.563 1050.79 520.447C1043.51 517.119 1036.18 513.899 1028.9 510.571C1023.14 507.931 1017.28 504.99 1011.61 502.156C995.885 494.298 980.613 486.355 965.492 477.359C950.821 468.622 936.086 459.433 922.425 449.192C915.723 444.19 909.108 439.081 902.664 433.757C901.504 435.066 900.344 436.354 899.184 437.664C916.991 455.247 934.131 473.431 951.186 491.722C954.967 495.822 958.725 499.944 962.484 504.109C966.694 506.6 970.969 509.09 975.114 511.709C979.045 514.221 983.04 516.819 987.057 519.202C989.119 520.511 989.721 523.259 988.41 525.32C987.164 527.295 984.608 527.939 982.589 526.866C987.186 532.083 991.804 537.278 996.487 542.431C1001.53 548.013 1006.43 553.745 1011.46 559.348C1015.62 564.007 1019.9 568.623 1023.55 573.711C1028.25 580.28 1031.37 587.472 1034.89 594.664C1028.25 590.499 1021.83 586.656 1015.88 581.482C1010.68 576.952 1006.13 571.263 1001.58 566.068C993.973 557.394 986.327 548.743 978.68 540.091C967.94 527.982 957.2 515.917 946.332 503.938C941.263 500.717 936.236 497.368 931.532 493.933C924.938 489.167 918.344 484.487 912.244 479.163C912.308 479.249 912.351 479.313 912.416 479.377C916.003 484.337 919.353 489.661 922.597 495.028C928.955 501.984 935.356 508.983 941.499 516.132C949.382 525.299 957.157 534.53 964.976 543.74C972.193 552.221 979.174 561.237 985.962 570.082C996.701 584.101 1007.27 598.228 1017.75 612.44C1026.41 624.183 1034.72 636.206 1043.38 647.928C1045.8 651.32 1045.01 656.064 1041.61 658.49C1038.22 660.916 1033.47 660.122 1031.05 656.73C1022.37 644.879 1014.04 632.814 1005.21 621.049C994.403 606.665 983.191 592.603 971.828 578.67C964.353 569.503 956.814 560.379 949.21 551.319C951.036 557.094 952.432 563.148 954.064 568.923C954.408 569.846 953.957 570.898 953.033 571.242C952.11 571.585 951.057 571.134 950.714 570.211C943.346 556.278 935.098 543.032 927.193 529.421C924.895 525.513 922.64 521.563 920.32 517.656C911.599 507.866 902.514 498.205 893.535 488.759C886.941 481.889 880.325 475.041 873.624 468.3C873.001 469.094 872.378 469.867 871.776 470.661C870.939 471.713 869.392 471.885 868.34 471.048C867.287 470.21 867.115 468.665 867.953 467.613C868.705 466.711 869.457 465.766 870.208 464.843C862.261 456.878 854.185 449.042 845.958 441.356C813.094 410.742 778.899 382.232 742.749 356.77C734.522 352.219 726.252 347.775 718.026 343.309C706.899 337.319 695.623 331.244 684.281 325.64C679.642 323.73 674.852 322.012 670.126 320.509C654.468 315.55 638.659 310.441 622.743 306.319C605.709 301.918 588.762 298.332 571.406 295.413C554.416 292.557 537.383 290.818 520.242 289.444C507.784 288.457 494.553 287.727 482.052 287.834C467.274 287.963 452.925 288.092 438.147 288.865C429.706 289.316 421.157 290.217 412.694 290.861C409.15 291.14 405.563 291.784 402.019 292.042C394.265 292.6 386.102 294.039 378.391 295.176C361.294 297.731 343.229 300.887 326.518 305.31C314.511 308.487 302.654 311.514 290.819 315.314C247.559 329.226 203.505 349.879 168.472 379.205C162.071 384.572 155.498 390.39 149.291 396.551C144.694 407.994 140.57 419.544 136.961 431.459C134.577 439.338 132.558 447.282 130.453 455.247C126.05 472.014 123.623 489.36 121.002 506.471C119.391 517.012 118.467 528.326 117.802 538.974C115.095 581.375 116.491 623.389 122.055 665.511C124.997 677.275 128.155 689.062 131.613 700.612C151.331 766.628 176.119 830.497 206.104 891.919C209.476 897.887 212.806 903.748 216.006 909.63C224.19 924.744 232.996 939.73 241.545 954.629C242.791 956.819 244.037 959.008 245.304 961.22C247.753 965.02 250.223 968.777 252.693 972.534C265.86 992.585 280.165 1012.49 295.115 1031.25C301.495 1039.28 307.853 1047.46 314.619 1055.14C328.237 1070.6 341.79 1085.39 356.332 1099.99C364.172 1107.87 372.484 1115.36 380.711 1122.84C399.592 1140.01 420.384 1155.62 441.434 1170C445.837 1173.01 450.477 1175.78 454.923 1178.72C463.966 1184.71 473.202 1190.61 482.438 1196.3C485.273 1198.04 488.195 1199.67 490.987 1201.45C492.598 1202.27 493.242 1204.29 492.426 1205.9C491.61 1207.51 489.591 1208.15 487.98 1207.34C463.493 1197.68 441.026 1184.26 419.868 1168.67C411.276 1162.34 402.448 1156 394.243 1149.16C392.224 1147.5 390.205 1145.83 388.164 1144.13C395.983 1152.55 403.888 1160.88 411.899 1169.06C457.35 1215.58 504.841 1259.59 555.318 1300.34C565.951 1306.2 576.733 1311.65 587.559 1316.59C588.955 1317.23 589.557 1318.95 588.912 1320.35C588.268 1321.74 586.549 1322.34 585.153 1321.7C582.726 1320.56 580.32 1319.38 577.958 1318.22C581.351 1320.84 584.767 1323.46 588.203 1326.06C620.509 1350.6 654.038 1373.72 688.513 1394.78C705.847 1403.11 723.138 1410.9 740.665 1418.59C751.835 1423.48 763.412 1428.03 774.796 1432.37C798.961 1441.58 823.426 1450.08 848.213 1457.47C851.392 1458.43 854.571 1459.36 857.75 1460.26C822.137 1437.89 786.868 1415.02 752.049 1391.49C702.646 1358.13 654.124 1322.58 608.48 1284.22C579.762 1260.06 551.903 1234.9 526.02 1207.7C518.889 1200.21 513.326 1191.54 506.517 1183.68C506.087 1183.18 506.13 1182.37 506.624 1181.94C507.118 1181.51 507.934 1181.55 508.364 1182.05C511.607 1185.89 515.774 1189.8 519.576 1193.1C522.369 1195.53 525.354 1197.74 527.867 1200.47C537.855 1211.24 548.638 1221.85 559.356 1231.94C574.671 1246.37 590.137 1260.58 606.397 1273.95C613.764 1280.01 621.003 1286.25 628.456 1292.2C646.671 1306.74 665.251 1321.16 684.195 1334.71C699.081 1345.34 713.923 1355.9 728.98 1366.29C738.539 1372.88 748.29 1379.19 757.892 1385.74C772.648 1395.81 788.028 1405.28 803.085 1414.89C832.125 1433.47 861.595 1451.48 891.172 1469.25C896.392 1470.5 901.654 1471.62 906.788 1473.18C913.855 1475.37 920.578 1477.84 927.537 1480.2C930.458 1478.31 933.358 1476.42 936.236 1474.53ZM936.022 1477.93C944.313 1473.2 952.711 1468.31 961.153 1463.37C961.26 1463.31 961.389 1463.24 961.496 1463.18C961.282 1463.03 961.045 1462.88 960.831 1462.73C951.938 1468.39 942.981 1473.91 933.938 1478.91C934.454 1478.68 935.162 1478.36 936.022 1477.93ZM1003.17 1437.22C1010.49 1432.54 1017.79 1427.75 1025.05 1422.9C1023.81 1422.24 1022.56 1421.57 1021.32 1420.88C1006.99 1431.96 992.212 1442.5 977.091 1452.25C974.406 1453.99 971.742 1455.71 969.079 1457.42C969.379 1457.66 969.68 1457.88 970.002 1458.11C981.15 1451.35 992.191 1444.24 1003.17 1437.22ZM1086.98 1379.11C1089.64 1377.13 1092.33 1375.14 1095.01 1373.14C1094.73 1372.99 1094.45 1372.84 1094.2 1372.69C1091.1 1371.03 1088.01 1369.34 1084.94 1367.62C1079.48 1372.34 1074.01 1377.09 1068.64 1381.85C1060.99 1388.64 1052.89 1395.06 1045.07 1401.67C1040.86 1405.23 1036.63 1408.73 1032.34 1412.19C1033.9 1413.05 1035.49 1413.91 1037.06 1414.77C1053.94 1403.22 1070.59 1391.28 1086.98 1379.11ZM702.023 1412.92C702.045 1412.86 702.088 1412.77 702.109 1412.66C699.575 1411.7 700.069 1412.06 701.938 1413.03C701.981 1413.01 702.002 1412.96 702.023 1412.92ZM1117.42 1356.09C1121.95 1352.53 1126.48 1348.88 1131.03 1345.29C1134.51 1342.18 1137.99 1339.02 1141.45 1335.87C1137.2 1333.46 1132.97 1331.02 1128.78 1328.55C1119.01 1337.54 1109.17 1346.43 1099.24 1355.17C1097.74 1356.5 1096.22 1357.83 1094.71 1359.14C1098.36 1361.16 1102.02 1363.16 1105.69 1365.15C1109.62 1362.17 1113.53 1359.16 1117.42 1356.09ZM1172.53 1306.48C1180.33 1298.81 1188.11 1291.15 1195.82 1283.4C1191.67 1281.62 1187.55 1279.79 1183.51 1277.86C1183.23 1277.75 1182.97 1277.62 1182.71 1277.5C1180.29 1279.86 1177.88 1282.2 1175.45 1284.52C1163.08 1296.43 1150.6 1308.28 1137.99 1320.03C1142.35 1322.37 1146.74 1324.68 1151.12 1326.96C1158.36 1320.24 1165.49 1313.41 1172.53 1306.48ZM1205.65 1273.44C1220.13 1258.62 1234.33 1243.42 1248.21 1227.99C1247.67 1227.58 1247.11 1227.19 1246.57 1226.79C1244.04 1224.98 1241.5 1223.16 1238.97 1221.33C1223.37 1237.35 1207.61 1253.17 1191.63 1268.82C1195.67 1271.01 1199.73 1273.18 1203.79 1275.35C1204.41 1274.73 1205.03 1274.08 1205.65 1273.44ZM1307.42 1187.22C1312.79 1181.44 1318.12 1175.61 1323.36 1169.72C1322.16 1169.19 1320.98 1168.63 1319.78 1168.07C1315.33 1173.5 1310.82 1178.91 1306.22 1184.09C1297.89 1193.4 1289.73 1202.91 1281.39 1212.25C1276.64 1217.58 1271.88 1222.86 1267.02 1228.16C1267.11 1228.23 1267.19 1228.29 1267.26 1228.35C1281.03 1214.89 1294.45 1201.17 1307.42 1187.22ZM1271.79 1201.17C1276.84 1195.31 1282.04 1189.56 1286.93 1183.59C1287.38 1183.06 1287.84 1182.5 1288.29 1181.94C1287.84 1182.3 1287.38 1182.67 1286.93 1183.01C1286.14 1183.7 1284.91 1183.59 1284.23 1182.8C1283.54 1182 1283.65 1180.78 1284.44 1180.09C1290.93 1173.95 1297.65 1167.86 1304.25 1161.8C1304.52 1161.54 1304.83 1161.26 1305.13 1160.99C1303.09 1160 1301.07 1159.01 1299.05 1158.04C1282.06 1176.38 1264.89 1194.56 1247.54 1212.51C1250.37 1214.72 1253.23 1216.95 1256.05 1219.21C1261.33 1213.22 1266.59 1207.21 1271.79 1201.17ZM1373.19 1108C1366.97 1114.01 1359.83 1120.67 1352.55 1127.3C1344.65 1137.39 1336.57 1147.46 1328.41 1157.46C1328.13 1157.81 1327.85 1158.15 1327.57 1158.49C1328.9 1159.12 1330.24 1159.76 1331.59 1160.41C1346.19 1143.55 1360.24 1126.23 1373.19 1108ZM1327.57 1133.25C1336.83 1121.65 1345.85 1109.65 1354.68 1097.59C1354.36 1097.42 1354.03 1097.27 1353.73 1097.12C1338.55 1114.61 1323.1 1131.9 1307.49 1148.88C1309.36 1149.82 1311.25 1150.74 1313.14 1151.65C1317.95 1145.53 1322.7 1139.34 1327.57 1133.25ZM311.826 1089.22C302.504 1076.79 293.203 1064.44 284.311 1051.69C277.352 1041.75 270.607 1031.68 263.905 1021.37C256.989 1012.16 250.008 1002.76 243.113 993.272C238.86 987.433 234.779 981.465 230.526 975.625C227.884 972.018 225.285 968.369 222.708 964.719C225.65 969.979 228.679 975.217 231.836 980.37C239.075 992.263 246.249 1004.2 254.111 1015.71C260.189 1024.6 266.376 1033.31 272.605 1042.09C281.132 1054.09 290.69 1065.49 299.948 1076.94C307.015 1085.69 314.833 1094.73 322.91 1103.3C319.086 1098.53 315.37 1093.94 311.826 1089.22ZM1417.53 1041.81C1421.44 1035.05 1425.26 1028.27 1428.93 1021.29C1425.02 1027.15 1421.14 1032.95 1417.29 1038.76C1413.25 1044.84 1408.94 1050.83 1404.73 1056.8C1409.04 1051.84 1413.3 1046.84 1417.53 1041.81ZM1506.86 926.032C1513.67 916.071 1520.35 906.109 1526.84 896.17C1518.4 908.729 1509.61 921.181 1500.44 933.418C1496.25 939 1492.17 944.624 1487.81 950.077C1486.86 951.258 1485.94 952.417 1485.02 953.577C1483.17 957.119 1481.3 960.618 1479.41 964.139C1488.82 951.602 1498.06 938.935 1506.86 926.032ZM1471.66 955.273C1472.58 954.113 1473.5 952.933 1474.43 951.752C1478.81 943.293 1483.06 934.813 1487.25 926.269C1487.55 925.625 1487.87 924.98 1488.13 924.336C1482.76 934.427 1476.98 944.302 1471.14 954.135C1470.22 955.681 1469.29 957.226 1468.37 958.772C1468.31 959.073 1468.24 959.352 1468.18 959.631C1469.34 958.192 1470.5 956.733 1471.66 955.273ZM1374.91 895.053C1356.29 886.831 1337.43 878.952 1319.02 870.278C1307.38 864.804 1295.74 859.415 1284.14 853.833C1265.3 844.774 1246.53 834.877 1228.47 824.379C1206.11 811.411 1184.13 797.65 1163.75 781.72C1153.97 774.077 1144.85 766.521 1135.52 758.341C1132.04 755.292 1128.28 751.943 1125.08 748.637C1123.26 746.92 1123.15 744.021 1124.87 742.197C1126.59 740.372 1129.49 740.264 1131.31 741.982C1136.45 747.285 1142.38 752.051 1147.83 757.031C1152.86 761.604 1158.4 765.769 1163.7 770.02C1170.79 775.688 1178.25 781.098 1185.72 786.25C1235.36 820.536 1291.04 846.577 1346.6 869.742C1362.63 876.418 1378.67 883.117 1394.74 889.729C1403.39 893.293 1412.31 896.706 1420.81 900.635C1431.79 905.702 1442.47 910.919 1453.23 916.458C1455.76 917.574 1456.92 920.579 1455.8 923.113C1454.69 925.646 1451.68 926.805 1449.15 925.689C1423.82 916.565 1399.55 905.916 1374.91 895.053ZM1575.36 796.77C1589.15 770.342 1601.8 742.519 1611.98 714.502C1615.74 704.176 1619.5 693.742 1622.77 683.244C1631.98 653.574 1638.7 623.239 1642.89 592.474C1644.12 583.479 1645.21 573.904 1645.73 564.78C1645.64 545.329 1643.99 525.943 1640.55 506.836C1638.21 493.933 1635.18 481.224 1631.19 468.729C1630.3 468.235 1629.42 467.763 1628.54 467.269C1628.01 466.99 1627.49 466.711 1626.98 466.432C1629.4 479.592 1631.01 492.731 1631.66 506.449C1631.66 506.621 1631.66 506.771 1631.64 506.943C1634.58 521.499 1636.17 536.785 1635.59 551.362C1635.14 562.354 1633.98 572.401 1632.15 582.749C1634 578.348 1635.87 573.968 1637.78 569.567C1633.42 584.617 1629.3 599.859 1624.61 614.802C1621 626.352 1617.52 638.031 1613.7 649.516C1603.13 681.311 1591.77 712.978 1578.71 743.85C1577.92 745.696 1577.14 747.521 1576.37 749.324C1576.35 749.603 1576.33 749.861 1576.28 750.097C1576.05 751.45 1575.42 752.609 1574.57 753.553C1568.68 767.143 1562.58 780.604 1556.33 793.979C1556.11 794.494 1555.92 795.031 1555.73 795.546C1541.51 832.794 1526.04 869.377 1509.12 905.165C1533.47 870.515 1555.73 834.383 1575.36 796.77ZM1348.62 820.085C1317.13 802.438 1287.49 783.588 1258.79 761.647C1251.64 756.173 1244.49 750.655 1237.59 744.859C1234.44 742.197 1231.09 739.663 1228.06 736.851C1219.14 728.542 1210.12 720.341 1201.27 711.947C1199.9 710.681 1199.79 708.512 1201.06 707.138C1202.32 705.764 1204.49 705.657 1205.87 706.924C1214.63 715.275 1224.02 722.939 1233.41 730.582C1236.84 733.373 1240.17 736.314 1243.65 739.041C1250.53 744.451 1257.25 749.968 1264.23 755.292C1278.56 766.22 1293.53 776.46 1308.76 786.1C1349.89 812.12 1393.17 832.365 1438.6 849.69C1449.3 853.769 1460.36 857.827 1471.25 861.305C1474.51 862.485 1476.21 866.114 1475.03 869.377C1473.85 872.64 1470.22 874.336 1466.95 873.155C1426.51 857.934 1386.38 841.253 1348.62 820.085ZM138.744 786.787C138.186 785.499 137.649 784.232 137.133 782.923C121.625 745.589 108.673 707.997 98.7707 668.774C97.0523 662.054 95.4843 655.313 94.0452 648.55C99.6299 689.727 111.035 730.389 127.102 769.268C133.181 784.039 140.033 799.024 147.551 813.408C144.458 804.563 141.536 795.675 138.744 786.787ZM1604.08 753.36C1604.42 752.523 1604.79 751.686 1605.02 750.784C1607.51 745.889 1605.67 750.483 1603.35 754.927C1603.63 754.412 1603.84 753.897 1604.08 753.36ZM1622.89 702.2C1623.32 700.869 1623.75 699.538 1624.01 698.121C1625.47 695.18 1623.75 700.655 1621.48 706.043C1622.08 704.648 1622.49 703.424 1622.89 702.2ZM1536.25 653.059C1533.54 652.071 1530.81 651.105 1528.19 649.903C1495.41 634.853 1465.96 615.016 1435.89 595.351C1423.99 587.579 1412.16 579.765 1400.22 572.057C1391.6 566.497 1382.56 560.937 1373.65 555.849C1364.8 550.804 1355.77 546.317 1346.82 541.508L1347.46 540.22C1351.93 542.624 1356.57 544.771 1361.04 547.154C1372.81 553.423 1384.39 559.971 1395.96 566.605C1423.22 582.212 1449.88 599.001 1477.71 613.599C1494.83 622.573 1513.31 631.461 1531.5 637.966C1537.43 640.092 1543.27 642.711 1549.2 644.901C1554.07 646.704 1559.36 648.121 1564.36 649.645C1567.67 650.719 1569.47 654.282 1568.4 657.589C1567.33 660.895 1563.76 662.698 1560.45 661.625C1552.31 658.812 1544.32 656 1536.25 653.059ZM1621.76 607.159C1622.96 604.368 1624.16 601.577 1625.34 598.765C1626.29 589.683 1626.72 580.709 1626.93 571.65C1625.99 576.845 1624.89 582.019 1623.73 587.257C1621.63 596.639 1618.71 605.849 1616.04 615.102C1614.6 620.104 1613.12 625.107 1611.66 630.066C1615.03 622.466 1618.43 614.823 1621.76 607.159ZM1573.64 610.701C1549.82 599.666 1527.46 585.261 1505.42 571.113C1491.12 561.946 1477.22 552.22 1463.45 542.323L1423.61 513.577L1427.3 521.263C1431.96 530.773 1437.31 540.649 1443.91 548.099C1436.88 541.722 1430.85 528.476 1426.21 520.318C1425.09 518.364 1423.99 516.196 1423.01 514.199C1422.79 513.749 1421.67 512.182 1422.21 511.859C1422.79 511.495 1423.99 512.761 1424.57 513.126C1426.68 514.479 1428.78 515.96 1430.85 517.398C1439.91 523.71 1449.34 529.786 1458.68 535.69C1483.69 551.491 1509.35 566.712 1535.94 579.657C1549.48 586.248 1563.7 592.689 1577.85 597.798C1581.95 599.28 1585.99 601.169 1590.1 602.693C1593.57 604.089 1595.27 608.06 1593.88 611.538C1592.48 615.016 1588.51 616.712 1585.03 615.317C1581.27 613.771 1577.31 612.397 1573.64 610.701ZM105.816 533.607C107.019 516.84 109.51 500.631 112.024 484.036C113.506 474.203 115.718 463.319 118.21 453.701C119.391 449.15 120.572 444.641 121.818 440.025C119.455 445.328 117.222 450.652 115.095 456.105C106.31 478.647 99.995 501.619 95.8924 524.784L96.365 527.553C99.2862 544.878 101.627 562.268 104.312 579.614C104.205 564.307 104.699 548.979 105.816 533.607ZM1584.75 551.748C1576.82 547.54 1569.22 543.697 1561.59 538.867C1546.77 529.485 1532.7 519.008 1517.95 509.562C1513.09 506.449 1508.15 503.401 1503.15 500.545C1499.32 498.377 1495.37 496.552 1491.5 494.534C1489.33 493.396 1486.74 492.151 1484.46 491.271C1482.14 490.391 1479.86 489.339 1477.56 488.437C1474.62 487.278 1471.44 486.441 1468.48 485.303C1467.49 484.959 1466.93 483.843 1467.27 482.855C1467.62 481.868 1468.74 481.31 1469.72 481.653C1472.75 482.769 1475.87 483.693 1478.9 484.787C1481.6 485.775 1484.37 486.999 1487.08 488.051C1489.03 488.802 1491.12 489.833 1493.03 490.734C1499.84 493.955 1506.48 497.111 1513.03 500.846C1541.79 517.313 1568.55 536.183 1600.36 546.36C1603.26 547.497 1604.7 550.825 1603.56 553.723C1602.42 556.622 1599.09 558.06 1596.2 556.922C1592.57 555.57 1588.16 553.573 1584.75 551.748ZM86.6992 488.609C88.3102 476.801 90.5011 465.036 93.2934 453.636C93.9163 450.846 96.7086 449.085 99.501 449.708C99.9306 449.815 100.36 449.965 100.747 450.18C105.107 438.952 110.004 427.917 115.503 417.118C126.2 396.079 138.465 377.036 152.856 358.767C155.262 354.108 157.732 349.492 160.288 344.962C163.338 339.531 166.474 333.949 169.997 328.775C152.663 344.833 138.143 360.913 124.632 380.579C121.732 384.808 118.51 389.553 116.062 394.04C114.515 396.873 112.818 399.6 111.315 402.455C105.472 413.555 100.231 425.062 96.3005 436.977C90.3507 454.925 86.6992 473.667 85.6467 492.516C85.9904 491.228 86.334 489.919 86.6992 488.609ZM907.261 461.623C902.105 456.449 897.036 451.232 891.924 446.037C891.237 446.852 890.549 447.668 889.862 448.463C890.743 449.6 891.645 450.738 892.569 451.833C892.59 451.812 892.612 451.79 892.654 451.769C894.308 450.502 896.693 450.824 897.96 452.477C905.284 462.181 913.296 470.06 921.995 477.123C917.12 471.82 912.222 466.647 907.261 461.623ZM1626.8 455.655C1625.17 451.447 1623.5 447.239 1621.88 443.01C1621.82 442.881 1621.78 442.752 1621.69 442.537C1622.14 444.19 1622.53 445.758 1622.92 447.303C1623.71 450.717 1624.48 454.087 1625.19 457.458C1626.09 457.887 1627 458.317 1627.9 458.725C1627.56 457.694 1627.19 456.664 1626.8 455.655ZM887.113 444.126C887.564 443.611 888.015 443.074 888.466 442.559C883.697 437.75 878.886 432.984 873.924 428.303C873.215 427.659 872.528 427.015 871.862 426.371C876.953 432.318 881.85 438.415 886.748 444.555C886.876 444.405 886.984 444.276 887.113 444.126ZM898.948 430.644C897.831 429.699 896.714 428.754 895.619 427.788C895.339 428.218 895.082 428.647 894.824 429.055C894.244 429.957 893.514 430.729 892.719 431.352C893.728 432.318 894.738 433.306 895.726 434.272C896.8 433.07 897.874 431.846 898.948 430.644ZM916.518 411.365C919.16 408.531 921.845 405.719 924.595 402.906C922.855 401.489 921.115 400.072 919.396 398.634C918.537 397.947 917.7 397.238 916.862 396.53C911.041 404.516 905.435 412.631 900.065 420.854C901.525 422.099 902.986 423.301 904.447 424.525C908.42 420.124 912.437 415.744 916.518 411.365ZM810.173 382.21C798.295 371.09 785.579 360.806 772.885 350.63C766.312 345.349 759.696 340.432 752.973 335.387C750.138 333.283 747.152 331.008 744.209 329.032C735.081 323.837 725.544 318.942 716.243 314.541C709.284 311.256 702.346 307.886 695.236 304.966C691.735 303.528 688.212 302.068 684.668 300.672C687.224 302.068 689.759 303.485 692.315 304.923C731.515 327.272 768.159 353.228 803.257 381.523C814.619 390.69 826.283 400.33 837.065 410.184C841.404 414.177 845.722 418.149 850.061 422.163C837.302 408.316 823.898 395.091 810.173 382.21ZM882.022 415.186C880.626 413.791 879.251 412.395 877.898 410.957C876.373 409.476 876.33 406.985 877.812 405.461C879.294 403.937 881.786 403.894 883.311 405.375C884.299 406.405 885.33 407.436 886.361 408.445C891.731 400.244 897.423 392.064 903.265 384.25C899.356 380.772 895.447 377.294 891.623 373.752C890.7 375.018 889.776 376.306 888.874 377.573C882.301 386.826 876.287 396.895 871.068 406.985C870.595 407.887 870.122 408.788 869.671 409.69C873.022 412.76 876.351 415.83 879.681 418.943C880.454 417.676 881.227 416.431 882.022 415.186ZM955.074 373.623C951.036 370.252 946.998 366.86 942.96 363.468C935.656 372.034 928.633 380.815 921.888 389.767C924.788 392.129 927.666 394.49 930.566 396.852C938.556 388.887 946.761 381.137 955.074 373.623ZM931.983 348.204C951.079 325.984 972.043 305.481 994.704 286.997C969.1 300.093 945.279 316.409 924.466 336.31C914.005 346.336 904.618 356.791 895.898 368.084C899.7 371.605 903.695 374.997 907.905 378.131C915.788 367.955 923.585 357.994 931.983 348.204ZM221.226 332.94C272.089 305.116 332.855 287.297 390.269 280.02C405.584 278.087 420.985 276.499 436.386 275.554C443.668 275.103 450.971 274.931 458.274 274.652C485.789 273.557 514.636 274.91 542.022 277.744C563.008 279.934 583.972 283.111 604.614 287.727C588.311 280.792 572.051 274.116 555.383 267.89C540.068 262.201 524.56 256.876 508.987 251.939C497.775 249.921 486.498 248.268 475.178 246.765C466.135 245.562 456.233 245.026 447.104 244.661H411.663C405.907 246.357 400.214 248.246 394.78 250.221C391.837 251.294 388.959 252.647 386.017 253.72C378.821 256.361 372.055 260.44 365.095 263.553C363.764 264.219 362.088 263.66 361.422 262.329C360.757 260.998 361.315 259.324 362.647 258.658C369.692 255.374 376.415 251.702 383.654 248.761C385.458 248.031 387.284 247.323 389.045 246.636C384.449 247.151 379.83 247.731 375.148 248.332C365.976 249.534 355.881 251.445 346.902 253.72C338.933 255.739 331.007 257.649 323.167 260.161C311.483 263.897 299.948 268.126 288.671 273.021C283.538 275.254 278.533 277.744 273.485 280.17C267.149 283.197 259.91 287.018 254.003 290.775C249.17 293.867 244.209 296.722 239.397 299.878C220.452 312.266 203.977 326.671 187.911 342.493C182.219 348.097 175.968 354.902 171.006 361.15C167.162 365.98 163.317 370.682 159.601 375.534C178.46 358.938 199.832 344.662 221.226 332.94ZM1004.69 332.661C1001.81 330.278 998.914 327.809 996.272 325.361C994.467 323.837 994.231 321.111 995.756 319.307C997.281 317.504 1000.01 317.268 1001.81 318.792C1005.01 321.755 1008.56 324.481 1011.95 327.315C1027.2 316.237 1042.95 305.803 1059.16 296.228C1051.3 290.26 1043.12 285 1034.33 280.063C1034.23 280.02 1034.14 279.934 1034.05 279.869C1032.4 280.986 1030.79 282.124 1029.22 283.326C1024.73 286.761 1019.99 290.325 1015.41 293.631C1008.9 298.311 1002.22 304.215 996.143 309.517C979.174 324.331 963.086 340.475 948.05 357.607C951.573 360.441 955.117 363.232 958.704 365.916C959.606 366.603 960.508 367.29 961.41 367.955C975.329 355.675 989.763 343.846 1004.69 332.661ZM197.125 312.523C202.152 308.208 207.328 303.807 212.655 299.878C219.013 295.219 225.221 290.647 231.793 286.267C241.567 279.762 251.812 273.88 262.166 268.491C259.416 269.758 256.559 271.067 253.681 272.377C244.617 276.52 235.209 281.93 226.681 287.061C216.199 293.373 205.932 300.071 196.052 307.285C193.624 311.493 191.219 315.7 188.813 319.887C191.562 317.375 194.333 314.928 197.125 312.523ZM1118.68 265.979C1114.43 263.618 1110.18 261.256 1105.92 258.894C1105.19 258.508 1104.92 257.542 1105.3 256.812C1105.69 256.082 1106.66 255.803 1107.39 256.189C1112.35 258.98 1117.35 261.728 1122.38 264.433C1143.84 255.481 1165.92 248.117 1188.66 242.664C1179.34 242.793 1170.06 243.137 1160.72 243.738C1127.94 245.906 1094.52 251.316 1062.54 261.814C1056.52 265.292 1049.99 268.963 1044.32 272.956C1041.64 274.846 1038.87 276.649 1036.12 278.474C1038.91 280.105 1041.98 281.522 1044.62 283.283C1046.94 284.829 1049.56 286.16 1051.8 287.748C1055.1 290.131 1058.45 292.386 1061.78 294.704C1080.19 283.97 1099.18 274.309 1118.68 265.979ZM664.52 288.199C665.401 285.795 668.107 284.549 670.513 285.43C673.241 286.546 676.055 287.555 678.869 288.543C624.805 260.075 567.175 239.122 507.247 235.15C508.6 235.558 509.975 235.987 511.328 236.395C516.376 237.318 521.424 238.306 526.514 239.379C541.12 242.492 554.996 246.614 569.323 250.693C577.077 252.905 584.681 255.889 592.306 258.444C599.695 260.913 607.105 263.961 614.344 266.881C624.697 271.067 635.244 275.511 645.275 280.427C651.632 283.562 657.947 286.696 664.219 289.874C664.219 289.337 664.305 288.757 664.52 288.199Z" fill="#829AB1"/>
</svg>
