<?xml version="1.0" encoding="utf-8"?>
<!-- Generator: Adobe Illustrator 23.0.0, SVG Export Plug-In . SVG Version: 6.00 Build 0)  -->
<svg version="1.1" id="Layer_1" xmlns="http://www.w3.org/2000/svg" xmlns:xlink="http://www.w3.org/1999/xlink" x="0px" y="0px"
	 viewBox="0 0 32 32" style="enable-background:new 0 0 32 32;" xml:space="preserve">
<style type="text/css">
	.st0{fill:#8C2A0B;}
</style>
<g>
	<path class="st0" d="M8.63,9.55c2.81,0,4.49,1.24,4.49,3.19c0,1.32-0.76,2.4-1.9,2.87c1.97,0.62,2.87,1.88,2.87,3.45
		c0,2.92-2.38,3.7-5.34,3.7H3.02V9.55H8.63z M6.35,15.03h1.41c1.41,0,2.19-0.48,2.19-1.74c0-1.16-0.64-1.68-2.05-1.68H6.35V15.03z
		 M8.09,20.7c1.72,0,2.65-0.56,2.65-1.8c0-1.22-0.89-1.84-2.65-1.84H6.35v3.64H8.09z"/>
	<path class="st0" d="M28.92,10.4v3.06c-1.49-0.95-2.85-1.41-4.36-1.41c-2.98,0-4.53,1.97-4.53,4.16s1.63,4.05,4.45,4.05
		c1.59,0,3.08-0.5,4.51-1.45v2.96c-1.47,0.79-3.14,1.16-5.05,1.16c-4.61,0-7.32-2.96-7.32-6.78c0-4.18,3.14-6.78,7.38-6.78
		C25.53,9.38,27.14,9.67,28.92,10.4z"/>
</g>
</svg>
