<?xml version="1.0" standalone="no"?><!-- Generator: Gravit.io --><svg xmlns="http://www.w3.org/2000/svg" xmlns:xlink="http://www.w3.org/1999/xlink" style="isolation:isolate" viewBox="0 0 1527 315" width="1527px" height="315px"><defs><clipPath id="_clipPath_901TsxWuNoFwNgGnayaScGEtDpNzjKUy"><rect width="1527" height="315"/></clipPath></defs><g clip-path="url(#_clipPath_901TsxWuNoFwNgGnayaScGEtDpNzjKUy)"><g><clipPath id="_clipPath_Q7b6knbqyfrZ2huU0MtjdAzjSs1FZ0um"><path d=" M -328 -895 L 1672 -895 L 1672 1105 L -328 1105 L -328 -895 Z " fill="rgb(255,255,255)"/></clipPath><g clip-path="url(#_clipPath_Q7b6knbqyfrZ2huU0MtjdAzjSs1FZ0um)"><path d=" M 0.641 167.364 C 410.945 59.538 1135.471 137.413 1525 313.129 C 1018.611 151.389 473 120 35 230 C 15 197 0.641 167.364 0.641 167.364 Z " fill="rgb(255,193,92)"/><path d=" M 760.103 3 C 755.125 9.627 750.84 17.521 747.686 26.347 C 746.127 30.7 744.929 35.051 744.072 39.338 C 739.364 37.662 734.303 36.728 729.031 36.678 C 729.11 36.444 729.193 36.211 729.276 35.978 C 735.131 19.594 747.009 7.603 760.103 3 Z " fill="rgb(255,193,92)"/><path d=" M 760.075 3.021 C 756.473 4.468 752.948 6.359 749.776 8.654 C 746.581 10.942 743.716 13.651 741.099 16.567 C 738.497 19.5 736.216 22.711 734.229 26.093 C 732.254 29.484 730.614 33.065 729.253 36.753 L 729.033 36.443 C 731.602 36.5 734.166 36.763 736.689 37.227 C 739.215 37.687 741.69 38.385 744.108 39.234 L 743.964 39.317 C 744.611 36.039 745.404 32.789 746.359 29.583 C 747.31 26.375 748.476 23.232 749.813 20.164 C 751.179 17.109 752.684 14.112 754.399 11.239 C 756.1 8.375 758.004 5.557 760.075 3.021 Z  M 760.131 2.979 C 758.205 5.786 756.43 8.55 754.801 11.471 C 753.179 14.375 751.683 17.352 750.374 20.409 C 749.041 23.456 747.847 26.563 746.785 29.719 C 745.724 32.875 744.842 36.094 744.179 39.359 L 744.153 39.484 L 744.035 39.442 C 741.634 38.576 739.146 37.964 736.635 37.536 C 734.121 37.11 731.573 36.906 729.028 36.914 L 728.702 36.914 L 728.808 36.602 C 730.079 32.851 731.665 29.196 733.641 25.753 C 735.594 22.299 737.927 19.057 740.578 16.102 C 743.213 13.13 746.24 10.513 749.505 8.266 C 752.789 6.028 756.293 4.18 760.131 2.979 Z " fill="rgb(79,52,10)"/><path d=" M 713.663 21.943 C 712.007 27.651 710.915 33.841 710.494 40.342 C 705.992 42.257 701.856 44.865 698.22 48.035 C 700.861 37.258 706.379 28.076 713.663 21.943 Z " fill="rgb(255,193,92)"/><path d=" M 713.645 21.972 C 711.833 23.702 710.036 25.595 708.478 27.601 C 706.887 29.6 705.49 31.741 704.208 33.945 C 701.693 38.381 699.749 43.139 698.423 48.086 L 698.082 47.876 C 699.949 46.314 701.937 44.901 703.999 43.616 C 706.054 42.324 708.193 41.155 710.407 40.137 L 710.271 40.328 C 710.328 38.765 710.441 37.204 710.62 35.651 C 710.776 34.094 711.04 32.55 711.308 31.01 C 711.578 29.47 711.916 27.942 712.302 26.427 C 712.686 24.928 713.114 23.373 713.645 21.972 Z  M 713.682 21.914 L 712.683 26.514 C 712.376 28.039 712.108 29.57 711.853 31.103 C 711.598 32.636 711.418 34.18 711.214 35.72 C 711.031 37.263 710.864 38.808 710.718 40.357 L 710.704 40.5 L 710.582 40.548 C 708.333 41.428 706.161 42.511 704.109 43.794 C 702.063 45.084 700.145 46.571 698.358 48.194 L 697.866 48.641 L 698.015 47.985 C 699.151 42.961 700.974 38.053 703.599 33.593 C 704.89 31.351 706.405 29.241 708.071 27.267 C 709.766 25.302 711.568 23.499 713.682 21.914 Z " fill="rgb(79,52,10)"/><path d=" M 794.186 23.236 C 787.163 28.296 780.124 34.907 773.571 42.88 C 770.458 46.663 767.614 50.564 765.048 54.516 C 762.266 50.945 758.973 47.793 755.278 45.17 C 767.276 31.062 781.863 23.323 794.186 23.236 Z " fill="rgb(255,193,92)"/><path d=" M 794.153 23.247 C 790.392 23.454 786.579 24.223 782.996 25.479 C 779.392 26.727 775.984 28.474 772.734 30.453 C 766.243 34.454 760.516 39.607 755.468 45.332 L 755.424 44.966 C 759.095 47.647 762.384 50.843 765.142 54.443 L 764.949 54.452 C 766.924 51.459 768.97 48.515 771.122 45.644 C 773.272 42.772 775.552 39.994 777.982 37.349 C 780.418 34.71 782.984 32.191 785.675 29.815 C 788.363 27.457 791.216 25.19 794.153 23.247 Z  M 794.218 23.226 C 791.351 25.483 788.632 27.734 786.001 30.176 C 783.365 32.59 780.847 35.13 778.429 37.761 C 776.007 40.387 773.658 43.084 771.419 45.874 C 769.181 48.664 767.073 51.564 765.148 54.581 L 765.059 54.722 L 764.954 54.59 C 762.154 51.053 758.837 47.93 755.133 45.374 L 754.91 45.22 L 755.088 45.007 C 760.012 39.12 765.776 33.858 772.372 29.857 C 775.659 27.849 779.187 26.229 782.848 25.039 C 786.522 23.863 790.311 23.131 794.218 23.226 Z " fill="rgb(79,52,10)"/><path d=" M 820.706 62.738 C 812.052 62.738 776.978 77.134 774.51 77.898 C 773.821 71.454 771.804 65.405 768.741 60.032 C 770.766 59.33 772.836 58.696 774.942 58.14 C 793.463 53.245 810.402 55.423 820.706 62.738 Z " fill="rgb(255,193,92)"/><path d=" M 820.673 62.727 C 816.948 60.346 812.761 58.516 808.428 57.474 C 804.091 56.388 799.62 55.938 795.159 55.872 C 790.693 55.807 786.229 56.245 781.822 56.982 L 778.529 57.615 L 775.266 58.386 L 768.825 60.273 L 768.964 59.904 C 772.044 65.443 773.99 71.599 774.613 77.886 L 774.48 77.799 C 778.273 76.39 782.038 74.841 785.813 73.347 C 789.585 71.839 793.381 70.39 797.205 69.016 C 801.039 67.669 804.881 66.341 808.782 65.188 C 809.754 64.89 810.734 64.617 811.717 64.356 C 812.697 64.084 813.678 63.818 814.674 63.602 C 815.664 63.369 816.659 63.156 817.669 63.01 C 818.688 62.792 819.639 62.784 820.673 62.727 Z  M 820.738 62.748 C 819.75 62.865 818.669 62.961 817.703 63.201 C 816.708 63.388 815.727 63.64 814.751 63.914 C 813.768 64.156 812.795 64.443 811.825 64.739 C 810.853 65.023 809.883 65.318 808.922 65.641 C 805.059 66.872 801.225 68.206 797.413 69.597 L 785.962 73.74 L 774.541 77.997 L 774.422 78.041 L 774.407 77.909 C 773.698 71.661 771.688 65.568 768.519 60.159 L 768.357 59.883 L 768.657 59.789 C 770.806 59.122 772.944 58.411 775.106 57.776 L 778.388 56.969 L 781.702 56.299 C 786.138 55.489 790.656 55.107 795.168 55.177 C 799.681 55.245 804.189 55.86 808.545 57.029 C 812.913 58.185 817.069 60.037 820.738 62.748 Z " fill="rgb(79,52,10)"/><path d=" M 804.987 115.89 C 799.761 111.589 771.427 102.854 769.557 102.089 C 772.343 97.855 774.131 93.2 774.951 88.432 C 776.522 89.015 778.088 89.661 779.636 90.372 C 793.253 96.619 802.4 106.352 804.987 115.89 Z " fill="rgb(255,193,92)"/><path d=" M 804.969 115.86 C 803.875 112.594 802.253 109.408 800.148 106.638 C 798.065 103.836 795.58 101.359 792.923 99.106 C 790.262 96.85 787.349 94.905 784.329 93.156 L 782.031 91.901 L 779.68 90.743 L 774.863 88.673 L 775.204 88.476 C 774.295 93.356 772.403 98.041 769.644 102.145 L 769.597 101.992 C 772.586 103.022 775.633 103.953 778.658 104.913 C 781.691 105.863 784.705 106.87 787.698 107.939 C 790.682 109.036 793.663 110.144 796.589 111.396 C 797.323 111.701 798.05 112.026 798.773 112.359 C 799.498 112.685 800.223 113.014 800.931 113.382 C 801.643 113.737 802.348 114.108 803.029 114.526 C 803.755 114.906 804.317 115.373 804.969 115.86 Z  M 805.006 115.918 C 804.351 115.506 803.634 115.025 802.934 114.696 C 802.239 114.318 801.52 113.987 800.792 113.672 C 800.076 113.333 799.347 113.025 798.614 112.724 C 797.884 112.415 797.152 112.114 796.409 111.834 C 793.461 110.668 790.485 109.569 787.49 108.52 L 778.526 105.311 L 769.518 102.184 L 769.399 102.142 L 769.471 102.031 C 772.138 97.903 773.942 93.226 774.699 88.388 L 774.748 88.073 L 775.041 88.192 C 776.673 88.852 778.323 89.48 779.946 90.17 L 782.332 91.312 L 784.671 92.553 C 787.76 94.263 790.678 96.287 793.372 98.575 C 796.068 100.862 798.476 103.49 800.522 106.369 C 802.58 109.25 804.164 112.433 805.006 115.918 Z " fill="rgb(79,52,10)"/><path d=" M 767.687 82.882 C 767.687 104.486 750.172 122 728.568 122 C 706.964 122 689.451 104.486 689.451 82.882 C 689.451 61.278 706.964 43.764 728.568 43.764 C 750.172 43.764 767.687 61.278 767.687 82.882 Z " fill="rgb(255,193,92)"/><path d=" M 767.652 82.882 C 767.622 77.767 766.613 72.654 764.618 67.949 C 762.627 63.246 759.7 58.953 756.078 55.373 C 748.83 48.186 738.726 44.102 728.568 44.118 C 718.406 44.107 708.326 48.247 701.136 55.45 C 697.544 59.039 694.642 63.324 692.673 68.014 C 690.7 72.701 689.673 77.784 689.638 82.882 C 689.584 93.075 693.691 103.28 701 110.451 C 704.628 114.042 708.959 116.911 713.675 118.838 C 718.389 120.77 723.48 121.752 728.568 121.74 C 738.756 121.708 748.821 117.561 756.076 110.39 C 759.707 106.817 762.632 102.521 764.624 97.817 C 766.618 93.111 767.624 87.997 767.652 82.882 Z  M 767.72 82.882 C 767.764 93.143 763.633 103.359 756.381 110.695 C 752.774 114.373 748.409 117.303 743.651 119.295 C 738.893 121.299 733.719 122.261 728.568 122.259 C 723.414 122.23 718.268 121.198 713.524 119.202 C 708.777 117.215 704.435 114.281 700.816 110.634 C 697.214 106.973 694.29 102.643 692.306 97.903 C 690.319 93.164 689.29 88.028 689.262 82.882 C 689.182 72.581 693.349 62.296 700.679 54.993 C 704.325 51.337 708.692 48.4 713.463 46.414 C 718.23 44.418 723.403 43.419 728.568 43.41 C 733.732 43.432 738.906 44.427 743.661 46.447 C 748.418 48.454 752.762 51.406 756.38 55.07 C 763.646 62.396 767.766 72.624 767.72 82.882 Z " fill="rgb(79,52,10)"/><path d=" M 720.563 63.438 C 720.563 63.987 720.514 64.524 720.42 65.048 C 713.83 65.154 707.853 66.149 703.325 67.723 C 702.646 66.444 702.261 64.987 702.261 63.438 C 702.261 58.385 706.359 54.288 711.412 54.288 C 716.464 54.288 720.563 58.385 720.563 63.438 Z " fill="rgb(255,239,213)"/><path d=" M 720.527 63.438 C 720.516 60.663 719.049 58.012 716.864 56.463 C 715.781 55.676 714.543 55.119 713.245 54.834 C 711.942 54.554 710.582 54.614 709.291 54.911 C 706.688 55.503 704.432 57.368 703.262 59.801 C 702.068 62.22 702.078 65.275 703.436 67.664 L 703.284 67.604 C 704.653 67.121 706.036 66.662 707.446 66.3 C 708.851 65.919 710.285 65.654 711.722 65.432 C 713.166 65.244 714.615 65.104 716.067 65.061 C 717.519 64.995 718.97 65.014 720.419 64.992 L 720.365 65.039 L 720.527 63.438 Z  M 720.596 63.438 L 720.475 65.058 L 720.472 65.104 L 720.421 65.105 C 718.974 65.133 717.532 65.286 716.097 65.445 C 714.664 65.628 713.233 65.804 711.812 66.038 C 710.385 66.238 708.969 66.498 707.554 66.77 C 706.144 67.06 704.734 67.38 703.366 67.841 L 703.262 67.876 L 703.214 67.781 C 701.941 65.287 701.755 62.246 702.858 59.62 C 703.399 58.309 704.265 57.132 705.339 56.188 C 706.423 55.255 707.731 54.585 709.121 54.223 C 711.899 53.498 715.032 54.151 717.22 56.008 C 719.441 57.835 720.607 60.676 720.596 63.438 Z " fill="rgb(79,52,10)"/><path d=" M 743.667 65.268 C 743.667 66.583 743.388 67.834 742.887 68.965 C 738.698 66.929 732.48 65.513 725.368 65.138 C 725.437 60.143 729.507 56.118 734.517 56.118 C 739.569 56.118 743.667 60.215 743.667 65.268 Z " fill="rgb(255,239,213)"/><path d=" M 743.633 65.268 C 743.624 62.881 742.541 60.564 740.822 59.007 C 739.136 57.422 736.877 56.476 734.579 56.482 C 732.285 56.453 729.996 57.338 728.317 58.933 C 726.631 60.508 725.532 62.771 725.487 65.139 L 725.375 65.019 C 728.376 65.24 731.385 65.456 734.369 65.962 C 735.854 66.243 737.331 66.586 738.766 67.076 C 740.207 67.542 741.597 68.164 742.937 68.861 L 742.781 68.918 C 743.351 67.796 743.609 66.528 743.633 65.268 Z  M 743.701 65.268 C 743.727 66.545 743.453 67.813 742.992 69.011 L 742.951 69.119 L 742.836 69.068 C 741.465 68.464 740.032 68.028 738.603 67.604 C 737.164 67.205 735.72 66.827 734.257 66.514 C 731.345 65.836 728.363 65.365 725.362 65.256 L 725.25 65.252 L 725.25 65.136 C 725.256 62.728 726.169 60.273 727.918 58.527 C 729.639 56.768 732.104 55.737 734.584 55.76 C 737.064 55.762 739.535 56.816 741.195 58.637 C 742.856 60.456 743.724 62.878 743.701 65.268 Z " fill="rgb(79,52,10)"/><path d=" M 714.614 63.438 C 714.614 65.207 713.18 66.641 711.412 66.641 C 709.642 66.641 708.209 65.207 708.209 63.438 C 708.209 61.669 709.642 60.235 711.412 60.235 C 713.18 60.235 714.614 61.669 714.614 63.438 Z " fill="rgb(0,0,0)"/><path d=" M 737.147 64.696 C 737.147 66.465 735.713 67.899 733.944 67.899 C 732.176 67.899 730.743 66.465 730.743 64.696 C 730.743 62.927 732.176 61.493 733.944 61.493 C 735.713 61.493 737.147 62.927 737.147 64.696 Z " fill="rgb(0,0,0)"/><path d=" M 726.68 93.039 C 724.875 94.28 722.69 95.007 720.333 95.007 C 714.143 95.007 709.124 89.988 709.124 83.798 C 709.124 77.607 714.143 72.589 720.333 72.589 C 723.894 72.589 727.067 74.249 729.12 76.837" fill="rgb(255,193,92)"/><path d=" M 726.699 93.067 C 724.978 94.41 722.796 95.183 720.578 95.265 C 718.366 95.327 716.101 94.765 714.241 93.531 C 710.502 91.059 708.528 86.473 709.076 82.102 C 709.541 77.688 712.987 73.712 717.362 72.634 C 719.523 72.046 721.857 72.154 723.947 72.905 C 726.047 73.643 727.875 75.049 729.146 76.816 L 729.093 76.858 C 727.66 75.237 725.807 74.024 723.778 73.415 C 721.758 72.781 719.566 72.775 717.544 73.318 C 716.528 73.583 715.557 74.008 714.664 74.558 C 713.762 75.093 712.93 75.758 712.231 76.545 C 711.523 77.322 710.901 78.19 710.446 79.146 C 709.98 80.092 709.615 81.103 709.447 82.157 C 709.255 83.205 709.214 84.29 709.366 85.352 C 709.481 86.419 709.805 87.46 710.265 88.427 C 711.169 90.379 712.732 91.978 714.544 93.05 C 716.345 94.153 718.449 94.738 720.567 94.739 C 722.687 94.742 724.809 94.135 726.66 93.01 L 726.699 93.067 Z " fill="rgb(79,52,10)"/><path d=" M 712.967 94.338 C 717.67 96.23 722.989 96.555 727.888 95.25 C 732.787 93.944 737.238 91.016 740.377 87.035 C 742.426 92.339 739.907 98.584 735.628 102.328 C 731.35 106.073 725.669 107.769 720.09 108.865 C 719.252 107.619 719.837 105.889 720.779 104.719 C 721.719 103.549 722.988 102.64 723.742 101.343 C 724.498 100.045 724.497 98.086 723.2 97.329" fill="rgb(255,239,213)"/><path d=" M 712.979 94.307 C 715.361 95.167 717.863 95.645 720.369 95.762 C 722.875 95.867 725.397 95.624 727.808 94.955 C 730.226 94.314 732.541 93.288 734.67 91.961 C 736.8 90.63 738.722 88.945 740.292 86.968 L 740.411 86.819 L 740.479 86.996 C 741.521 89.687 741.406 92.718 740.511 95.437 C 739.605 98.165 737.969 100.651 735.814 102.582 C 733.651 104.494 731.095 105.926 728.418 106.949 C 725.735 107.964 722.954 108.675 720.151 109.175 L 719.939 109.213 L 719.828 109.041 C 719.476 108.503 719.347 107.849 719.402 107.242 C 719.455 106.631 719.656 106.059 719.927 105.536 C 720.474 104.468 721.38 103.717 722.167 102.943 C 722.955 102.172 723.739 101.349 724.014 100.291 C 724.301 99.279 724.161 97.972 723.182 97.359 L 723.218 97.3 C 723.722 97.576 724.085 98.079 724.24 98.637 C 724.401 99.194 724.395 99.788 724.278 100.355 C 724.048 101.522 723.225 102.431 722.469 103.242 C 721.698 104.061 720.875 104.825 720.412 105.784 C 719.943 106.72 719.78 107.881 720.351 108.689 L 720.028 108.555 C 722.792 107.961 725.542 107.303 728.16 106.276 C 730.771 105.261 733.285 103.942 735.401 102.11 C 737.515 100.302 739.196 97.95 740.157 95.315 C 741.131 92.7 741.313 89.709 740.276 87.075 L 740.463 87.103 C 738.894 89.108 737.02 90.879 734.916 92.332 C 732.812 93.79 730.448 94.882 727.967 95.546 C 725.479 96.182 722.892 96.43 720.339 96.225 C 717.787 96.033 715.276 95.403 712.954 94.371 L 712.979 94.307 Z " fill="rgb(79,52,10)"/></g><clipPath id="_clipPath_xvJXqBfUfE7KRDkNM10NCQMhwVAw7Q5p"><path d=" M -328 -895 L 1672 -895 L 1672 1105 L -328 1105 L -328 -895 Z " fill="rgb(255,255,255)"/></clipPath><g clip-path="url(#_clipPath_xvJXqBfUfE7KRDkNM10NCQMhwVAw7Q5p)"><path d=" M 67.152 131.178 C 77.104 129.082 81.788 124.71 80.281 117.554 C 78.798 110.51 72.901 108.014 62.726 110.157 L 52.662 112.276 L 57.089 133.297 L 67.152 131.178 Z  M 50.19 100.535 L 58.353 98.816 C 66.515 97.097 70.399 93.361 68.869 86.093 C 67.456 79.384 63.131 77.141 54.968 78.86 L 46.023 80.743 L 50.19 100.535 Z  M 56.721 66.113 C 72.935 62.699 84.17 67.807 86.548 79.1 C 88.149 86.704 85.106 93.884 79.074 97.956 C 91.233 99.133 97.907 105.318 99.814 114.375 C 103.369 131.26 90.557 138.628 73.449 142.231 L 40.352 149.199 L 24.295 72.941 L 56.721 66.113 Z " fill="rgb(73,19,69)"/><path d=" M 162.371 47.82 L 164.484 61.599 L 131.165 66.708 L 133.763 83.65 L 165.614 78.766 L 167.726 92.546 L 135.876 97.429 L 138.75 116.178 L 172.973 110.931 L 175.086 124.711 L 121.437 132.937 L 109.625 55.908 L 162.371 47.82 Z " fill="rgb(73,19,69)"/><path d=" M 198.439 43.399 L 219.622 66.549 L 235.71 39.45 L 256.846 37.211 L 231.462 80.692 L 235.398 117.85 L 215.854 119.921 L 211.953 83.104 L 177.53 45.614 L 198.439 43.399 Z " fill="rgb(73,19,69)"/><path d=" M 286.21 74.362 C 287.049 87.819 297.091 96.466 310.548 95.627 C 324.233 94.774 333.279 85.624 332.384 71.254 C 331.623 59.051 322.757 49.071 307.817 50.003 C 293.562 50.891 285.371 60.904 286.21 74.362 Z  M 352.462 70.116 C 353.821 91.899 339.441 111 311.614 112.734 C 283.56 114.483 267.454 96.712 266.138 75.613 C 264.937 56.34 276.529 34.78 306.979 32.882 C 333.779 31.211 351.069 47.764 352.462 70.116 Z " fill="rgb(73,19,69)"/><path d=" M 388.806 30.165 L 433.462 77.906 L 432.561 29.353 L 451.982 28.992 L 453.429 106.906 L 435.949 107.23 L 391.41 59.602 L 392.308 108.041 L 373.002 108.398 L 371.555 30.485 L 388.806 30.165 Z " fill="rgb(73,19,69)"/><path d=" M 507.477 93.315 C 524.156 93.625 532.541 85.208 532.838 69.214 C 533.135 53.221 524.279 43.914 507.714 43.607 L 495.947 43.388 L 495.024 93.083 L 507.477 93.315 Z  M 509.458 29.695 C 538.59 30.237 553.367 46.854 552.951 69.245 C 552.495 93.807 537.372 108.154 509.154 107.63 L 475.11 106.998 L 476.556 29.086 L 509.458 29.695 Z " fill="rgb(73,19,69)"/><path d=" M 682.826 42.559 L 681.691 60.576 C 673.263 54.435 665.453 51.195 656.559 50.635 C 638.999 49.528 629.143 60.584 628.331 73.469 C 627.519 86.354 636.407 97.905 653.055 98.954 C 662.406 99.543 671.373 97.132 680.163 92.077 L 679.063 109.523 C 670.103 113.652 660.16 115.201 648.871 114.489 C 621.732 112.778 606.868 94.326 608.284 71.862 C 609.836 47.232 629.272 33.116 654.244 34.69 C 663.252 35.258 672.609 37.565 682.826 42.559 Z " fill="rgb(73,19,69)"/><path d=" M 801.925 48.614 L 822.694 81.32 L 850.494 54.335 L 868.196 56.42 L 859.08 133.813 L 839.562 131.514 L 845.39 82.037 L 820.407 106.593 L 818.592 106.379 L 799.885 76.677 L 794.057 126.154 L 774.992 123.908 L 784.109 46.515 L 801.925 48.614 Z " fill="rgb(73,19,69)"/><path d=" M 906.537 96.192 L 916.259 97.614 C 924.851 98.872 928.692 95.507 929.601 89.29 C 930.66 82.054 927.263 78.44 918.445 77.149 L 909.514 75.842 L 906.537 96.192 Z  M 924.563 64.534 C 942.199 67.114 951.683 77.278 949.499 92.201 C 947.63 104.976 937.387 114.216 918.62 111.47 L 904.601 109.42 L 900.169 139.716 L 880.724 136.873 L 892.004 59.771 L 924.563 64.534 Z " fill="rgb(73,19,69)"/><path d=" M 981.167 121.438 L 1004.03 125.357 L 997.329 95.458 L 981.167 121.438 Z  M 1010.596 78.253 L 1031.2 160.967 L 1011.378 157.571 L 1006.975 138.615 L 973.976 132.959 L 963.625 149.385 L 943.803 145.989 L 990.436 74.799 L 1010.596 78.253 Z " fill="rgb(73,19,69)"/><path d=" M 1104.816 101.456 L 1101.573 117.819 C 1095.51 110.793 1088.916 106.457 1082.079 105.102 C 1075.915 103.88 1072.422 106.217 1071.668 110.027 C 1070.957 113.613 1072.62 116.39 1081.079 123.075 C 1092.455 132.086 1100.556 139.399 1098.002 152.288 C 1095.357 165.625 1082.619 172.302 1066.928 169.191 C 1058.522 167.525 1050.269 163.326 1043.314 157.871 L 1046.735 140.611 C 1053.628 148.733 1060.492 152.89 1067.329 154.245 C 1074.165 155.6 1077.858 152.838 1078.569 149.252 C 1079.324 145.441 1078.356 142.686 1067.227 134.19 C 1059.778 128.287 1050.196 120.215 1052.839 106.877 C 1055.172 95.11 1066.117 87.495 1082.928 90.827 C 1091.67 92.56 1099.587 96.692 1104.816 101.456 Z " fill="rgb(73,19,69)"/><path d=" M 1173.776 116.486 L 1170.158 132.771 C 1164.258 125.608 1157.764 121.123 1150.96 119.611 C 1144.825 118.248 1141.281 120.504 1140.438 124.296 C 1139.645 127.865 1141.244 130.678 1149.548 137.556 C 1160.715 146.826 1168.647 154.324 1165.797 167.15 C 1162.848 180.424 1149.96 186.807 1134.344 183.338 C 1125.978 181.48 1117.824 177.093 1110.995 171.479 L 1114.81 154.301 C 1121.516 162.58 1128.283 166.892 1135.087 168.404 C 1141.891 169.916 1145.646 167.238 1146.439 163.67 C 1147.282 159.877 1146.377 157.101 1135.445 148.351 C 1128.132 142.279 1118.738 133.988 1121.687 120.715 C 1124.289 109.004 1135.405 101.641 1152.136 105.358 C 1160.837 107.291 1168.657 111.603 1173.776 116.486 Z " fill="rgb(73,19,69)"/><path d=" M 1216.794 121.533 L 1198.416 197.261 L 1179.317 192.627 L 1197.695 116.898 L 1216.794 121.533 Z " fill="rgb(73,19,69)"/><path d=" M 1245.979 169.183 C 1242.446 182.194 1249.17 193.611 1262.181 197.145 C 1275.412 200.74 1286.921 194.987 1290.694 181.094 C 1293.9 169.295 1288.717 156.995 1274.272 153.071 C 1260.49 149.327 1249.514 156.172 1245.979 169.183 Z  M 1310.071 186.475 C 1304.349 207.536 1284.592 220.993 1257.688 213.684 C 1230.564 206.316 1221.032 184.309 1226.573 163.912 C 1231.635 145.278 1249.547 128.594 1278.986 136.592 C 1304.897 143.631 1315.942 164.865 1310.071 186.475 Z " fill="rgb(73,19,69)"/><path d=" M 1357.392 160.229 L 1384.306 219.8 L 1399.079 173.542 L 1417.581 179.452 L 1393.875 253.681 L 1377.223 248.364 L 1350.383 188.936 L 1335.646 235.084 L 1317.251 229.209 L 1340.957 154.98 L 1357.392 160.229 Z " fill="rgb(73,19,69)"/></g></g></g></svg>