<svg width="443" height="430" viewBox="0 0 443 430" fill="none" xmlns="http://www.w3.org/2000/svg">
<path d="M255.575 89.4598C281.014 95.7117 304.541 109.309 322.756 128.142C341.953 147.814 355.186 173.297 360.157 200.337C364.685 224.627 362.664 249.977 354.501 273.294C360.665 272.786 366.618 272.455 372.682 274.034C387.252 277.503 399.623 288.681 404.141 303.007C405.367 307.149 404.494 311.302 402.219 314.892C379.553 351.332 345.344 380.537 306.021 397.625C273.724 411.631 237.836 417.353 202.788 414.183C166.944 411.023 132.15 398.475 102.36 378.339C76.6566 360.964 54.8192 338.055 38.9244 311.391C34.9148 304.874 36.903 295.916 43.663 292.16C57.9893 284.461 73.6743 279.06 89.6022 275.879C81.4063 253.754 78.7774 229.73 82.0911 206.368C86.0455 178.102 98.8585 151.283 118.31 130.417C136.447 110.822 160.107 96.6175 185.954 89.8906C208.565 83.9812 232.876 83.8376 255.575 89.4598ZM118.454 272.919C139.153 272.267 159.82 275.735 179.327 282.606C184.54 284.528 189.533 286.704 195.001 287.841C213.613 292.105 233.705 292.955 252.394 288.714C263.12 286.571 274.254 289.564 282.836 296.247C288.359 300.599 291.739 306.509 294.556 312.827C312.306 297.749 325.318 277.348 331.15 254.77C335.723 237.451 336.055 219.059 332.089 201.596C327.119 179.173 314.968 158.385 298.057 142.888C282.24 128.385 262.347 118.444 241.183 114.755C222.891 111.452 203.87 112.921 186.241 118.731C165.078 125.734 146.101 139.077 132.416 156.673C119.58 173.109 111.351 193.047 109.098 213.791C106.734 233.971 110.258 254.384 118.454 272.919ZM71.1448 309.966C93.159 340.673 124.739 364.156 160.317 376.76C191.676 387.916 225.995 390.302 258.591 383.575C305.546 374.142 348.006 345.677 374.825 306.023C370.65 302.676 366.243 300.345 360.709 300.831C355.606 301.14 351.574 303.637 348.47 307.58C319.685 342.739 275.778 364.642 230.435 366.852C224.736 367.161 219.158 364.223 216.805 358.921C214.032 353.144 215.7 346.085 220.726 342.153C223.565 339.767 226.834 339.348 230.391 339.005C242.431 338.122 254.349 335.194 265.472 330.522C270.034 329.097 269.04 322.006 266.356 319.244C263.694 316.096 260.911 315.61 256.956 316.428C231.496 321.089 205.008 319.83 180.144 312.584C171.65 310.364 163.863 306.387 155.324 304.377C127.533 297.694 97.8092 299.671 71.1448 309.966Z" fill="#F0B429"/>
<path d="M11.7406 213.757C15.3636 213.282 19.1191 213.547 22.7753 213.525C37.1568 213.536 51.4942 213.558 65.8647 213.492C67.9965 213.68 71.001 213.183 71.255 216.099C71.4428 223.323 71.6416 230.768 71.1446 237.969C70.758 240.311 68.825 239.781 67.0245 240.057C50.1024 240.079 33.081 239.991 16.1147 240.09C14.1044 239.781 11.1883 240.654 10.3267 238.212C9.78548 234.567 10.0948 230.757 10.0506 227.078C10.0948 223.411 9.79654 219.622 10.2825 215.988C10.3599 215.127 10.8459 214.376 11.7406 213.757Z" fill="#F0B429"/>
<path d="M233.578 16.7416C234.067 20.3628 233.816 24.1194 233.851 27.7754C233.894 42.1569 233.925 56.4942 234.045 70.8644C233.865 72.9969 234.373 75.9995 231.458 76.2644C224.235 76.4791 216.791 76.7056 209.587 76.2354C207.244 75.8575 207.767 73.9225 207.484 72.1231C207.399 55.2012 207.424 38.1795 207.262 21.2138C207.564 19.2023 206.68 16.2895 209.118 15.4188C212.761 14.864 216.573 15.1591 220.251 15.1012C223.918 15.1318 227.706 14.8194 231.342 15.2919C232.204 15.366 232.956 15.8492 233.578 16.7416Z" fill="#F0B429"/>
<path d="M81.978 68.6574C84.8866 70.8691 87.3687 73.7 89.9822 76.2568C100.194 86.3837 110.366 96.4874 120.624 106.552C122.007 108.185 124.491 109.946 122.62 112.197C117.671 117.462 112.574 122.892 107.153 127.66C105.231 129.052 104.23 127.315 102.757 126.244C90.7166 114.353 78.6836 102.314 66.5578 90.4469C65.3469 88.8126 62.6608 87.3809 63.7662 85.04C65.9463 82.0691 68.8474 79.5789 71.4041 76.9341C74.0158 74.3593 76.4697 71.4573 79.372 69.217C80.0331 68.6592 80.907 68.4674 81.978 68.6574Z" fill="#F0B429"/>
<path d="M32.315 134.124C35.8414 135.081 39.2051 136.773 42.5876 138.161C55.8553 143.71 69.078 149.253 82.3652 154.727C84.2603 155.721 87.2244 156.42 86.3356 159.209C83.7265 165.948 81.0424 172.894 77.8098 179.349C76.551 181.361 74.9714 180.128 73.2035 179.689C57.5785 173.191 41.9044 166.554 26.2089 160.11C24.4728 159.051 21.4456 158.733 21.5907 156.148C22.4952 152.576 24.2484 149.178 25.6244 145.767C27.0777 142.4 28.2618 138.788 30.11 135.622C30.5132 134.856 31.251 134.351 32.315 134.124Z" fill="#F0B429"/>
<path d="M152.742 27.7647C154.553 30.9381 155.73 34.5144 157.135 37.8899C162.57 51.2047 167.978 64.4829 173.481 77.7582C174.115 79.8024 175.712 82.3949 173.11 83.7342C166.495 86.6434 159.68 89.6465 152.826 91.9134C150.512 92.4423 150.271 90.4525 149.334 88.8906C142.905 73.237 136.542 57.4495 130.026 41.7843C129.551 39.8065 127.639 37.438 129.572 35.7162C132.741 33.8351 136.385 32.6783 139.772 31.2447C143.183 29.897 146.577 28.1863 150.124 27.2601C150.951 27.0054 151.83 27.1708 152.742 27.7647Z" fill="#F0B429"/>
<path d="M430.764 212.653C427.141 212.178 423.386 212.443 419.73 212.421C405.348 212.432 391.011 212.454 376.64 212.388C374.508 212.576 371.504 212.079 371.25 214.995C371.062 222.219 370.863 229.664 371.36 236.865C371.747 239.207 373.68 238.677 375.48 238.953C392.402 238.975 409.424 238.887 426.39 238.986C428.401 238.677 431.317 239.55 432.178 237.108C432.719 233.463 432.41 229.653 432.454 225.974C432.41 222.307 432.708 218.518 432.222 214.884C432.145 214.023 431.659 213.272 430.764 212.653Z" fill="#F0B429"/>
<path d="M360.527 67.5525C357.618 69.7642 355.136 72.595 352.523 75.1518C342.311 85.2788 332.139 95.3825 321.881 105.447C320.498 107.08 318.013 108.841 319.885 111.092C324.834 116.357 329.931 121.787 335.352 126.555C337.274 127.947 338.275 126.21 339.748 125.139C351.788 113.248 363.821 101.209 375.947 89.3419C377.158 87.7076 379.844 86.2759 378.739 83.9351C376.559 80.9641 373.657 78.4739 371.101 75.8291C368.489 73.2544 366.035 70.3523 363.133 68.112C362.472 67.5542 361.598 67.3625 360.527 67.5525Z" fill="#F0B429"/>
<path d="M410.19 133.019C406.664 133.976 403.3 135.668 399.917 137.056C386.65 142.605 373.427 148.148 360.14 153.622C358.245 154.616 355.281 155.315 356.169 158.104C358.778 164.843 361.462 171.79 364.695 178.244C365.954 180.256 367.534 179.023 369.301 178.584C384.926 172.086 400.601 165.449 416.296 159.005C418.032 157.946 421.059 157.628 420.914 155.043C420.01 151.471 418.256 148.073 416.88 144.662C415.427 141.295 414.243 137.683 412.395 134.517C411.992 133.752 411.254 133.246 410.19 133.019Z" fill="#F0B429"/>
<path d="M289.763 26.6607C287.952 29.8341 286.775 33.4104 285.37 36.7859C279.935 50.1007 274.526 63.3789 269.024 76.6542C268.39 78.6984 266.792 81.2909 269.395 82.6302C276.01 85.5394 282.825 88.5425 289.679 90.8094C291.993 91.3383 292.234 89.3485 293.171 87.7866C299.599 72.133 305.963 56.3455 312.479 40.6802C312.954 38.7025 314.866 36.334 312.933 34.6122C309.764 32.7311 306.12 31.5743 302.733 30.1407C299.322 28.793 295.928 27.0823 292.381 26.1561C291.554 25.9014 290.675 26.0668 289.763 26.6607Z" fill="#F0B429"/>
</svg>
