<?xml version="1.0" standalone="no"?><!-- Generator: Gravit.io --><svg xmlns="http://www.w3.org/2000/svg" xmlns:xlink="http://www.w3.org/1999/xlink" style="isolation:isolate" viewBox="0 0 386 350.191" width="386px" height="350.191px"><defs><clipPath id="_clipPath_Pk9RJRdB6NNKwIh8bNbtMEDWNglrlS9M"><rect width="386" height="350.191"/></clipPath></defs><g clip-path="url(#_clipPath_Pk9RJRdB6NNKwIh8bNbtMEDWNglrlS9M)"><g><path d=" M 207.591 10.924 C 193.847 29.221 182.016 51.016 173.308 75.384 C 169.004 87.402 165.696 99.415 163.33 111.251 C 150.332 106.624 136.358 104.045 121.803 103.907 C 122.021 103.261 122.25 102.618 122.479 101.974 C 138.644 56.739 171.439 23.633 207.591 10.924 Z " fill="rgb(255,193,92)"/><path d=" M 207.513 10.982 C 197.568 14.977 187.836 20.198 179.078 26.535 C 170.257 32.852 162.347 40.331 155.122 48.382 C 147.938 56.48 141.64 65.345 136.154 74.683 C 130.701 84.045 126.173 93.932 122.416 104.114 L 121.808 103.258 C 128.901 103.416 135.98 104.142 142.946 105.423 C 149.92 106.693 156.753 108.62 163.429 110.964 L 163.032 111.193 C 164.818 102.143 167.008 93.17 169.644 84.318 C 172.27 75.461 175.489 66.784 179.181 58.313 C 182.952 49.878 187.107 41.604 191.842 33.672 C 196.539 25.764 201.795 17.984 207.513 10.982 Z  M 207.668 10.866 C 202.35 18.616 197.45 26.247 192.952 34.312 C 188.474 42.33 184.343 50.549 180.73 58.989 C 177.049 67.402 173.753 75.98 170.82 84.694 C 167.891 93.407 165.456 102.295 163.626 111.309 L 163.554 111.654 L 163.228 111.538 C 156.599 109.147 149.73 107.458 142.797 106.276 C 135.856 105.1 128.821 104.537 121.795 104.559 L 120.895 104.559 L 121.187 103.697 C 124.696 93.341 129.075 83.25 134.531 73.744 C 139.923 64.208 146.364 55.257 153.683 47.098 C 160.958 38.893 169.316 31.667 178.33 25.463 C 187.397 19.284 197.072 14.182 207.668 10.866 Z " fill="rgb(79,52,10)"/><path d=" M 79.373 63.225 C 74.801 78.984 71.786 96.074 70.623 114.023 C 58.194 119.31 46.774 126.511 36.735 135.263 C 44.027 105.508 59.262 80.158 79.373 63.225 Z " fill="rgb(255,193,92)"/><path d=" M 79.323 63.305 C 74.32 68.081 69.359 73.308 65.057 78.846 C 60.665 84.365 56.808 90.276 53.268 96.361 C 46.324 108.609 40.957 121.746 37.296 135.404 L 36.354 134.824 C 41.509 130.512 46.998 126.61 52.691 123.063 C 58.365 119.495 64.27 116.268 70.383 113.457 L 70.008 113.985 C 70.165 109.669 70.477 105.359 70.971 101.072 C 71.402 96.773 72.131 92.51 72.871 88.258 C 73.616 84.006 74.549 79.788 75.615 75.605 C 76.675 71.466 77.857 67.173 79.323 63.305 Z  M 79.425 63.145 L 76.667 75.845 C 75.819 80.055 75.079 84.282 74.375 88.515 C 73.671 92.747 73.174 97.01 72.611 101.262 C 72.106 105.522 71.645 109.788 71.242 114.065 L 71.203 114.459 L 70.866 114.592 C 64.657 117.022 58.66 120.012 52.995 123.554 C 47.346 127.116 42.05 131.221 37.116 135.702 L 35.758 136.936 L 36.17 135.125 C 39.306 121.254 44.339 107.703 51.587 95.39 C 55.151 89.2 59.334 83.374 63.933 77.924 C 68.613 72.499 73.589 67.521 79.425 63.145 Z " fill="rgb(79,52,10)"/><path d=" M 301.692 66.795 C 282.302 80.765 262.867 99.018 244.775 121.03 C 236.18 131.475 228.328 142.246 221.243 153.157 C 213.563 143.297 204.471 134.595 194.269 127.353 C 227.395 88.402 267.669 67.035 301.692 66.795 Z " fill="rgb(255,193,92)"/><path d=" M 301.601 66.825 C 291.217 67.396 280.689 69.52 270.797 72.987 C 260.846 76.433 251.437 81.256 242.464 86.72 C 224.543 97.767 208.731 111.994 194.794 127.8 L 194.672 126.79 C 204.808 134.192 213.888 143.016 221.503 152.955 L 220.97 152.98 C 226.423 144.717 232.072 136.588 238.013 128.662 C 243.949 120.732 250.244 113.062 256.953 105.76 C 263.679 98.474 270.764 91.519 278.193 84.959 C 285.615 78.449 293.492 72.189 301.601 66.825 Z  M 301.78 66.767 C 293.864 72.998 286.357 79.213 279.093 85.956 C 271.816 92.62 264.863 99.633 258.188 106.897 C 251.501 114.147 245.015 121.594 238.833 129.297 C 232.654 137 226.834 145.006 221.52 153.336 L 221.274 153.725 L 220.984 153.361 C 213.253 143.596 204.095 134.973 193.869 127.916 L 193.253 127.491 L 193.745 126.903 C 207.339 110.649 223.253 96.121 241.465 85.075 C 250.54 79.531 260.28 75.058 270.388 71.773 C 280.532 68.526 290.993 66.505 301.78 66.767 Z " fill="rgb(79,52,10)"/><path d=" M 374.912 175.857 C 351.019 175.857 254.182 215.604 247.367 217.713 C 245.465 199.921 239.896 183.221 231.44 168.386 C 237.03 166.448 242.746 164.697 248.56 163.162 C 299.696 149.648 346.463 155.661 374.912 175.857 Z " fill="rgb(255,193,92)"/><path d=" M 374.821 175.827 C 364.536 169.253 352.976 164.2 341.013 161.324 C 329.039 158.325 316.695 157.083 304.378 156.901 C 292.048 156.721 279.723 157.93 267.555 159.965 L 258.464 161.713 L 249.455 163.842 L 231.672 169.051 L 232.055 168.033 C 240.559 183.325 245.932 200.322 247.652 217.68 L 247.285 217.44 C 257.757 213.549 268.152 209.273 278.574 205.148 C 288.989 200.984 299.469 196.984 310.027 193.19 C 320.612 189.471 331.22 185.805 341.99 182.621 C 344.674 181.799 347.38 181.045 350.094 180.324 C 352.799 179.573 355.508 178.839 358.258 178.243 C 360.991 177.599 363.738 177.011 366.527 176.608 C 369.34 176.006 371.966 175.984 374.821 175.827 Z  M 375 175.885 C 372.272 176.208 369.288 176.473 366.621 177.135 C 363.874 177.652 361.165 178.348 358.47 179.104 C 355.756 179.772 353.07 180.565 350.392 181.382 C 347.708 182.166 345.03 182.98 342.377 183.872 C 331.711 187.271 321.126 190.954 310.601 194.794 L 278.986 206.233 L 247.453 217.986 L 247.124 218.108 L 247.083 217.743 C 245.126 200.493 239.576 183.671 230.827 168.737 L 230.379 167.975 L 231.208 167.715 C 237.141 165.874 243.044 163.911 249.013 162.157 L 258.074 159.929 L 267.224 158.079 C 279.472 155.843 291.946 154.788 304.403 154.982 C 316.863 155.169 329.309 156.867 341.336 160.095 C 353.396 163.287 364.87 168.4 375 175.885 Z " fill="rgb(79,52,10)"/><path d=" M 331.513 322.607 C 317.084 310.732 238.855 286.615 233.693 284.503 C 241.385 272.813 246.321 259.961 248.585 246.797 C 252.922 248.406 257.246 250.19 261.52 252.153 C 299.116 269.4 324.37 296.273 331.513 322.607 Z " fill="rgb(255,193,92)"/><path d=" M 331.463 322.524 C 328.442 313.506 323.964 304.71 318.152 297.062 C 312.401 289.326 305.54 282.487 298.205 276.267 C 290.858 270.038 282.815 264.668 274.477 259.839 L 268.132 256.374 L 261.641 253.177 L 248.342 247.462 L 249.283 246.918 C 246.774 260.392 241.55 273.327 233.933 284.657 L 233.803 284.235 C 242.055 287.079 250.468 289.649 258.82 292.3 C 267.194 294.923 275.515 297.703 283.779 300.654 C 292.017 303.683 300.248 306.742 308.326 310.199 C 310.353 311.041 312.36 311.938 314.356 312.858 C 316.358 313.758 318.359 314.666 320.314 315.682 C 322.28 316.662 324.226 317.687 326.107 318.841 C 328.111 319.89 329.663 321.179 331.463 322.524 Z  M 331.565 322.684 C 329.757 321.546 327.777 320.218 325.844 319.31 C 323.926 318.266 321.94 317.352 319.93 316.483 C 317.954 315.547 315.941 314.696 313.917 313.865 C 311.902 313.012 309.881 312.181 307.829 311.408 C 299.69 308.189 291.473 305.155 283.204 302.258 L 258.455 293.399 L 233.585 284.765 L 233.256 284.649 L 233.455 284.343 C 240.819 272.946 245.799 260.033 247.889 246.675 L 248.025 245.806 L 248.834 246.134 C 253.339 247.956 257.895 249.69 262.376 251.595 L 268.963 254.748 L 275.421 258.175 C 283.95 262.896 292.006 268.484 299.444 274.801 C 306.888 281.115 313.536 288.371 319.185 296.32 C 324.867 304.274 329.24 313.062 331.565 322.684 Z " fill="rgb(79,52,10)"/><path d=" M 228.53 231.473 C 228.53 291.121 180.172 339.476 120.524 339.476 C 60.877 339.476 12.525 291.121 12.525 231.473 C 12.525 171.826 60.877 123.471 120.524 123.471 C 180.172 123.471 228.53 171.826 228.53 231.473 Z " fill="rgb(255,193,92)"/><path d=" M 228.433 231.473 C 228.35 217.351 225.564 203.235 220.056 190.244 C 214.559 177.26 206.478 165.407 196.478 155.523 C 176.467 135.68 148.57 124.404 120.524 124.449 C 92.468 124.418 64.638 135.848 44.786 155.735 C 34.869 165.644 26.857 177.475 21.421 190.424 C 15.973 203.364 13.138 217.398 13.041 231.473 C 12.892 259.616 24.231 287.791 44.411 307.59 C 54.428 317.504 66.385 325.425 79.406 330.746 C 92.421 336.08 106.477 338.791 120.524 338.758 C 148.653 338.67 176.442 327.22 196.472 307.421 C 206.497 297.557 214.573 285.696 220.073 272.708 C 225.578 259.715 228.356 245.596 228.433 231.473 Z  M 228.621 231.473 C 228.742 259.803 217.337 288.009 197.314 308.263 C 187.356 318.418 175.304 326.508 162.168 332.007 C 149.031 337.54 134.746 340.196 120.524 340.191 C 106.295 340.111 92.087 337.262 78.989 331.751 C 65.883 326.265 53.895 318.164 43.903 308.095 C 33.958 297.987 25.885 286.032 20.407 272.946 C 14.921 259.861 12.08 245.681 12.003 231.473 C 11.782 203.033 23.287 174.637 43.525 154.474 C 53.591 144.38 65.648 136.271 78.821 130.788 C 91.982 125.277 106.264 122.519 120.524 122.494 C 134.782 122.554 149.067 125.302 162.195 130.879 C 175.329 136.42 187.323 144.57 197.312 154.686 C 217.373 174.913 228.748 203.152 228.621 231.473 Z " fill="rgb(79,52,10)"/><path d=" M 98.423 177.79 C 98.423 179.306 98.288 180.788 98.028 182.235 C 79.834 182.528 63.332 185.275 50.83 189.62 C 48.955 186.089 47.892 182.067 47.892 177.79 C 47.892 163.839 59.207 152.527 73.158 152.527 C 87.106 152.527 98.423 163.839 98.423 177.79 Z " fill="rgb(255,239,213)"/><path d=" M 98.324 177.79 C 98.293 170.128 94.243 162.809 88.21 158.532 C 85.22 156.359 81.802 154.822 78.219 154.035 C 74.621 153.262 70.866 153.427 67.302 154.247 C 60.115 155.882 53.886 161.031 50.656 167.748 C 47.36 174.427 47.387 182.862 51.137 189.458 L 50.717 189.292 C 54.497 187.958 58.315 186.691 62.208 185.692 C 66.087 184.64 70.046 183.908 74.014 183.295 C 78.001 182.776 82.001 182.39 86.01 182.271 C 90.019 182.089 94.025 182.141 98.026 182.08 L 97.876 182.21 L 98.324 177.79 Z  M 98.514 177.79 L 98.18 182.263 L 98.172 182.39 L 98.031 182.392 C 94.036 182.47 90.055 182.892 86.093 183.331 C 82.136 183.836 78.185 184.322 74.262 184.968 C 70.322 185.52 66.413 186.238 62.506 186.989 C 58.613 187.79 54.72 188.673 50.943 189.946 L 50.656 190.043 L 50.524 189.781 C 47.009 182.895 46.495 174.499 49.541 167.249 C 51.034 163.629 53.425 160.379 56.391 157.773 C 59.383 155.197 62.995 153.347 66.832 152.348 C 74.502 150.346 83.152 152.149 89.193 157.276 C 95.325 162.32 98.545 170.164 98.514 177.79 Z " fill="rgb(79,52,10)"/><path d=" M 162.212 182.842 C 162.212 186.473 161.442 189.927 160.058 193.05 C 148.493 187.428 131.325 183.519 111.689 182.483 C 111.88 168.693 123.117 157.58 136.949 157.58 C 150.897 157.58 162.212 168.891 162.212 182.842 Z " fill="rgb(255,239,213)"/><path d=" M 162.118 182.842 C 162.093 176.252 159.103 169.855 154.357 165.556 C 149.702 161.18 143.465 158.568 137.12 158.585 C 130.787 158.505 124.467 160.948 119.832 165.352 C 115.176 169.7 112.142 175.948 112.018 182.486 L 111.709 182.155 C 119.994 182.765 128.302 183.361 136.541 184.758 C 140.641 185.534 144.719 186.481 148.68 187.834 C 152.659 189.121 156.497 190.838 160.196 192.762 L 159.766 192.92 C 161.339 189.822 162.052 186.321 162.118 182.842 Z  M 162.306 182.842 C 162.377 186.368 161.621 189.869 160.348 193.177 L 160.235 193.475 L 159.918 193.334 C 156.132 191.666 152.176 190.463 148.231 189.292 C 144.257 188.19 140.271 187.147 136.231 186.282 C 128.192 184.411 119.958 183.11 111.673 182.809 L 111.364 182.798 L 111.364 182.478 C 111.38 175.83 113.901 169.051 118.73 164.231 C 123.481 159.374 130.287 156.528 137.134 156.591 C 143.981 156.597 150.804 159.507 155.387 164.535 C 159.973 169.557 162.369 176.244 162.306 182.842 Z " fill="rgb(79,52,10)"/><path d=" M 81.998 177.79 C 81.998 182.674 78.039 186.633 73.158 186.633 C 68.271 186.633 64.314 182.674 64.314 177.79 C 64.314 172.906 68.271 168.947 73.158 168.947 C 78.039 168.947 81.998 172.906 81.998 177.79 Z " fill="rgb(0,0,0)"/><path d=" M 144.21 181.263 C 144.21 186.147 140.251 190.106 135.367 190.106 C 130.486 190.106 126.529 186.147 126.529 181.263 C 126.529 176.379 130.486 172.42 135.367 172.42 C 140.251 172.42 144.21 176.379 144.21 181.263 Z " fill="rgb(0,0,0)"/><path d=" M 115.312 259.516 C 110.328 262.943 104.296 264.95 97.788 264.95 C 80.698 264.95 66.841 251.093 66.841 234.002 C 66.841 216.91 80.698 203.055 97.788 203.055 C 107.62 203.055 116.38 207.638 122.048 214.784" fill="rgb(255,193,92)"/><path d=" M 115.364 259.594 C 110.613 263.302 104.588 265.436 98.465 265.662 C 92.357 265.833 86.104 264.282 80.969 260.875 C 70.645 254.05 65.195 241.388 66.708 229.32 C 67.992 217.133 77.506 206.156 89.585 203.179 C 95.552 201.556 101.996 201.854 107.766 203.928 C 113.564 205.965 118.611 209.847 122.12 214.726 L 121.974 214.842 C 118.017 210.366 112.902 207.017 107.3 205.336 C 101.722 203.585 95.67 203.569 90.088 205.068 C 87.283 205.8 84.602 206.973 82.136 208.491 C 79.646 209.969 77.349 211.805 75.419 213.977 C 73.464 216.123 71.747 218.519 70.491 221.159 C 69.204 223.77 68.196 226.562 67.733 229.472 C 67.202 232.365 67.089 235.361 67.509 238.293 C 67.827 241.239 68.721 244.113 69.991 246.783 C 72.487 252.172 76.802 256.587 81.805 259.547 C 86.777 262.592 92.586 264.207 98.434 264.21 C 104.287 264.218 110.146 262.542 115.257 259.436 L 115.364 259.594 Z " fill="rgb(79,52,10)"/><path d=" M 77.451 263.103 C 90.436 268.326 105.121 269.224 118.647 265.621 C 132.173 262.015 144.462 253.931 153.128 242.94 C 158.786 257.584 151.831 274.826 140.017 285.163 C 128.205 295.502 112.521 300.185 97.117 303.211 C 94.804 299.771 96.419 294.994 99.019 291.764 C 101.615 288.534 105.118 286.024 107.2 282.443 C 109.287 278.859 109.285 273.451 105.704 271.361" fill="rgb(255,239,213)"/><path d=" M 77.484 263.017 C 84.061 265.392 90.969 266.711 97.888 267.034 C 104.806 267.324 111.769 266.653 118.426 264.806 C 125.102 263.037 131.494 260.204 137.372 256.54 C 143.252 252.865 148.559 248.213 152.894 242.755 L 153.222 242.343 L 153.41 242.832 C 156.287 250.262 155.969 258.63 153.498 266.137 C 150.997 273.669 146.48 280.533 140.53 285.864 C 134.558 291.143 127.501 295.097 120.11 297.921 C 112.703 300.723 105.025 302.686 97.286 304.067 L 96.7 304.172 L 96.394 303.697 C 95.422 302.211 95.066 300.406 95.218 298.73 C 95.364 297.043 95.919 295.464 96.667 294.02 C 98.177 291.071 100.679 288.998 102.852 286.861 C 105.027 284.732 107.192 282.46 107.951 279.539 C 108.744 276.745 108.357 273.136 105.654 271.444 L 105.753 271.281 C 107.145 272.043 108.147 273.431 108.575 274.972 C 109.02 276.51 109.003 278.15 108.68 279.715 C 108.045 282.937 105.773 285.447 103.685 287.686 C 101.557 289.947 99.285 292.057 98.006 294.704 C 96.711 297.289 96.261 300.494 97.838 302.725 L 96.946 302.355 C 104.577 300.715 112.17 298.898 119.398 296.063 C 126.607 293.261 133.548 289.619 139.39 284.561 C 145.227 279.569 149.868 273.075 152.521 265.8 C 155.21 258.58 155.713 250.322 152.85 243.05 L 153.366 243.127 C 149.034 248.663 143.86 253.553 138.051 257.564 C 132.242 261.59 125.715 264.605 118.865 266.438 C 111.996 268.194 104.853 268.879 97.805 268.313 C 90.759 267.783 83.826 266.043 77.415 263.194 L 77.484 263.017 Z " fill="rgb(79,52,10)"/></g></g></svg>