<svg width="120" height="75" viewBox="0 0 120 75" fill="none" xmlns="http://www.w3.org/2000/svg">
<g clip-path="url(#clip0)">
<path d="M0.92925 1.70966L23.146 1.67179C33.2697 1.65453 40.6127 3.09059 45.1749 5.97995C49.7696 8.83671 52.0723 13.4064 52.083 19.6889C52.0903 23.9532 51.0871 27.4543 49.0736 30.1921C47.0926 32.9298 44.4424 34.5782 41.123 35.1373L41.1238 35.6256C45.6503 36.627 48.9087 38.5094 50.8991 41.273C52.922 44.0365 53.9374 47.7131 53.9453 52.303C53.9563 58.8134 51.605 63.8955 46.8911 67.5494C42.2099 71.2032 35.8328 73.037 27.7599 73.0507L1.05093 73.0963L0.92925 1.70966ZM16.1141 29.9553L24.9032 29.9403C29.0047 29.9333 31.9659 29.2935 33.7866 28.0209C35.6399 26.7482 36.5641 24.647 36.5591 21.7173C36.5544 18.9829 35.542 17.0315 33.5218 15.8631C31.5341 14.6621 28.3755 14.0652 24.0461 14.0726L16.0871 14.0862L16.1141 29.9553ZM16.1346 41.967L16.1663 60.5705L26.0296 60.5537C30.1962 60.5466 33.2711 59.7438 35.254 58.1454C37.237 56.5469 38.2256 54.1038 38.22 50.8161C38.2099 44.8916 33.9731 41.9366 25.5096 41.951L16.1346 41.967ZM98.4586 13.1157C92.762 13.1254 88.3549 15.2814 85.2372 19.5836C82.1195 23.8532 80.5671 29.8129 80.5802 37.4626C80.6073 53.3806 86.5941 61.3294 98.5407 61.309C103.554 61.3004 109.623 60.0368 116.747 57.5182L116.769 70.2135C110.914 72.6649 104.373 73.8967 97.1462 73.909C86.7621 73.9267 78.8141 70.799 73.3021 64.5258C67.79 58.2201 65.0239 49.1753 65.0038 37.3915C64.9912 29.9696 66.331 23.4732 69.0234 17.9022C71.7156 12.2987 75.582 8.01146 80.6225 5.04062C85.6956 2.03718 91.6338 0.529661 98.4371 0.518065C105.371 0.506246 112.34 2.1708 119.344 5.51173L114.482 17.8247C111.811 16.5597 109.123 15.4576 106.42 14.5182C103.717 13.5787 101.063 13.1113 98.4586 13.1157Z" fill="#FFC15C"/>
</g>
<defs>
<clipPath id="clip0">
<rect width="120" height="75" fill="white"/>
</clipPath>
</defs>
</svg>
