<?xml version="1.0" encoding="utf-8"?>
<!-- Generator: Adobe Illustrator 23.0.0, SVG Export Plug-In . SVG Version: 6.00 Build 0)  -->
<svg version="1.1" id="Layer_1" xmlns="http://www.w3.org/2000/svg" xmlns:xlink="http://www.w3.org/1999/xlink" x="0px" y="0px"
	 viewBox="0 0 2350 450" style="enable-background:new 0 0 2350 450;" xml:space="preserve">
<style type="text/css">
	.st0{fill:#8C2A0B;}
	.st1{fill:#F6C84B;}
	.st2{fill:#FEF2C4;}
	.st3{fill:#102942;}
</style>
<g>
	<path class="st0" d="M142.29,189.27c22.59,0,36.14,9.97,36.14,25.7c0,10.59-6.08,19.32-15.27,23.05
		c15.89,4.98,23.05,15.11,23.05,27.73c0,23.52-19.16,29.75-42.99,29.75H97.11V189.27H142.29z M123.91,233.35h11.37
		c11.37,0,17.6-3.89,17.6-14.02c0-9.35-5.14-13.55-16.51-13.55h-12.46V233.35z M137.93,278.99c13.86,0,21.34-4.52,21.34-14.49
		c0-9.81-7.17-14.8-21.34-14.8h-14.02v29.29H137.93z"/>
	<path class="st0" d="M279.68,189.27v19h-45.95v23.37h43.93v19h-43.93v25.86h47.2v19h-73.99V189.27H279.68z"/>
	<path class="st0" d="M321.12,189.27l25.39,34.43l25.7-34.43h28.97l-40.66,55.3v50.94h-26.79v-50.47l-41.28-55.77H321.12z"/>
	<path class="st0" d="M520.67,242.39c0,29.75-21.19,54.52-59.2,54.52c-38.32,0-58.73-25.55-58.73-54.37
		c0-26.33,17.6-54.68,59.2-54.68C498.55,187.86,520.67,211.85,520.67,242.39z M430.16,242.54c0,18.38,12.93,31,31.31,31
		c18.69,0,31.78-11.68,31.78-31.31c0-16.67-11.22-31-31.62-31C442.15,211.23,430.16,224.16,430.16,242.54z"/>
	<path class="st0" d="M565.68,189.27l59.66,66.2v-66.2h26.48v106.24h-23.83l-59.51-66.05v66.05h-26.33V189.27H565.68z"/>
	<path class="st0" d="M722.86,189.27c39.72,0,60.29,22.28,60.29,52.81c0,33.49-20.25,53.43-58.73,53.43h-46.42V189.27H722.86z
		 M721.77,276.04c22.74,0,33.96-11.68,33.96-33.49c0-21.81-12.31-34.27-34.89-34.27h-16.04v67.76H721.77z"/>
	<path class="st0" d="M947.64,196.12v24.61c-11.99-7.63-22.9-11.37-35.05-11.37c-23.99,0-36.45,15.89-36.45,33.49
		c0,17.6,13.08,32.56,35.83,32.56c12.77,0,24.77-4.05,36.3-11.68v23.83c-11.84,6.39-25.24,9.35-40.66,9.35
		c-37.07,0-58.88-23.83-58.88-54.52c0-33.65,25.24-54.52,59.35-54.52C920.38,187.86,933.31,190.2,947.64,196.12z"/>
	<path class="st0" d="M1084.1,242.39c0,29.75-21.19,54.52-59.2,54.52c-38.32,0-58.73-25.55-58.73-54.37
		c0-26.33,17.6-54.68,59.2-54.68C1061.98,187.86,1084.1,211.85,1084.1,242.39z M993.59,242.54c0,18.38,12.93,31,31.31,31
		c18.69,0,31.78-11.68,31.78-31.31c0-16.67-11.22-31-31.62-31C1005.58,211.23,993.59,224.16,993.59,242.54z"/>
	<path class="st0" d="M1130.05,189.27l33.34,40.97l33.34-40.97h24.3v106.24h-26.79v-67.92l-29.91,37.23h-2.49l-30.06-37.23v67.92
		h-26.17V189.27H1130.05z"/>
	<path class="st0" d="M1292.05,189.27c24.3,0,39.1,11.84,39.1,32.4c0,17.6-12,32.09-37.85,32.09h-19.32v41.75h-26.79V189.27H1292.05
		z M1273.98,235.53h13.4c11.84,0,16.36-5.3,16.36-13.86c0-9.97-5.3-14.18-17.45-14.18h-12.31V235.53z"/>
	<path class="st0" d="M1404.52,189.11l46.73,106.4h-27.42l-10.28-24.46h-45.64l-10.13,24.46h-27.42l46.27-106.4H1404.52z
		 M1374.92,253.91h31.62l-15.89-38.63L1374.92,253.91z"/>
	<path class="st0" d="M1530.23,196.28v22.74c-9.97-7.79-19.94-11.84-29.44-11.84c-8.57,0-12.62,4.05-12.62,9.35
		c0,4.98,2.96,8.26,16.04,14.95c17.6,9.04,30.38,16.67,30.38,34.58c0,18.54-15.27,30.84-37.08,30.84c-11.68,0-23.83-3.43-34.58-8.88
		v-23.99c11.37,9.04,21.65,12.77,31.16,12.77c9.5,0,13.71-4.67,13.71-9.66c0-5.3-2.03-8.72-19.16-17.14
		c-11.53-5.92-26.48-14.18-26.48-32.71c0-16.36,12.62-29.44,35.98-29.44C1510.29,187.86,1521.97,191.29,1530.23,196.28z"/>
	<path class="st0" d="M1620.42,196.28v22.74c-9.97-7.79-19.94-11.84-29.44-11.84c-8.57,0-12.62,4.05-12.62,9.35
		c0,4.98,2.96,8.26,16.04,14.95c17.6,9.04,30.38,16.67,30.38,34.58c0,18.54-15.27,30.84-37.08,30.84c-11.68,0-23.83-3.43-34.58-8.88
		v-23.99c11.37,9.04,21.65,12.77,31.16,12.77c9.5,0,13.71-4.67,13.71-9.66c0-5.3-2.03-8.72-19.16-17.14
		c-11.53-5.92-26.48-14.18-26.48-32.71c0-16.36,12.62-29.44,35.98-29.44C1600.48,187.86,1612.17,191.29,1620.42,196.28z"/>
	<path class="st0" d="M1673.23,189.27v106.24h-26.79V189.27H1673.23z"/>
	<path class="st0" d="M1812.65,242.39c0,29.75-21.19,54.52-59.2,54.52c-38.32,0-58.73-25.55-58.73-54.37
		c0-26.33,17.6-54.68,59.2-54.68C1790.53,187.86,1812.65,211.85,1812.65,242.39z M1722.14,242.54c0,18.38,12.93,31,31.31,31
		c18.69,0,31.78-11.68,31.78-31.31c0-16.67-11.22-31-31.62-31C1734.13,211.23,1722.14,224.16,1722.14,242.54z"/>
	<path class="st0" d="M1857.66,189.27l59.66,66.2v-66.2h26.48v106.24h-23.83l-59.51-66.05v66.05h-26.33V189.27H1857.66z"/>
</g>
<g>
	<g>
		<path class="st1" d="M2164.57,59c-11.99,15.96-22.3,34.97-29.9,56.22c-3.75,10.48-6.64,20.96-8.7,31.28
			c-11.34-4.04-23.52-6.28-36.22-6.41c0.19-0.56,0.39-1.12,0.59-1.69C2104.45,98.96,2133.04,70.08,2164.57,59z"/>
		<path class="st0" d="M2164.64,58.95l-3.4,5.07c-1.13,1.66-2.2,3.36-3.27,5.05c-2.16,3.38-4.2,6.83-6.16,10.33
			c-3.9,7-7.51,14.16-10.66,21.52c-3.21,7.34-6.08,14.82-8.64,22.42c-1.27,3.8-2.44,7.64-3.5,11.51c-1.05,3.87-1.95,7.78-2.77,11.71
			l-0.06,0.3l-0.28-0.1c-2.88-1.06-5.83-1.93-8.8-2.71c-2.97-0.76-5.98-1.43-9.01-1.92c-6.06-1-12.2-1.47-18.32-1.44l-0.82,0
			l0.26-0.79l0.57-1.7l0.63-1.67l1.26-3.35c0.79-2.25,1.8-4.42,2.74-6.61c0.49-1.09,0.94-2.2,1.47-3.27l1.61-3.2l1.62-3.2l1.77-3.11
			c4.72-8.3,10.28-16.15,16.69-23.25c6.38-7.12,13.62-13.47,21.48-18.9c0.99-0.66,1.94-1.39,2.98-1.99l3.07-1.85
			c2.01-1.29,4.18-2.31,6.28-3.43c0.53-0.27,1.05-0.57,1.59-0.81l1.64-0.72l3.27-1.43c1.06-0.5,2.29-0.87,3.43-1.28
			C2162.43,59.73,2163.55,59.36,2164.64,58.95z M2164.51,59.05c-1.12,0.46-2.22,0.94-3.28,1.41l-1.59,0.68
			c-0.53,0.21-1.06,0.44-1.59,0.72l-3.19,1.57l-1.59,0.79c-0.53,0.27-1.03,0.58-1.55,0.86c-2.05,1.18-4.16,2.26-6.11,3.6l-2.98,1.92
			c-1,0.62-1.92,1.38-2.89,2.06c-7.69,5.5-14.64,11.97-20.91,19.02c-6.24,7.08-11.79,14.77-16.56,22.93
			c-4.77,8.16-8.69,16.8-11.96,25.68l-0.55-0.78c6.19,0.15,12.36,0.8,18.43,1.95c3.03,0.59,6.05,1.24,9.03,2.05
			c2.98,0.79,5.92,1.75,8.84,2.75l-0.35,0.2c0.76-3.95,1.65-7.87,2.61-11.78c0.95-3.91,2-7.8,3.16-11.66
			c2.29-7.72,5.1-15.29,8.32-22.68c3.29-7.36,6.91-14.57,11.04-21.49c2.07-3.45,4.21-6.87,6.49-10.19c1.16-1.65,2.3-3.3,3.51-4.91
			c0.6-0.79,1.2-1.66,1.79-2.38C2163.23,60.62,2163.88,59.86,2164.51,59.05z"/>
	</g>
	<g>
		<path class="st1" d="M2052.75,104.61c-3.99,13.74-6.62,28.65-7.63,44.3c-10.84,4.61-20.8,10.89-29.56,18.52
			C2021.93,141.49,2035.21,119.38,2052.75,104.61z"/>
		<path class="st0" d="M2052.8,104.54c-0.21,0.86-0.36,1.87-0.61,2.83l-0.62,2.74l-1.17,5.5c-0.74,3.67-1.39,7.36-2,11.05
			c-0.61,3.69-1.04,7.41-1.54,11.12c-0.23,1.86-0.43,3.72-0.63,5.58c-0.21,1.86-0.4,3.72-0.57,5.59l-0.03,0.34l-0.29,0.12
			c-2.7,1.07-5.37,2.24-7.97,3.54c-2.59,1.33-5.14,2.73-7.61,4.28c-2.45,1.57-4.86,3.21-7.16,4.99c-2.3,1.78-4.53,3.65-6.68,5.61
			l-1.2,1.1l0.36-1.62c1.34-6.06,3.15-12.03,5.4-17.83c2.23-5.81,4.89-11.46,8.04-16.83c3.14-5.38,6.77-10.47,10.78-15.22
			c2.01-2.37,4.17-4.62,6.38-6.79c1.1-1.09,2.3-2.09,3.44-3.14C2050.32,106.45,2051.67,105.49,2052.8,104.54z M2052.71,104.68
			c-1.19,1.11-2.18,2.16-3.25,3.19c-1.07,1.12-2.15,2.21-3.2,3.34c-2.09,2.26-4.09,4.61-5.99,7.02c-3.83,4.81-7.21,9.96-10.26,15.29
			c-3.03,5.34-5.75,10.86-8.07,16.55c-2.31,5.7-4.24,11.55-5.87,17.49l-0.85-0.52c2.26-1.87,4.57-3.67,6.96-5.37
			c2.38-1.7,4.8-3.35,7.29-4.88c2.48-1.55,4.99-3.05,7.58-4.43c2.57-1.41,5.18-2.74,7.85-3.95l-0.33,0.46
			c0.08-1.88,0.18-3.76,0.3-5.64c0.15-1.88,0.33-3.75,0.53-5.62c0.38-3.75,1.01-7.47,1.66-11.17c0.65-3.71,1.46-7.39,2.39-11.04
			c0.46-1.82,0.95-3.64,1.49-5.44l0.82-2.7C2052.04,106.43,2052.4,105.63,2052.71,104.68z"/>
	</g>
	<g>
		<path class="st1" d="M2246.64,107.73c-16.91,12.18-33.86,28.1-49.64,47.3c-7.49,9.11-14.34,18.5-20.52,28.02
			c-6.7-8.6-14.63-16.19-23.53-22.51C2181.85,126.57,2216.97,107.94,2246.64,107.73z"/>
		<path class="st0" d="M2246.72,107.7l-2.55,2.06l-2.56,2.03c-1.69,1.34-3.34,2.72-4.98,4.11c-3.31,2.75-6.53,5.61-9.69,8.53
			c-6.35,5.81-12.41,11.93-18.23,18.26c-2.95,3.13-5.76,6.39-8.6,9.62c-2.83,3.25-5.59,6.55-8.28,9.91
			c-2.69,3.36-5.32,6.78-7.83,10.28c-2.52,3.5-4.97,7.04-7.29,10.68l-0.2,0.32l-0.24-0.3c-3.35-4.28-7.03-8.29-11.01-11.98
			c-3.96-3.71-8.22-7.09-12.67-10.18l-0.56-0.39l0.45-0.53c5.95-7.09,12.39-13.77,19.32-19.92c6.92-6.15,14.36-11.77,22.31-16.55
			c7.93-4.81,16.4-8.77,25.22-11.64C2228.19,109.22,2237.32,107.49,2246.72,107.7z M2246.56,107.75c-1.17,0.07-2.33,0.18-3.44,0.28
			c-1.11,0.1-2.21,0.14-3.36,0.34c-2.28,0.33-4.56,0.6-6.8,1.13l-3.37,0.69l-3.32,0.91c-1.1,0.32-2.22,0.56-3.3,0.96l-3.25,1.11
			c-8.67,3-16.91,7.14-24.72,11.94c-7.8,4.83-15.17,10.33-22.1,16.34c-6.93,6.03-13.39,12.58-19.46,19.49l-0.12-0.92
			c4.43,3.22,8.6,6.79,12.5,10.61c3.89,3.84,7.53,7.93,10.87,12.24l-0.44,0.02c2.38-3.6,4.77-7.19,7.25-10.73
			c2.49-3.52,5.01-7.03,7.6-10.49c2.59-3.46,5.27-6.85,8-10.2c2.75-3.33,5.6-6.59,8.52-9.78c2.92-3.19,5.95-6.28,9.04-9.3
			c3.1-3.02,6.22-6,9.49-8.84c3.26-2.84,6.57-5.62,9.97-8.28c1.71-1.32,3.43-2.63,5.18-3.89c0.87-0.62,1.76-1.3,2.6-1.87
			C2244.75,108.95,2245.66,108.39,2246.56,107.75z"/>
	</g>
	<g>
		<path class="st1" d="M2310.5,202.84c-20.84,0-105.29,34.66-111.23,36.5c-1.66-15.52-6.52-30.08-13.89-43.02
			c4.87-1.69,9.86-3.22,14.93-4.56C2244.9,179.98,2285.69,185.23,2310.5,202.84z"/>
		<path class="st0" d="M2310.58,202.87c-2.55,0.21-4.91,0.57-7.31,1.05c-2.39,0.51-4.75,1.08-7.11,1.72
			c-4.72,1.25-9.39,2.67-14.03,4.17c-9.3,2.99-18.53,6.19-27.71,9.53c-4.6,1.63-9.2,3.29-13.79,4.98l-13.78,5l-13.75,5.1
			c-4.58,1.73-9.11,3.53-13.75,5.16l-0.29,0.1l-0.03-0.31c-0.84-7.52-2.42-14.97-4.84-22.13c-2.4-7.17-5.53-14.09-9.34-20.61
			l-0.37-0.64l0.7-0.25c10.2-3.67,20.73-6.47,31.41-8.4c10.68-1.95,21.56-2.87,32.43-2.7c10.86,0.17,21.72,1.6,32.22,4.41l1.97,0.53
			l1.94,0.64l3.87,1.27c1.27,0.47,2.53,1,3.79,1.49c1.26,0.5,2.53,0.99,3.74,1.61l3.66,1.77c1.21,0.62,2.36,1.34,3.54,2
			C2306.11,199.57,2308.4,201.42,2310.58,202.87z M2310.42,202.82c-1.16-0.73-2.33-1.41-3.44-2.09c-0.57-0.33-1.09-0.7-1.69-1.02
			l-1.79-0.94c-1.2-0.61-2.37-1.28-3.59-1.85l-3.7-1.63c-1.21-0.58-2.48-1.03-3.75-1.49c-1.26-0.46-2.52-0.94-3.79-1.38l-3.87-1.15
			l-1.93-0.58l-1.96-0.47c-10.43-2.62-21.19-3.76-31.94-3.91c-10.76-0.16-21.51,0.9-32.12,2.67l-7.93,1.53l-7.86,1.86
			c-5.22,1.32-10.4,2.83-15.5,4.54l0.33-0.89c3.71,6.67,6.74,13.71,9,20.98c2.24,7.28,3.83,14.75,4.6,22.32l-0.32-0.21
			c9.13-3.39,18.2-7.13,27.29-10.72c4.55-1.8,9.1-3.59,13.67-5.34c4.58-1.72,9.17-3.42,13.76-5.09c9.23-3.24,18.49-6.43,27.88-9.22
			c4.69-1.39,9.41-2.71,14.18-3.84c2.39-0.55,4.79-1.04,7.21-1.46C2305.59,203.08,2308.08,202.68,2310.42,202.82z"/>
	</g>
	<g>
		<path class="st1" d="M2272.65,330.83c-12.58-10.36-80.81-31.39-85.31-33.23c6.71-10.19,11.01-21.4,12.99-32.88
			c3.78,1.4,7.55,2.96,11.28,4.67C2244.4,284.43,2266.42,307.86,2272.65,330.83z"/>
		<path class="st0" d="M2272.7,330.9c-1.69-1.13-3.28-2.07-4.97-2.97c-1.7-0.87-3.42-1.69-5.16-2.46c-3.47-1.58-7-3.03-10.56-4.42
			c-7.11-2.79-14.27-5.45-21.48-7.97l-21.59-7.72l-10.82-3.79c-3.62-1.24-7.25-2.4-10.86-3.73l-0.28-0.1l0.17-0.26
			c3.22-4.96,5.97-10.24,8.04-15.78c2.11-5.52,3.59-11.26,4.52-17.08l0.12-0.76l0.73,0.26c7.99,2.86,15.75,6.39,23.18,10.52
			c7.42,4.14,14.5,8.94,20.96,14.49c6.47,5.53,12.32,11.81,17.25,18.75l0.92,1.3l0.85,1.35l1.7,2.7c0.53,0.92,1.02,1.87,1.54,2.8
			c0.51,0.93,1.03,1.86,1.45,2.84l1.32,2.9c0.42,0.98,0.75,1.99,1.13,2.98C2271.66,326.64,2272.12,328.95,2272.7,330.9z
			 M2272.61,330.76c-0.34-1.02-0.72-2.01-1.07-2.96c-0.18-0.48-0.32-0.95-0.52-1.44l-0.62-1.45c-0.42-0.96-0.8-1.95-1.26-2.89
			l-1.43-2.81c-0.45-0.95-0.99-1.85-1.53-2.75c-0.54-0.9-1.06-1.82-1.61-2.71l-1.77-2.61l-0.88-1.3l-0.96-1.25
			c-5.01-6.75-10.94-12.76-17.36-18.16c-6.44-5.39-13.4-10.14-20.69-14.34l-5.54-3.02l-5.66-2.79c-3.8-1.8-7.67-3.46-11.61-4.96
			l0.86-0.49c-1.08,5.88-2.82,11.63-5.07,17.15c-2.28,5.5-5.04,10.81-8.34,15.77l-0.11-0.37c7.2,2.48,14.54,4.72,21.82,7.03
			l10.92,3.53l10.85,3.75c7.18,2.64,14.36,5.32,21.41,8.32c3.52,1.5,7.02,3.07,10.46,4.77c1.71,0.87,3.4,1.77,5.07,2.73
			C2269.59,328.5,2271.3,329.49,2272.61,330.76z"/>
	</g>
	<g>
		<circle class="st1" cx="2088.64" cy="251.35" r="94.19"/>
		<g>
			<path class="st0" d="M2182.92,251.35c0.04,12.35-2.38,24.69-7.04,36.13c-4.64,11.46-11.57,22-20.26,30.84
				c-8.68,8.86-19.19,15.93-30.65,20.72c-11.46,4.83-23.91,7.19-36.32,7.18c-12.42-0.06-24.81-2.59-36.23-7.42
				c-11.41-4.82-21.85-11.9-30.58-20.65c-8.7-8.79-15.75-19.22-20.53-30.63c-4.79-11.41-7.27-23.78-7.31-36.17
				c-0.06-12.39,2.32-24.8,7.03-36.29c4.69-11.49,11.68-22.06,20.46-30.86c8.77-8.81,19.29-15.89,30.77-20.67
				c11.48-4.81,23.94-7.21,36.38-7.22c12.44,0.03,24.89,2.44,36.35,7.29c11.46,4.82,21.96,11.91,30.64,20.77
				c8.69,8.85,15.62,19.39,20.26,30.85C2180.55,226.66,2182.96,239,2182.92,251.35z M2182.75,251.35
				c-0.06-12.32-2.48-24.63-7.29-35.96c-4.8-11.33-11.85-21.67-20.6-30.26c-8.76-8.57-19.14-15.47-30.47-20.09
				c-11.32-4.62-23.52-7.05-35.75-7.03c-12.23,0.01-24.42,2.45-35.72,7.1c-11.3,4.65-21.67,11.55-30.33,20.18
				c-8.66,8.64-15.65,18.95-20.39,30.25c-4.76,11.29-7.23,23.53-7.29,35.81c-0.04,12.27,2.33,24.56,7.01,35.92
				c4.65,11.37,11.59,21.82,20.33,30.48c4.36,4.33,9.14,8.24,14.26,11.64c5.13,3.38,10.58,6.26,16.27,8.57
				c11.36,4.64,23.63,6.95,35.87,6.9c12.25-0.01,24.46-2.5,35.77-7.14c11.33-4.63,21.7-11.56,30.46-20.13
				c8.75-8.6,15.8-18.94,20.6-30.27C2180.28,275.98,2182.7,263.67,2182.75,251.35z"/>
		</g>
	</g>
	<g>
		<path class="st2" d="M2069.36,204.53c0,1.32-0.12,2.62-0.34,3.88c-15.87,0.25-30.26,2.65-41.16,6.44
			c-1.64-3.08-2.56-6.59-2.56-10.32c0-12.17,9.87-22.03,22.03-22.03C2059.5,182.5,2069.36,192.36,2069.36,204.53z"/>
		<g>
			<path class="st0" d="M2069.45,204.53c0.01,1.3-0.1,2.61-0.31,3.9l-0.01,0.09l-0.09,0c-3.48,0.11-6.96,0.45-10.41,0.84
				c-3.45,0.42-6.89,0.91-10.32,1.43c-3.43,0.51-6.85,1.1-10.25,1.76c-3.4,0.69-6.79,1.48-10.09,2.57l-0.24,0.08l-0.11-0.22
				c-3.09-5.99-3.52-13.33-0.87-19.65c1.3-3.16,3.39-5.99,5.97-8.26c2.61-2.25,5.76-3.86,9.11-4.73c3.35-0.87,6.91-0.96,10.29-0.21
				c3.38,0.76,6.58,2.29,9.22,4.5c2.67,2.18,4.7,5.04,6.07,8.12C2068.74,197.84,2069.45,201.18,2069.45,204.53z M2069.28,204.53
				c0-6.69-3.57-13.07-8.83-16.79c-2.61-1.89-5.58-3.26-8.71-3.91c-3.14-0.65-6.41-0.57-9.52,0.16c-3.11,0.74-6.07,2.17-8.56,4.22
				c-2.5,2.04-4.52,4.64-5.96,7.55c-1.45,2.91-2.12,6.21-2.1,9.49c0.07,3.28,0.9,6.57,2.51,9.45l-0.35-0.14
				c6.57-2.4,13.37-4.27,20.32-5.25c3.47-0.5,6.97-0.77,10.46-0.89c3.5-0.15,6.99-0.13,10.48-0.14l-0.11,0.09
				C2069.16,207.12,2069.27,205.82,2069.28,204.53z"/>
		</g>
	</g>
	<g>
		<path class="st2" d="M2125,208.94c0,3.17-0.67,6.18-1.88,8.9c-10.09-4.9-25.06-8.31-42.18-9.22c0.17-12.02,9.96-21.72,22.03-21.72
			C2115.13,186.9,2125,196.77,2125,208.94z"/>
		<g>
			<path class="st0" d="M2125.08,208.94c0.02,1.53-0.16,3.06-0.43,4.58c-0.29,1.51-0.71,3-1.28,4.44l-0.1,0.26l-0.27-0.12
				c-3.3-1.45-6.75-2.52-10.2-3.51c-3.45-0.99-6.94-1.85-10.46-2.64c-3.51-0.82-7.06-1.49-10.63-2.04
				c-3.57-0.53-7.18-0.84-10.79-0.99l-0.27-0.01l0-0.28c0.01-5.8,2.21-11.71,6.43-15.91c4.14-4.24,10.08-6.71,16.05-6.67
				c5.97-0.02,11.94,2.55,15.92,6.94c1.99,2.19,3.53,4.74,4.54,7.47C2124.56,203.17,2125.1,206.05,2125.08,208.94z M2124.91,208.94
				c0.02-5.76-2.65-11.32-6.77-15.08c-4.07-3.81-9.5-6.06-15.03-6.07c-2.76-0.01-5.52,0.45-8.1,1.47c-2.58,1-4.95,2.53-6.98,4.42
				c-2.02,1.91-3.7,4.2-4.89,6.75c-1.17,2.55-1.87,5.35-1.92,8.19l-0.27-0.29c3.62,0.25,7.23,0.55,10.84,0.89
				c3.62,0.32,7.22,0.77,10.81,1.38c3.58,0.64,7.13,1.51,10.59,2.67c3.46,1.16,6.81,2.63,10.04,4.31l-0.37,0.14
				c0.67-1.35,1.19-2.79,1.53-4.27C2124.76,211.98,2124.9,210.46,2124.91,208.94z"/>
		</g>
	</g>
	<circle class="st3" cx="2047.33" cy="204.53" r="7.71"/>
	<circle class="st3" cx="2101.59" cy="207.56" r="7.71"/>
	<g>
		<path class="st1" d="M2084.09,278.21c-4.34,2.99-9.61,4.74-15.28,4.74c-14.91,0-26.99-12.08-26.99-26.99s12.08-26.99,26.99-26.99
			c8.57,0,16.21,4,21.16,10.23"/>
		<path class="st0" d="M2084.14,278.28c-4.14,3.24-9.4,5.09-14.74,5.3c-2.66,0.02-5.37-0.15-7.95-0.92
			c-2.58-0.7-5.09-1.76-7.31-3.26c-4.49-2.93-7.95-7.25-10.08-12.06c-1.05-2.41-1.9-4.94-2.24-7.56l-0.16-0.98l-0.06-0.99
			c-0.04-0.66-0.11-1.32-0.13-1.98c0.05-1.32,0.01-2.65,0.23-3.96c0.11-1.33,0.45-2.62,0.74-3.92c0.17-0.64,0.41-1.27,0.62-1.9
			c0.11-0.31,0.21-0.64,0.34-0.94l0.42-0.91c0.3-0.6,0.52-1.24,0.88-1.81l1.01-1.74c0.35-0.57,0.78-1.09,1.16-1.64
			c0.38-0.56,0.82-1.06,1.27-1.56c0.86-1.04,1.86-1.93,2.85-2.84c1.06-0.82,2.09-1.7,3.26-2.37c1.12-0.76,2.35-1.31,3.56-1.9
			c0.62-0.26,1.26-0.47,1.89-0.71c0.63-0.25,1.28-0.43,1.93-0.58c5.22-1.38,10.83-1.12,15.86,0.68c5.05,1.78,9.47,5.15,12.52,9.41
			l-0.13,0.1c-3.46-3.89-7.9-6.83-12.8-8.29c-2.43-0.76-4.97-1.16-7.51-1.17c-0.63-0.03-1.27,0.02-1.9,0.07
			c-0.63,0.05-1.27,0.04-1.89,0.15l-1.87,0.3c-0.63,0.08-1.23,0.31-1.84,0.45c-0.61,0.16-1.22,0.31-1.81,0.55
			c-0.59,0.22-1.19,0.42-1.77,0.66c-1.14,0.55-2.29,1.06-3.36,1.75c-1.12,0.6-2.1,1.41-3.11,2.16c-0.95,0.84-1.92,1.66-2.74,2.62
			c-1.7,1.87-3.2,3.96-4.3,6.26l-0.43,0.85c-0.13,0.29-0.23,0.59-0.35,0.89c-0.23,0.6-0.49,1.18-0.69,1.79
			c-0.35,1.23-0.75,2.45-0.93,3.73c-0.28,1.26-0.3,2.55-0.42,3.83c-0.01,0.64,0.03,1.29,0.04,1.93l0.05,0.97l0.14,0.96
			c0.28,2.57,1.06,5.08,2.15,7.41c1.06,2.36,2.62,4.47,4.36,6.35c1.72,1.91,3.79,3.47,5.96,4.77c4.34,2.66,9.4,4.04,14.5,4.06
			c5.11,0.02,10.21-1.45,14.67-4.16L2084.14,278.28z"/>
	</g>
	<g>
		<path class="st2" d="M2051.07,278.94c11.33,4.56,24.13,5.34,35.93,2.19c11.8-3.14,22.52-10.19,30.07-19.78
			c4.93,12.77-1.13,27.81-11.44,36.83c-10.3,9.02-23.98,13.1-37.42,15.74c-2.02-3-0.61-7.16,1.66-9.98
			c2.27-2.82,5.32-5.01,7.14-8.13s1.82-7.84-1.31-9.67"/>
		<path class="st0" d="M2051.11,278.86c2.88,1.01,5.8,1.85,8.79,2.41c2.97,0.59,5.99,0.97,9.01,1.09
			c6.04,0.25,12.11-0.33,17.92-1.94c5.82-1.54,11.39-4.01,16.52-7.21c2.56-1.61,5-3.42,7.28-5.42c2.27-2.01,4.35-4.23,6.26-6.6
			l0.29-0.36l0.16,0.42c2.51,6.48,2.23,13.78,0.08,20.33c-2.14,6.59-6.11,12.57-11.31,17.2c-5.21,4.61-11.37,8.04-17.8,10.52
			c-3.22,1.25-6.52,2.28-9.85,3.15c-3.33,0.88-6.69,1.59-10.07,2.2l-0.52,0.09l-0.26-0.42c-0.41-0.65-0.71-1.36-0.88-2.1
			c-0.17-0.74-0.19-1.5-0.14-2.23c0.13-1.47,0.61-2.85,1.26-4.11c0.66-1.26,1.53-2.4,2.49-3.39c0.95-1,1.94-1.92,2.91-2.86
			c1.9-1.86,3.79-3.84,4.45-6.39c0.34-1.26,0.43-2.6,0.15-3.88c-0.15-0.63-0.38-1.26-0.75-1.8c-0.37-0.54-0.84-1.01-1.4-1.38
			l0.08-0.14c0.6,0.34,1.13,0.8,1.55,1.35c0.42,0.56,0.71,1.2,0.91,1.87c0.39,1.34,0.37,2.77,0.09,4.14c-0.14,0.68-0.36,1.35-0.65,2
			c-0.3,0.64-0.67,1.23-1.06,1.81c-0.79,1.14-1.71,2.17-2.65,3.15c-1.86,1.97-3.84,3.81-4.95,6.12c-0.56,1.15-0.95,2.38-1.02,3.61
			c-0.08,1.23,0.21,2.42,0.87,3.39l-0.78-0.32c3.33-0.71,6.64-1.48,9.92-2.37c3.27-0.91,6.5-1.93,9.66-3.14
			c6.3-2.42,12.34-5.61,17.44-10.02c5.08-4.37,9.1-10.03,11.45-16.36c1.15-3.17,1.88-6.51,1.96-9.9c0.07-3.38-0.43-6.79-1.68-9.94
			l0.45,0.07c-1.88,2.43-3.97,4.68-6.2,6.79c-2.22,2.12-4.62,4.06-7.16,5.8c-5.06,3.51-10.76,6.14-16.73,7.74
			c-5.99,1.53-12.22,2.13-18.36,1.64c-3.07-0.25-6.12-0.73-9.1-1.47c-2.97-0.77-5.9-1.74-8.68-3L2051.11,278.86z"/>
	</g>
</g>
</svg>
